<?xml version="1.0" standalone="no"?>
<!DOCTYPE svg PUBLIC "-//W3C//DTD SVG 1.1//EN" "http://www.w3.org/Graphics/SVG/1.1/DTD/svg11.dtd" >
<svg xmlns="http://www.w3.org/2000/svg" xmlns:xlink="http://www.w3.org/1999/xlink" version="1.1">
<metadata>
Created by FontForge 20190801 at Sun Jul  5 19:04:57 2020
 By Unknown
Araboto (c) (Abd El-Rahman Farahat). 2019. All Rights Reserved
</metadata>
<defs>
<font id="Araboto-Medium" horiz-adv-x="0" >
  <font-face 
    font-family="Araboto-Medium"
    font-weight="400"
    font-stretch="normal"
    units-per-em="2048"
    panose-1="2 0 5 0 0 0 0 0 0 0"
    ascent="1599"
    descent="-449"
    x-height="1082"
    cap-height="1456"
    bbox="-1857 -856 4201 2163"
    underline-thickness="150"
    underline-position="-292"
    unicode-range="U+000D-1F16B"
  />
<missing-glyph horiz-adv-x="1024" 
d="M100 1434h824v-1434h-824v1434zM874 50v1334h-724v-1334h724zM325 1103v45q31 28 58 43q53 30 112 30q92 0 148 -47.5t56 -127.5q0 -49 -23 -98.5t-87 -129.5q-63 -80 -99 -132t-36 -99q0 -38 24 -133h-32q-35 97 -35 148q0 76 81.5 218t81.5 217q0 57 -33 90t-91 33
q-38 0 -69 -17q-26 -15 -56 -40zM378 312q0 10 11 22l57 58q11 10 20 10q10 0 22 -11l56 -60q9 -11 9 -20q0 -11 -10 -22l-56 -62q-14 -14 -21 -14q-11 0 -20 10l-61 71q-7 9 -7 18z" />
    <glyph glyph-name="f_f" unicode="ff" horiz-adv-x="1307" 
d="M210 0v902h-165v180h165v99q0 180 100 278t280 98q64 0 136 -18l-6 -190q-40 8 -93 8q-174 0 -174 -179v-96h220v-180h-220v-902h-243zM790 0v902h-165v180h165v99q0 180 100 278t280 98q64 0 136 -18l-6 -190q-40 8 -93 8q-174 0 -174 -179v-96h220v-180h-220v-902h-243
z" />
    <glyph glyph-name="fi" unicode="fi" horiz-adv-x="1192" 
d="M189 0v902h-165v180h165v74q1 127 54 218t150 137t233 46q80 0 153.5 -17t152.5 -43l-37 -201q-138 48 -252 48q-111 0 -161 -48.5t-50 -145.5v-68h213v-180h-213v-902h-243zM1047 0h-243v1082h243v-1082z" />
    <glyph glyph-name="fl" unicode="fl" horiz-adv-x="1212" 
d="M825 1343q-102 14 -176 14q-196 0 -196 -184v-91h220v-180h-220v-902h-243v902h-165v180h165v97q1 183 108.5 280.5t303.5 97.5q122 0 446 -48v-1509h-243v1343z" />
    <glyph glyph-name="f_f_i" unicode="ffi" horiz-adv-x="1827" 
d="M210 0v902h-165v180h165v99q0 180 100 278t280 98q64 0 136 -18l-6 -190q-40 8 -93 8q-174 0 -174 -179v-96h372v74q1 127 54 218t150 137t233 46q80 0 153.5 -17t152.5 -43l-38 -201q-136 48 -251 48q-111 0 -161 -48.5t-50 -145.5v-68h213v-180h-213v-902h-243v902
h-372v-902h-243zM1683 0h-243v1082h243v-1082z" />
    <glyph glyph-name="f_f_l" unicode="ffl" horiz-adv-x="1827" 
d="M210 0v902h-165v180h165v99q0 180 100 278t280 98q64 0 136 -18l-6 -190q-40 8 -93 8q-174 0 -174 -179v-96h372v97q1 183 108.5 280.5t303.5 97.5q122 0 446 -48v-1509h-243v1343q-102 14 -176 14q-196 0 -196 -184v-91h220v-180h-220v-902h-243v902h-372v-902h-243z
" />
    <glyph glyph-name="uniFDF2" unicode="&#xfedf;&#xfee0;&#xfeea;" horiz-adv-x="2775" arabic-form="isolated" 
d="M308 826q147 190 393 190h227q35 0 35 43v39h230v-787q0 -50 35 -84q35 -36 81 -36h281v1370h245v-986q0 -164 54 -262q66 -122 215 -122h267v1370h244v-1582l-432 -3v-1h-96h-6h-17v1q-182 8 -229 82v-83h-553q-90 3 -156 26q-67 22 -142 126q-125 -89 -285 -89
q-66 0 -130 16q-127 33 -221 129q-95 92 -127 217q-17 68 -17 133q0 158 104 293zM445 454q38 -150 184 -186q38 -10 74 -10q85 0 155 55q105 81 105 213v250v11q0 6 -1 7t-8 1.5t-26 0.5h-227q-130 0 -210 -105q-56 -73 -56 -160q0 -37 10 -77z" />
    <glyph glyph-name="uniFEF5" unicode="&#xfedf;&#xfe82;" horiz-adv-x="1442" arabic-form="isolated" 
d="M588 191l-201 1114h245l201 -1114h202v1370h247v-1586h-1093v216h399zM242 1666q42 23 93 30q26 4 50 4q27 0 52 -5q34 -7 68 -26l25 -15q33 -21 62 -21q7 0 13 1q41 7 90 54l47 43l110 -123l-36 -32l-13 -16l-17 -13q-18 -17 -39 -29q-51 -32 -114 -41q-25 -5 -49 -5
q-48 0 -89 17q-16 7 -34 16l-26 15l-18 12q-14 8 -33 8q-9 0 -20 -2q-37 -5 -89 -54l-111 123q47 43 78 59z" />
    <glyph glyph-name="uniFEF6" unicode="&#xfee0;&#xfe82;" horiz-adv-x="1539" arabic-form="final" 
d="M586 191l-201 1114h245l203 -1114h202v1370h245v-1006q3 -160 58 -251q67 -113 241 -113v-216q-247 0 -299 81v-81h-1093v216h399zM164 1607q47 43 78 59q42 23 93 30q26 4 50 4q27 0 52 -5q34 -7 68 -26l25 -15q33 -21 62 -21q7 0 13 1q41 7 90 54l47 43l110 -123
l-36 -32l-13 -16l-18 -13q-19 -17 -38 -29q-51 -32 -114 -41q-25 -5 -49 -5q-48 0 -89 17q-16 7 -34 16l-26 15l-18 12q-14 8 -33 8q-9 0 -20 -2q-37 -5 -89 -54z" />
    <glyph glyph-name="uniFEF7" unicode="&#xfedf;&#xfe84;" horiz-adv-x="1412" arabic-form="isolated" 
d="M160 -25v216h399l-201 1114h245l203 -1114h202v1370h244v-1586h-1092zM248 1579h58q-8 14 -8 37q0 25 10 61q21 75 93 115q47 27 98 27q26 0 52 -7q78 -22 130 -113l-129 -72q-27 42 -43 47q-6 1 -11 1q-10 0 -19 -4q-17 -10 -23 -31q-2 -7 -2 -13q0 -13 7 -25
q14 -23 36 -23h192v-144h-441v144z" />
    <glyph glyph-name="uniFEF8" unicode="&#xfee0;&#xfe84;" horiz-adv-x="1512" arabic-form="final" 
d="M559 191l-201 1114h245l203 -1114h202v1370h245v-1006q3 -160 58 -251q67 -113 241 -113v-216q-247 0 -299 81v-81h-1093v216h399zM232 1579h59q-7 14 -7 36q0 25 10 62q21 77 93 115q47 28 97 28q27 0 54 -8q80 -25 129 -113l-133 -73q-24 43 -39 48q-6 1 -11 1
q-10 0 -19 -4q-17 -10 -23 -31q-2 -7 -2 -13q0 -13 7 -26q12 -22 36 -22h192v-142h-443v142z" />
    <glyph glyph-name="uniFEF9" unicode="&#xfedf;&#xfe88;" horiz-adv-x="1412" arabic-form="isolated" 
d="M559 193l-201 1114h245l203 -1114h202v1368h244v-1586h-1092v218h399zM525 -301q-8 16 -8 39q0 26 10 61q21 75 91 115q46 26 96 26q28 0 57 -8q77 -22 129 -111l-132 -72q-24 40 -42 45q-5 1 -11 1q-10 0 -21 -5q-14 -8 -18 -26q-2 -8 -2 -16q0 -14 6 -27q12 -20 35 -22
h193v-142h-443v142h60z" />
    <glyph glyph-name="uniFEFA" unicode="&#xfee0;&#xfe88;" horiz-adv-x="1512" arabic-form="final" 
d="M160 191h399l-201 1114h245l203 -1114h202v1370h245v-1006q3 -160 58 -251q67 -113 241 -113v-216q-247 0 -299 81v-81h-1093v216zM451 -301h60q-8 16 -8 39q0 26 10 61q21 75 91 115q46 26 96 26q28 0 57 -8q77 -22 129 -111l-132 -72q-24 40 -40 45q-6 2 -13 2
q-11 0 -21 -6q-14 -8 -18 -26q-2 -8 -2 -16q0 -14 6 -27q12 -20 37 -22h191v-142h-443v142z" />
    <glyph glyph-name="uniFEFB" unicode="&#xfedf;&#xfe8e;" horiz-adv-x="1413" arabic-form="isolated" 
d="M559 191l-201 1114h245l201 -1114h202v1370h247v-1586h-1093v216h399z" />
    <glyph glyph-name="uniFEFC" unicode="&#xfee0;&#xfe8e;" horiz-adv-x="1512" arabic-form="final" 
d="M160 -25v216h399l-201 1114h245l203 -1114h202v1370h245v-1006q3 -160 58 -251q67 -113 241 -113v-216q-247 0 -299 81v-81h-1093z" />
    <glyph glyph-name="uni0621" unicode="&#x621;" horiz-adv-x="1071" arabic-form="isolated" 
d="M160 191h81q-34 86 -34 161q0 42 11 81q40 143 171 218q87 48 178 48q51 0 104 -15q147 -41 232 -191l-195 -108q-45 78 -99 93q-19 5 -37 5q-34 0 -67 -18q-52 -28 -68 -87q-7 -23 -7 -45q0 -36 19 -69q42 -73 120 -73h342v-216h-751v216z" />
    <glyph glyph-name="uni0622" unicode="&#x622;" horiz-adv-x="763" arabic-form="isolated" 
d="M269 -25v1589h246v-1589h-246zM12 1777q49 42 79 58q41 21 91 30q27 4 51 4q28 0 53 -5q34 -7 68 -26l24 -17q35 -21 66 -21q5 0 10 1q40 7 88 53l47 47l111 -123l-49 -49l-18 -15q-20 -16 -38 -27q-50 -32 -114 -43q-25 -5 -49 -5q-48 0 -89 17q-15 7 -34 16l-44 29
q-13 8 -33 8q-9 0 -20 -2q-37 -6 -90 -53z" />
    <glyph glyph-name="uni0623" unicode="&#x623;" horiz-adv-x="763" arabic-form="isolated" 
d="M269 -25v1589h246v-1589h-246zM219 1781q-7 15 -7 37q0 26 10 63q21 75 91 115q46 26 96 26q27 0 56 -8q78 -22 130 -111l-132 -73q-24 41 -41 46q-7 2 -13 2q-9 0 -18 -5q-15 -9 -20 -28q-2 -8 -2 -16q0 -12 6 -23q13 -24 37 -25h191v-142h-443v142h59z" />
    <glyph glyph-name="uni0624" unicode="&#x624;" horiz-adv-x="1400" arabic-form="isolated" 
d="M318 890q157 157 382 157t382 -157q158 -158 158 -378v-426q-2 -61 -11 -91q-47 -175 -219 -291q-209 -143 -567 -143v218q247 0 388 69q126 60 149 127h-280q-225 0 -383 159q-157 158 -157 378t158 378zM490 283q85 -92 210 -92h296v321q0 133 -86 227q-85 92 -210 92
t-210 -92q-86 -94 -86 -227q0 -135 86 -229zM489 1319q-7 14 -7 34q0 26 11 63q21 78 90 116q49 28 99 28q26 0 53 -8q79 -22 130 -113l-133 -73q-23 43 -38 48q-6 1 -12 1q-10 0 -18 -4q-17 -10 -23 -31q-2 -7 -2 -15q0 -12 6 -24q13 -22 37 -22h191v-142h-443v142h59z" />
    <glyph glyph-name="uni0625" unicode="&#x625;" horiz-adv-x="763" arabic-form="isolated" 
d="M269 -25v1589h246v-1589h-246zM160 -355h59q-7 15 -7 37q0 26 10 63q21 74 91 115q45 25 95 25q28 0 58 -8q77 -21 129 -110l-132 -73q-24 41 -41 46q-5 1 -10 1q-12 0 -23 -6q-14 -7 -18 -25q-2 -9 -2 -17q0 -14 6 -25q12 -22 37 -23h191v-142h-443v142z" />
    <glyph glyph-name="uni0626" unicode="&#x626;" horiz-adv-x="2102" arabic-form="isolated" 
d="M166 186q6 151 212 348l157 -162q-76 -74 -110 -139t-34 -113q0 -43 19 -89q53 -131 234.5 -217.5t417.5 -86.5q269 0 412 80.5t188 168.5q24 47 24 86t-23 70q-21 29 -89.5 47t-146.5 33q-134 23 -284 75.5t-183 217.5q-8 37 -8 73q0 148 131 276q170 166 458 166
q131 0 288 -35l-50 -218q-136 36 -244 36q-184 0 -285 -104q-51 -51 -51 -115q0 -18 4 -37q9 -49 75.5 -72.5t192.5 -45.5q110 -20 221 -51.5t176 -119.5q66 -91 66 -194q0 -88 -49 -185q-91 -175 -310.5 -272t-512.5 -97q-308 0 -548.5 121t-319.5 320q-29 71 -29 191
q0 21 1 44zM274 855q-7 14 -7 35q0 26 11 64q21 75 91 116q46 25 96 25q28 0 57 -7q78 -24 130 -111l-134 -75q-22 42 -40 49q-5 1 -9 1q-11 0 -21 -6q-17 -8 -22 -28q-2 -7 -2 -15q0 -13 7 -25q13 -23 36 -23h193v-143h-444v143h58z" />
    <glyph glyph-name="uni0627" unicode="&#x627;" horiz-adv-x="763" arabic-form="isolated" 
d="M269 -25v1589h246v-1589h-246z" />
    <glyph glyph-name="uni0628" unicode="&#x628;" horiz-adv-x="1816" arabic-form="isolated" 
d="M430 903l124 -202q-148 -89 -148 -240q0 -114 79 -191q81 -79 211 -79h715v793h245v-1009h-985q-222 0 -371 144q-140 138 -140 342q0 283 270 442zM880 -188q38 43 107 43q68 0 105 -43q35 -37 35 -90q0 -54 -35 -90q-38 -40 -105 -40q-68 0 -106 41q-33 35 -33 89
q0 52 32 90z" />
    <glyph glyph-name="uni0629" unicode="&#x629;" horiz-adv-x="1302" arabic-form="isolated" 
d="M110 510q0 222 158 380q157 157 382 157q227 0 384 -157q158 -158 158 -380q0 -220 -158 -378q-157 -157 -384 -157q-225 0 -382 157q-158 158 -158 378zM442 283q86 -92 208 -92q125 0 212 92q86 94 86 227q0 135 -86 228q-87 93 -212 93q-122 0 -208 -92
q-85 -94 -85 -229q0 -133 85 -227zM675 1278q0 53 35 91q36 40 104 40q70 0 106 -40q35 -38 35 -91q0 -54 -35 -91q-36 -41 -106 -41q-68 0 -104 41q-35 37 -35 91zM348 1278q0 53 32 91q38 40 106 40t104 -38q37 -40 37 -93q0 -54 -37 -93q-36 -39 -104 -39t-106 41
q-32 38 -32 91z" />
    <glyph glyph-name="uni062A" unicode="&#x62a;" horiz-adv-x="1816" arabic-form="isolated" 
d="M431 906l123 -205q-147 -89 -147 -238q0 -116 78 -193q81 -79 211 -79h716v795h244v-1011h-985q-222 0 -371 144q-140 140 -140 344q0 281 271 443zM678 1171q0 53 34 93q34 39 105 39q68 0 104 -39t36 -93q0 -53 -35 -91q-38 -38 -105 -38q-70 0 -106 39q-33 37 -33 90z
M1039 1262q38 41 106 41q70 0 105 -41q35 -37 35 -91q0 -53 -35 -91q-36 -38 -105 -38q-68 0 -106 38q-33 38 -33 91t33 91z" />
    <glyph glyph-name="uni062B" unicode="&#x62b;" horiz-adv-x="1815" arabic-form="isolated" 
d="M160 463q0 281 270 443l123 -205q-147 -89 -147 -238q0 -116 79 -193q81 -79 210 -79h716v795h244v-1011h-984q-223 0 -367 142t-144 346zM1005 1171q0 54 35 91q35 41 104 41q70 0 106 -41q34 -37 34 -91q0 -53 -35 -91t-105 -38q-68 0 -104 38q-35 38 -35 91zM842 1442
q0 53 32 90q38 41 106 41t104 -38q37 -40 37 -93q0 -54 -36 -92q-38 -38 -105 -38t-106 39q-32 38 -32 91zM678 1171q0 53 32 91q38 41 106 41t104 -39q37 -39 37 -93q0 -53 -36 -91q-38 -38 -105 -38t-105 38q-33 38 -33 91z" />
    <glyph glyph-name="uni062C" unicode="&#x62c;" horiz-adv-x="1725" arabic-form="isolated" 
d="M304 77q142 114 361 114h471q-75 103 -75 325q0 131 -84 225q-80 92 -189 92q-73 0 -138 -45q-64 -47 -116 -152l-205 101q74 153 193 231q122 81 266 81q209 0 356 -157q147 -159 147 -376q0 -157 65 -243q63 -82 209 -82v-216h-900q-111 0 -181 -44q-78 -50 -78 -148
q0 -108 81 -156q67 -38 178 -40h11q107 0 188 36q32 15 69 40l92 63l129 -182l-56 -40l-43 -28q-51 -30 -100 -51q-127 -54 -286 -54h-6q-225 2 -363 111q-140 114 -140 301q0 181 144 294zM1147 -266q0 53 34 92t104 39q68 0 104 -38q37 -40 37 -93q0 -54 -37 -93
q-36 -39 -104 -39q-70 0 -104 40q-34 39 -34 92z" />
    <glyph glyph-name="uni062D" unicode="&#x62d;" horiz-adv-x="1725" arabic-form="isolated" 
d="M304 77q142 114 361 114h471q-75 103 -75 325q0 131 -84 225q-80 92 -189 92q-73 0 -138 -45q-64 -47 -116 -152l-205 101q74 153 193 231q122 81 266 81q209 0 356 -157q147 -159 147 -376q0 -157 65 -243q63 -82 209 -82v-216h-900q-111 0 -181 -44q-78 -50 -78 -148
q0 -108 81 -156q67 -38 178 -40h11q107 0 188 36q32 15 69 40l92 63l129 -182l-56 -40l-43 -28q-51 -30 -100 -51q-127 -54 -286 -54h-6q-225 2 -363 111q-140 114 -140 301q0 181 144 294z" />
    <glyph glyph-name="uni062E" unicode="&#x62e;" horiz-adv-x="1725" arabic-form="isolated" 
d="M304 77q142 114 361 114h473q-77 103 -77 325q0 131 -84 225q-80 92 -189 92q-74 0 -139 -45q-63 -47 -115 -152l-205 101q74 153 193 231q122 81 266 81q209 0 356 -157q147 -159 147 -376q0 -157 65 -243q63 -82 209 -82v-216h-900q-111 0 -181 -44q-80 -50 -80 -148
q0 -108 83 -156q67 -38 178 -40h11q107 0 188 36q32 15 69 40l92 63l129 -182l-57 -40l-42 -28q-51 -30 -100 -51q-127 -54 -286 -54h-6q-225 2 -363 111q-140 114 -140 301q0 181 144 294zM686 1430q35 43 106 43q68 0 106 -43q32 -38 32 -91t-33 -89q-37 -40 -105 -40
q-71 0 -106 40q-35 35 -35 89t35 91z" />
    <glyph glyph-name="uni062F" unicode="&#x62f;" horiz-adv-x="1212" arabic-form="isolated" 
d="M807 191v126q0 62 -8 110q-10 71 -35 134q-71 165 -273 293l104 203q282 -177 387 -420q40 -88 57 -185q13 -69 13 -135v-342h-892v216h647z" />
    <glyph glyph-name="uni0630" unicode="&#x630;" horiz-adv-x="1212" arabic-form="isolated" 
d="M807 191v126q0 62 -8 110q-10 71 -35 134q-71 165 -273 293l104 203q282 -177 387 -420q40 -88 57 -185q13 -69 13 -135v-342h-892v216h647zM369 1274q0 53 33 91q38 40 106 40q67 0 103 -38q37 -40 37 -93q0 -54 -35 -89q-38 -41 -105 -41q-71 0 -106 41q-33 35 -33 89z
" />
    <glyph glyph-name="uni0631" unicode="&#x631;" horiz-adv-x="602" arabic-form="isolated" 
d="M-150 -377q348 211 348 565v798h244v-798q0 -467 -474 -756z" />
    <glyph glyph-name="uni0632" unicode="&#x632;" horiz-adv-x="619" arabic-form="isolated" 
d="M-150 -377q348 211 348 565v798h244v-798q0 -467 -474 -756zM214 1369q36 40 104 40q70 0 108 -40q33 -38 33 -91t-33 -91q-39 -38 -108 -38q-68 0 -103 38q-35 37 -35 91q0 53 34 91z" />
    <glyph glyph-name="uni0633" unicode="&#x633;" horiz-adv-x="2707" arabic-form="isolated" 
d="M412 639l140 -175q-148 -120 -148 -317q0 -163 108 -275q106 -111 260 -111q153 0 259 111q106 112 106 275v712h246v-358q10 -114 51 -190q66 -120 215 -120h68v668h246v-344q10 -143 66 -226q67 -98 199 -98h71v795h244v-1011h-315q-212 0 -265 81v-81h-314
q-198 0 -273 77q-28 -189 -172 -330q-179 -177 -432 -177q-256 0 -433 175q-179 177 -179 427q0 289 252 492z" />
    <glyph glyph-name="uni0634" unicode="&#x634;" horiz-adv-x="2703" arabic-form="isolated" 
d="M412 639l140 -175q-148 -120 -148 -317q0 -163 108 -275q106 -111 260 -111q153 0 259 111q106 112 106 275v712h246v-358q10 -114 51 -190q66 -120 215 -120h68v668h246v-344q10 -143 66 -226q67 -98 199 -98h71v795h244v-1011h-315q-212 0 -265 81v-81h-314
q-198 0 -273 77q-28 -189 -172 -330q-179 -177 -432 -177q-256 0 -433 175q-179 177 -179 427q0 289 252 492zM1861 1268q0 53 34 90q35 43 106 43q69 0 107 -43q32 -37 32 -90q0 -54 -33 -89q-38 -41 -106 -41q-70 0 -105 41q-35 37 -35 89zM1731 1628q36 44 105 44
q71 0 106 -44q34 -36 34 -90t-35 -89q-35 -40 -105 -40q-69 0 -104 40q-35 35 -35 89t34 90zM1566 1358q37 43 106 43q68 0 106 -43q34 -37 34 -90q0 -54 -35 -89q-35 -41 -105 -41q-68 0 -106 41q-33 38 -33 89q0 53 33 90z" />
    <glyph glyph-name="uni0635" unicode="&#x635;" horiz-adv-x="2694" arabic-form="isolated" 
d="M160 203q0 289 252 491l140 -175q-148 -120 -148 -316q0 -164 108 -276q106 -111 260 -111q153 0 259 111q106 112 106 276v711h246v-189q282 193 521 249q89 22 172 22q142 0 267 -63q191 -93 191 -345v-613h-1198q-59 -155 -211 -264q-158 -111 -353 -111
q-256 0 -433 175q-179 177 -179 428zM1383 193h907v395q0 118 -71 157q-12 7 -26 13q-17 6 -41 10q-34 7 -74 7q-35 0 -73 -5q-249 -36 -622 -268v-309z" />
    <glyph glyph-name="uni0636" unicode="&#x636;" horiz-adv-x="2694" arabic-form="isolated" 
d="M412 694l140 -175q-148 -120 -148 -316q0 -164 108 -276q106 -111 260 -111q153 0 259 111q106 112 106 276v711h246v-189q282 193 521 249q89 22 172 22q142 0 267 -63q191 -93 191 -345v-613h-1198q-59 -155 -211 -264q-158 -111 -353 -111q-256 0 -433 175
q-179 177 -179 428q0 289 252 491zM2290 193v395q0 118 -71 157q-12 7 -26 13q-17 6 -41 10q-34 7 -74 7q-35 0 -73 -5q-249 -36 -622 -268v-309h907zM1596 1278q0 53 32 91q38 40 106 40q71 0 106 -40q35 -38 35 -91q0 -54 -35 -91q-36 -38 -106 -38q-67 0 -105 38
q-33 38 -33 91z" />
    <glyph glyph-name="uni0637" unicode="&#x637;" horiz-adv-x="1836" arabic-form="isolated" 
d="M160 -25v216h104v1370h245v-847q290 199 533 258q91 23 177 23q141 0 266 -62q191 -96 191 -345v-613h-1516zM509 191h921v397q0 117 -69 155l-12 7l-15 6q-19 9 -42 12q-32 6 -69 7q-37 -1 -80 -7q-253 -38 -634 -277v-300z" />
    <glyph glyph-name="uni0638" unicode="&#x638;" horiz-adv-x="1836" arabic-form="isolated" 
d="M264 191v1370h245v-847q290 199 533 258q91 23 177 23q141 0 266 -62q191 -96 191 -345v-613h-1516v216h104zM1430 191v397q0 117 -69 155l-12 7l-15 6q-19 9 -42 12q-32 6 -69 7q-37 -1 -80 -7q-253 -38 -634 -277v-300h921zM809 1369q36 40 104 40q70 0 106 -40
q35 -38 35 -91q0 -54 -35 -91q-36 -41 -106 -41q-68 0 -104 41q-35 37 -35 91q0 53 35 91z" />
    <glyph glyph-name="uni0639" unicode="&#x639;" horiz-adv-x="1555" arabic-form="isolated" 
d="M160 -217q0 150 105 259q103 103 201 122l20 5q-24 22 -53 75q-70 124 -70 255q0 72 21 146q58 206 260 320q127 72 264 72q72 0 147 -20q218 -61 336 -272l-197 -115q-80 142 -201 177q-43 13 -84 13q-76 0 -146 -44q-131 -79 -148 -185q-6 -41 -6 -79q0 -92 37 -164
q56 -109 184 -148q36 -9 81 -9h470v-216h-716q-111 0 -178 -44q-81 -50 -81 -148q0 -108 82 -156q66 -40 177 -40h11q107 0 188 36q32 15 69 40l92 63l129 -182l-56 -40l-42 -28q-52 -30 -101 -51q-127 -54 -286 -54h-6q-225 2 -363 111q-140 114 -140 301z" />
    <glyph glyph-name="uni063A" unicode="&#x63a;" horiz-adv-x="1555" arabic-form="isolated" 
d="M160 -217q0 150 105 259q103 103 201 122l20 5q-24 22 -53 75q-70 124 -70 255q0 72 21 146q58 206 260 320q127 72 264 72q72 0 147 -20q218 -61 336 -272l-197 -115q-80 142 -201 177q-43 13 -84 13q-76 0 -146 -44q-131 -79 -148 -185q-6 -41 -6 -79q0 -92 37 -164
q56 -109 184 -148q36 -9 81 -9h470v-216h-716q-111 0 -178 -44q-81 -50 -81 -148q0 -108 82 -156q66 -40 177 -40h11q107 0 188 36q32 15 69 40l92 63l129 -182l-56 -40l-42 -28q-52 -30 -101 -51q-127 -54 -286 -54h-6q-225 2 -363 111q-140 114 -140 301zM740 1341
q0 53 32 91q38 41 106 41t104 -39q37 -39 37 -93q0 -53 -37 -92q-36 -39 -104 -39t-106 41q-32 37 -32 90z" />
    <glyph glyph-name="uni0641" unicode="&#x641;" horiz-adv-x="2305" arabic-form="isolated" 
d="M160 463q0 281 271 443l123 -205q-147 -89 -147 -238q0 -116 78 -193q81 -79 211 -79h472q-105 114 -105 321q0 220 159 378q156 157 381 157t386 -159q156 -156 156 -376v-537h-1474q-224 0 -371 144q-140 140 -140 344zM1306 512q0 -137 84 -229q83 -92 213 -92h296
v321q0 133 -86 227q-85 92 -210 92q-124 0 -210 -93q-87 -93 -87 -226zM1497 1434q39 41 106 41q68 0 106 -41q35 -40 35 -91q0 -53 -37 -92q-36 -39 -104 -39q-67 0 -105 41q-33 35 -33 90q0 53 32 91z" />
    <glyph glyph-name="uni0642" unicode="&#x642;" horiz-adv-x="1946" arabic-form="isolated" 
d="M332 697l162 -178q-95 -151 -95 -325q0 -246 172.5 -418.5t413.5 -172.5q242 0 413 172q98 98 139 216q-4 1 -7 1q-12 0 -14 -17h-274q-225 2 -381 159q-157 158 -157 378t157 376q158 159 383 159t382 -157q158 -158 158 -378q0 -41 2 -115v-362q0 -13 -3 -42t-12 -57
q-57 -178 -202 -323q-240 -240 -584 -240q-343 0 -584 241t-241 580q0 267 172 503zM1031 285q83 -92 213 -94h296v321q0 135 -86 227t-210 92t-209 -92q-86 -92 -86 -227t82 -227zM940 1358q0 53 34 91q36 40 104 40q71 0 106 -40q35 -38 35 -91t-35 -91q-35 -41 -106 -41
q-68 0 -104 41q-34 38 -34 91zM1269 1358q0 53 33 91q39 40 106 40t105 -40q36 -38 36 -91t-36 -92q-38 -38 -105 -38q-70 0 -106 39q-33 38 -33 91z" />
    <glyph glyph-name="uni0643" unicode="&#x643;" horiz-adv-x="1812" arabic-form="isolated" 
d="M430 903l124 -202q-148 -89 -148 -240q0 -114 79 -191q81 -79 211 -79h715v1369h245v-1585h-985q-222 0 -371 144q-140 138 -140 342q0 283 270 442zM780 805q-11 24 -11 55q0 32 11 71q26 92 109 138q57 33 117 33q31 0 63 -9q96 -26 153 -131l-150 -83q-28 49 -50 56
q-6 1 -12 1q-16 0 -33 -9q-20 -11 -28 -38q-3 -9 -3 -19q0 -17 10 -35q16 -30 50 -30h229v-164h-531v164h76z" />
    <glyph glyph-name="uni0644" unicode="&#x644;" horiz-adv-x="1642" arabic-form="isolated" 
d="M160 199q0 333 334 602l141 -176q-230 -183 -230 -426q0 -201 110 -329q114 -130 298 -130t304 136q119 132 119 333v774h1v578h245v-1352q0 -286 -189 -482q-192 -203 -478 -203q-287 0 -472 199q-183 190 -183 476z" />
    <glyph glyph-name="uni0645" unicode="&#x645;" horiz-adv-x="1779" arabic-form="isolated" 
d="M161 -133q0 186 99 267q37 33 88 47q35 10 74 10h15l18 2q23 3 41 9q40 13 40 46v239q0 220 158 377q159 158 384 158t381 -156q159 -159 159 -379q0 -110 -29 -177q-71 -154 -147 -220q-133 -140 -364 -140q-232 0 -362 138q-66 -117 -294 -117q-19 -5 -25 -16t-6 -88
v-599h-230v599zM868 259q85 -93 210 -93q124 0 210 93q87 94 87 228q0 133 -87 227q-86 92 -210 92q-125 0 -210 -92q-86 -94 -86 -227q0 -135 86 -228z" />
    <glyph glyph-name="uni0646" unicode="&#x646;" horiz-adv-x="1642" arabic-form="isolated" 
d="M160 199q0 334 334 601l141 -175q-230 -183 -230 -426q0 -201 111 -330q113 -129 297 -129t304 136q119 132 119 333v774h246v-774q0 -285 -189 -482q-191 -203 -478 -203t-472 198q-183 192 -183 477zM740 1145q0 53 34 92t105 39q67 0 103 -38q37 -40 37 -93
q0 -54 -35 -92q-38 -38 -105 -38q-70 0 -106 39q-33 38 -33 91z" />
    <glyph glyph-name="uni0647" unicode="&#x647;" horiz-adv-x="1302" arabic-form="isolated" 
d="M268 890q157 157 382 157q227 0 384 -157q158 -158 158 -380q0 -220 -158 -378q-157 -157 -384 -157q-225 0 -382 157q-158 158 -158 378q0 222 158 380zM442 283q86 -92 208 -92q125 0 212 92q86 94 86 227q0 135 -86 228q-87 93 -212 93q-122 0 -208 -92
q-85 -94 -85 -229q0 -133 85 -227z" />
    <glyph glyph-name="uni0648" unicode="&#x648;" horiz-adv-x="1402" arabic-form="isolated" 
d="M318 890q157 157 382 157t382 -157q158 -158 158 -378l2 -380q-2 -26 -2 -46q-2 -61 -11 -91q-47 -175 -219 -291q-209 -143 -569 -143v218q247 0 390 69q126 60 149 127h-280q-225 0 -382 157q-158 158 -158 380q0 220 158 378zM490 283q85 -92 210 -92h296v321
q0 133 -86 227q-85 92 -210 92t-210 -92q-86 -94 -86 -227q0 -135 86 -229z" />
    <glyph glyph-name="uni0649" unicode="&#x649;" horiz-adv-x="2102" arabic-form="isolated" 
d="M166 186q6 151 212 348l157 -162q-76 -74 -110 -139t-34 -113q0 -43 19 -89q53 -131 234.5 -217.5t417.5 -86.5q269 0 412 80.5t188 168.5q24 47 24 86t-23 70q-21 29 -89.5 47t-146.5 33q-134 23 -284 75.5t-183 217.5q-8 37 -8 73q0 148 131 276q170 166 458 166
q131 0 288 -35l-50 -218q-136 36 -244 36q-184 0 -285 -104q-51 -51 -51 -115q0 -18 4 -37q9 -49 75.5 -72.5t192.5 -45.5q110 -20 221 -51.5t176 -119.5q66 -91 66 -194q0 -88 -49 -185q-91 -175 -310.5 -272t-512.5 -97q-308 0 -548.5 121t-319.5 320q-29 71 -29 191
q0 21 1 44z" />
    <glyph glyph-name="uni064A" unicode="&#x64a;" horiz-adv-x="2102" arabic-form="isolated" 
d="M166 186q6 151 212 348l157 -162q-76 -74 -110 -139t-34 -113q0 -43 19 -89q53 -131 234.5 -217.5t417.5 -86.5q269 0 412 80.5t188 168.5q24 47 24 86t-23 70q-21 29 -89.5 47t-146.5 33q-134 23 -284 75.5t-183 217.5q-8 37 -8 73q0 148 131 276q170 166 458 166
q131 0 288 -35l-50 -218q-136 36 -244 36q-184 0 -285 -104q-51 -51 -51 -115q0 -18 4 -37q9 -49 75.5 -72.5t192.5 -45.5q110 -20 221 -51.5t176 -119.5q66 -91 66 -194q0 -88 -49 -185q-91 -175 -310.5 -272t-512.5 -97q-308 0 -548.5 121t-319.5 320q-29 71 -29 191
q0 21 1 44zM1178 -637q35 44 106 44q68 0 106 -43q35 -38 35 -91q0 -54 -36 -89q-37 -40 -105 -40q-70 0 -106 40q-32 36 -32 89t32 90zM850 -637q35 44 104 44q71 0 107 -44q34 -37 34 -90q0 -54 -35 -89q-35 -40 -106 -40q-68 0 -103 40q-35 38 -35 89q0 53 34 90z" />
    <glyph glyph-name="uni0671" unicode="&#x671;" horiz-adv-x="763" arabic-form="isolated" 
d="M269 -25v1589h246v-1589h-246zM205 1728v323h103v-178q35 24 96 38q25 6 49 6q39 0 74 -17q56 -28 56 -97v-164h-403v89h25zM308 1728h171v75q0 17 -6 20l-3 2q-3 1 -5 1l-12 2l-14 -2q-55 -8 -131 -56v-42z" />
    <glyph glyph-name="uni0679" unicode="&#x679;" horiz-adv-x="1816" arabic-form="isolated" 
d="M430 905l124 -202q-148 -89 -148 -240q0 -114 79 -191q81 -79 211 -79h715v793h245v-1009h-985q-222 0 -371 144q-140 138 -140 342q0 283 270 442zM743 887v89h25v323h103v-178q35 24 96 38q25 6 49 6q39 0 74 -17q56 -28 56 -97v-164h-403zM1042 976v75q0 17 -6 20
l-3 2q-3 1 -5 1l-12 2l-14 -2q-55 -8 -131 -56v-42h171z" />
    <glyph glyph-name="uni067E" unicode="&#x67e;" horiz-adv-x="1816" arabic-form="isolated" 
d="M430 903l124 -202q-148 -89 -148 -240q0 -114 79 -191q81 -79 211 -79h715v793h245v-1009h-985q-222 0 -371 144q-140 138 -140 342q0 283 270 442zM863 -477q0 50 33 86q34 36 99 36q63 0 99 -36q31 -36 31 -86q0 -49 -31 -85q-35 -38 -99 -38q-66 0 -99 38
q-33 35 -33 85zM742 -138q34 36 98 36q65 0 99 -36q32 -35 32 -85t-32 -85q-33 -38 -99 -38q-65 0 -98 38q-32 35 -32 85t32 85zM1049 -138q34 36 100 36q63 0 99 -36q31 -35 31 -85t-31 -85q-36 -38 -99 -38q-66 0 -98 36q-32 37 -32 87t30 85z" />
    <glyph glyph-name="uni0686" unicode="&#x686;" horiz-adv-x="1725" arabic-form="isolated" 
d="M304 77q142 114 361 114h471q-75 103 -75 325q0 131 -84 225q-80 92 -189 92q-73 0 -138 -45q-64 -47 -116 -152l-205 101q74 153 193 231q122 81 266 81q209 0 356 -157q147 -159 147 -376q0 -157 65 -243q63 -82 209 -82v-216h-900q-111 0 -181 -44q-78 -50 -78 -148
q0 -108 81 -156q67 -38 178 -40h11q107 0 188 36q32 15 69 40l92 63l129 -182l-56 -40l-43 -28q-51 -30 -100 -51q-127 -54 -286 -54h-6q-225 2 -363 111q-140 114 -140 301q0 181 144 294zM1366 -107q30 31 84 31q57 0 86 -31q29 -30 29 -74q0 -43 -28 -73q-30 -34 -87 -34
q-55 0 -85 34q-27 31 -27 73q0 43 28 74zM1066 -181q0 43 28 74q30 31 84 31q57 0 86 -31q29 -30 29 -74q0 -43 -28 -73q-30 -34 -87 -34q-55 0 -85 34q-27 31 -27 73zM1202 -390q0 43 28 74q30 31 84 31q57 0 86 -31q29 -30 29 -74q0 -43 -28 -73q-30 -34 -87 -34
q-55 0 -85 34q-27 31 -27 73z" />
    <glyph glyph-name="uni0688" unicode="&#x688;" horiz-adv-x="1212" arabic-form="isolated" 
d="M160 191h647v126q0 62 -8 110q-10 71 -35 134q-71 165 -273 293l104 203q282 -177 387 -420q40 -88 57 -185q13 -69 13 -135v-342h-892v216zM339 1163v89h25v323h103v-178q35 24 96 38q25 6 49 6q39 0 74 -17q56 -28 56 -97v-164h-403zM638 1252v75q0 17 -6 20l-3 2
q-3 1 -5 1l-12 2l-14 -2q-55 -8 -131 -56v-42h171z" />
    <glyph glyph-name="uni0691" unicode="&#x691;" horiz-adv-x="686" arabic-form="isolated" 
d="M-150 -377q348 211 348 565v798h244v-798q0 -467 -474 -756zM123 1163v89h25v323h103v-178q35 24 96 38q25 6 49 6q39 0 74 -17q56 -28 56 -97v-164h-403zM251 1294v-42h171v75q0 17 -6 20l-3 2q-3 1 -5 1l-12 2l-14 -2q-55 -8 -131 -56z" />
    <glyph glyph-name="uni0698" unicode="&#x698;" horiz-adv-x="780" arabic-form="isolated" 
d="M-150 -377q348 211 348 565v798h244v-798q0 -467 -474 -756zM212 1611q36 41 106 41q68 0 106 -41q33 -37 33 -90t-33 -91q-39 -39 -106 -39q-70 0 -106 39q-35 37 -35 91q0 53 35 90zM48 1341q36 41 104 41q71 0 106 -41q35 -37 35 -91q0 -53 -35 -91q-36 -38 -106 -38
q-68 0 -103 38t-35 91q0 54 34 91zM377 1343q34 39 105 39q68 0 106 -41q32 -38 32 -91t-33 -91q-38 -38 -105 -38q-70 0 -106 39q-33 37 -33 90t34 93z" />
    <glyph glyph-name="uni06A4" unicode="&#x6a4;" horiz-adv-x="2305" arabic-form="isolated" 
d="M431 906l123 -205q-147 -89 -147 -238q0 -116 78 -193q81 -79 211 -79h472q-105 114 -105 321q0 220 159 378q156 157 381 157t386 -159q156 -156 156 -376v-537h-1474q-224 0 -371 144q-140 140 -140 344q0 281 271 443zM1390 283q83 -92 213 -92h296v321q0 133 -86 227
q-85 92 -210 92q-124 0 -210 -93q-87 -93 -87 -226q0 -137 84 -229zM1429 1517q0 53 35 90q36 41 106 41q68 0 106 -41q33 -37 33 -90t-33 -91q-39 -39 -106 -39q-70 0 -106 39q-35 37 -35 91zM1300 1337q36 41 104 41q71 0 106 -41q35 -37 35 -91q0 -53 -35 -91
q-36 -38 -106 -38q-68 0 -103 38t-35 91q0 54 34 91zM1595 1246q0 53 34 93q34 39 105 39q68 0 106 -41q32 -38 32 -91t-33 -91q-38 -38 -105 -38q-70 0 -106 39q-33 37 -33 90z" />
    <glyph glyph-name="uni06A9" unicode="&#x6a9;" horiz-adv-x="2565" arabic-form="isolated" 
d="M430 903l124 -202q-148 -89 -148 -240q0 -114 79 -191q81 -79 211 -79h1465v128q0 110 -103 188q-118 89 -324 89h-806v204l1094 745l125 -185l-804 -549h385q286 0 480 -137q197 -143 197 -355v-153l-2 -191h-1732q-223 0 -371 144q-140 138 -140 342q0 281 270 442z
" />
    <glyph glyph-name="uni06AF" unicode="&#x6af;" horiz-adv-x="2565" arabic-form="isolated" 
d="M430 903l124 -202q-148 -89 -148 -240q0 -114 79 -191q81 -79 211 -79h1465v128q0 110 -103 188q-118 89 -324 89h-806v204l1094 745l125 -185l-804 -549h385q286 0 480 -137q197 -143 197 -355v-153l-2 -191h-1732q-223 0 -371 144q-140 138 -140 342q0 281 270 442z
M964 955l-60 100l976 651l60 -99z" />
    <glyph glyph-name="uniFB51" unicode="&#x671;" horiz-adv-x="707" arabic-form="final" 
d="M186 1561h247v-1305q0 -65 60 -65h251l3 -216h-260q-134 0 -217 78q-84 79 -84 203v1305zM98 1639v89h25v323h103v-178q35 24 96 38q25 6 49 6q39 0 74 -17q56 -28 56 -97v-164h-403zM226 1770v-42h171v75q0 17 -6 20l-3 2q-3 1 -5 1l-12 2l-14 -2q-55 -8 -131 -56z" />
    <glyph glyph-name="uniFB57" unicode="&#x67e;" horiz-adv-x="1923" arabic-form="final" 
d="M430 903l124 -202q-148 -89 -148 -240q0 -114 79 -191q81 -79 211 -79h715v792h245v-792h307v-216h-1292q-222 0 -371 144q-140 138 -140 342q0 281 270 442zM916 -477q0 50 33 86q34 36 99 36q63 0 99 -36q31 -36 31 -86q0 -49 -31 -85q-35 -38 -99 -38q-66 0 -99 38
q-33 35 -33 85zM763 -223q0 50 32 85q34 36 98 36q65 0 99 -36q32 -35 32 -85t-32 -85q-33 -38 -99 -38q-65 0 -98 38q-32 35 -32 85zM1102 -138q34 36 100 36q63 0 99 -36q31 -35 31 -85t-31 -85q-36 -38 -99 -38q-66 0 -98 36q-32 37 -32 87t30 85z" />
    <glyph glyph-name="uniFB58" unicode="&#x67e;" horiz-adv-x="735" arabic-form="initial" 
d="M-10 -25v216h308v792h247v-1008h-555zM154 -477q0 50 33 86q34 36 99 36q63 0 99 -36q31 -36 31 -86q0 -49 -31 -85q-35 -38 -99 -38q-66 0 -99 38q-33 35 -33 85zM1 -223q0 50 32 85q34 36 98 36q65 0 99 -36q32 -35 32 -85t-32 -85q-33 -38 -99 -38q-65 0 -98 38
q-32 35 -32 85zM340 -138q34 36 100 36q63 0 99 -36q31 -35 31 -85t-31 -85q-36 -38 -99 -38q-66 0 -98 36q-32 37 -32 87t30 85z" />
    <glyph glyph-name="uniFB59" unicode="&#x67e;" horiz-adv-x="820" arabic-form="medial" 
d="M-10 191h270v792h245v-408q0 -167 54 -264q68 -120 215 -120h86v-216h-90h-7q-174 0 -258 101v-101h-515v216zM254 -477q0 50 33 86q34 36 99 36q63 0 99 -36q31 -36 31 -86q0 -49 -31 -85q-35 -38 -99 -38q-66 0 -99 38q-33 35 -33 85zM101 -223q0 50 32 85q34 36 98 36
q65 0 99 -36q32 -35 32 -85t-32 -85q-33 -38 -99 -38q-65 0 -98 38q-32 35 -32 85zM410 -223q0 50 30 85q34 36 100 36q63 0 99 -36q31 -35 31 -85t-31 -85q-36 -38 -99 -38q-66 0 -98 36q-32 37 -32 87z" />
    <glyph glyph-name="uniFB67" unicode="&#x679;" horiz-adv-x="1923" arabic-form="final" 
d="M430 903l124 -202q-148 -89 -148 -240q0 -114 79 -191q81 -79 211 -79h715v792h245v-792h307v-216h-1292q-222 0 -371 144q-140 138 -140 342q0 281 270 442zM743 887v89h25v323h103v-178q35 24 96 38q25 6 49 6q39 0 74 -17q56 -28 56 -97v-164h-403zM871 1018v-42h171
v75q0 17 -6 20l-3 2q-3 1 -5 1l-12 2l-14 -2q-55 -8 -131 -56z" />
    <glyph glyph-name="uniFB68" unicode="&#x679;" horiz-adv-x="705" arabic-form="initial" 
d="M298 191v792h247v-1008h-555v216h308zM148 1191h25v323h103v-178q35 24 96 38q25 6 49 6q39 0 74 -17q56 -28 56 -97v-164h-403v89zM276 1233v-42h171v75q0 17 -6 20l-3 2q-3 1 -5 1l-12 2l-14 -2q-55 -8 -131 -56z" />
    <glyph glyph-name="uniFB69" unicode="&#x679;" horiz-adv-x="820" arabic-form="medial" 
d="M-10 191h270v792h245v-408q0 -167 54 -264q68 -120 215 -120h86v-216h-90q-212 2 -265 83v-83h-515v216zM204 1152v323h103v-178q35 24 96 38q25 6 49 6q39 0 74 -17q56 -28 56 -97v-164h-403v89h25zM307 1152h171v75q0 17 -6 20l-3 2q-3 1 -5 1l-12 2l-14 -2
q-55 -8 -131 -56v-42z" />
    <glyph glyph-name="uniFB6B" unicode="&#x6a4;" horiz-adv-x="2418" arabic-form="final" 
d="M430 906l124 -205q-148 -89 -148 -238q0 -116 79 -193q81 -79 211 -79h473q-106 114 -106 321q0 220 158 378q157 157 382 157t386 -159q156 -156 156 -376v-321h313v-216h-1787q-222 0 -371 144q-140 140 -140 344q0 281 270 443zM1389 283q84 -92 214 -92h296v321
q0 133 -86 227q-85 92 -210 92q-124 0 -210 -93q-88 -93 -88 -226q0 -137 84 -229zM1535 1652q36 41 106 41q68 0 106 -41q33 -37 33 -90t-33 -91q-39 -39 -106 -39q-70 0 -106 39q-35 37 -35 91q0 53 35 90zM1371 1382q36 41 104 41q71 0 106 -41q35 -37 35 -91
q0 -53 -35 -91q-36 -38 -106 -38q-68 0 -103 38t-35 91q0 54 34 91zM1666 1291q0 53 34 93q34 39 105 39q68 0 106 -41q32 -38 32 -91t-33 -91q-38 -38 -105 -38q-70 0 -106 39q-33 37 -33 90z" />
    <glyph glyph-name="uniFB6C" unicode="&#x6a4;" horiz-adv-x="1539" arabic-form="initial" 
d="M401 191q-104 114 -104 319q0 222 158 380q157 157 382 157t381 -157q159 -158 159 -380l2 -535h-1389v216h411zM623 283q83 -92 212 -92h297v319q0 135 -86 229q-85 92 -209 92q-125 0 -212 -93q-88 -93 -88 -228t86 -227zM717 1562q0 53 35 90q36 41 106 41
q68 0 106 -41q33 -37 33 -90t-33 -91q-39 -39 -106 -39q-70 0 -106 39q-35 37 -35 91zM588 1382q36 41 104 41q71 0 106 -41q35 -37 35 -91q0 -53 -35 -91q-36 -38 -106 -38q-68 0 -103 38t-35 91q0 54 34 91zM883 1291q0 53 34 93q34 39 105 39q68 0 106 -41q32 -38 32 -91
t-33 -91q-38 -38 -105 -38q-70 0 -106 39q-33 37 -33 90z" />
    <glyph glyph-name="uniFB6D" unicode="&#x6a4;" horiz-adv-x="1649" arabic-form="medial" 
d="M402 191q-105 114 -105 321q0 220 159 378q156 157 381 157t382 -157q158 -158 158 -378v-321h312v-216h-1699v216h412zM538 512q0 -137 86 -229q83 -92 211 -92h298v321q0 133 -86 227q-85 92 -210 92q-124 0 -212 -93q-87 -93 -87 -226zM708 1562q0 53 35 90
q36 41 106 41q68 0 106 -41q33 -37 33 -90t-33 -91q-39 -39 -106 -39q-70 0 -106 39q-35 37 -35 91zM579 1382q36 41 104 41q71 0 106 -41q35 -37 35 -91q0 -53 -35 -91q-36 -38 -106 -38q-68 0 -103 38t-35 91q0 54 34 91zM874 1291q0 53 34 93q34 39 105 39q68 0 106 -41
q32 -38 32 -91t-33 -91q-38 -38 -105 -38q-70 0 -106 39q-33 37 -33 90z" />
    <glyph glyph-name="uniFB7B" unicode="&#x686;" horiz-adv-x="1586" arabic-form="final" 
d="M305 77q141 114 358 114h475q-77 103 -77 325q0 131 -84 225q-79 92 -189 92q-73 0 -138 -45q-66 -47 -115 -153l-206 102q74 153 193 231q120 81 266 81q209 0 356 -157q147 -159 147 -376q0 -157 65 -243q63 -82 180 -82h89v-216h-962q-109 0 -179 -44
q-80 -50 -80 -148q0 -108 83 -156q67 -38 179 -40h11q106 0 187 36q32 15 69 40l92 63l129 -182l-56 -40l-42 -28q-52 -30 -101 -51q-127 -54 -286 -54h-6q-225 2 -363 111q-140 114 -140 301q0 181 145 294zM1338 -181q0 43 28 74q30 31 84 31q57 0 86 -31q29 -30 29 -74
q0 -43 -28 -73q-30 -34 -87 -34q-55 0 -85 34q-27 31 -27 73zM1066 -181q0 43 28 74q30 31 84 31q57 0 86 -31q29 -30 29 -74q0 -43 -28 -73q-30 -34 -87 -34q-55 0 -85 34q-27 31 -27 73zM1202 -390q0 43 28 74q30 31 84 31q57 0 86 -31q29 -30 29 -74q0 -43 -28 -73
q-30 -34 -87 -34q-55 0 -85 34q-27 31 -27 73z" />
    <glyph glyph-name="uniFB7C" unicode="&#x686;" horiz-adv-x="1447" arabic-form="initial" 
d="M-10 191h883q-67 108 -67 350q0 118 -80 206q-77 86 -187 86q-163 0 -255 -177l-203 106q75 143 196 216q119 71 262 71q208 0 361 -159q148 -154 148 -360q0 -184 72 -272q55 -67 167 -67v-216h-1297v216zM992 -107q30 31 84 31q57 0 86 -31q29 -30 29 -74
q0 -43 -28 -73q-30 -34 -87 -34q-55 0 -85 34q-27 31 -27 73q0 43 28 74zM856 -316q30 31 84 31q57 0 86 -31q29 -30 29 -74q0 -43 -28 -73q-30 -34 -87 -34q-55 0 -85 34q-27 31 -27 73q0 43 28 74zM692 -181q0 43 28 74q30 31 84 31q57 0 86 -31q29 -30 29 -74
q0 -43 -28 -73q-30 -34 -87 -34q-55 0 -85 34q-27 31 -27 73z" />
    <glyph glyph-name="uniFB7D" unicode="&#x686;" horiz-adv-x="1349" arabic-form="medial" 
d="M-10 -25v216h882q-67 108 -67 350q0 118 -80 206q-77 86 -187 86q-162 0 -255 -177l-202 106q75 143 196 216q119 71 261 71q209 0 361 -159q148 -154 148 -360q0 -184 73 -272q54 -67 137 -67h132v-216h-1399zM856 -316q30 31 84 31q57 0 86 -31q29 -30 29 -74
q0 -43 -28 -73q-30 -34 -87 -34q-55 0 -85 34q-27 31 -27 73q0 43 28 74zM720 -107q30 31 84 31q57 0 86 -31q29 -30 29 -74q0 -43 -28 -73q-30 -34 -87 -34q-55 0 -85 34q-27 31 -27 73q0 43 28 74zM964 -181q0 43 28 74q30 31 84 31q57 0 86 -31q29 -30 29 -74
q0 -43 -28 -73q-30 -34 -87 -34q-55 0 -85 34q-27 31 -27 73z" />
    <glyph glyph-name="uniFB89" unicode="&#x688;" horiz-adv-x="1379" arabic-form="final" 
d="M159 -25l1 216h647v133q0 61 -8 111q-10 70 -35 133q-71 166 -273 292l104 203q229 -143 339 -325q82 -135 107 -288q42 -259 259 -259h119v-216h-119q-198 0 -249 60l-1 -60h-891zM366 1197v89h25v323h103v-178q35 24 96 38q25 6 49 6q39 0 74 -17q56 -28 56 -97v-164
h-403zM494 1286h171v75q0 17 -6 20l-3 2q-3 1 -5 1l-12 2l-14 -2q-55 -8 -131 -56v-42z" />
    <glyph glyph-name="uniFB8B" unicode="&#x698;" horiz-adv-x="783" arabic-form="final" 
d="M-150 -377q346 210 346 565v798h246v-408q0 -167 53 -265q67 -122 216 -122h112v-216h-120q-212 4 -266 88q-9 -350 -472 -630zM212 1611q36 41 106 41q68 0 106 -41q33 -37 33 -90t-33 -91q-39 -39 -106 -39q-70 0 -106 39q-35 37 -35 91q0 53 35 90zM14 1250
q0 54 34 91q36 41 104 41q71 0 106 -41q35 -37 35 -91q0 -53 -35 -91q-36 -38 -106 -38q-68 0 -103 38t-35 91zM377 1343q34 39 105 39q68 0 106 -41q32 -38 32 -91t-33 -91q-38 -38 -105 -38q-70 0 -106 39q-33 37 -33 90t34 93z" />
    <glyph glyph-name="uniFB8D" unicode="&#x691;" horiz-adv-x="783" arabic-form="final" 
d="M-150 -377q346 210 346 565v798h246v-408q0 -167 53 -265q67 -122 216 -122h112v-216h-120q-212 4 -266 88q-9 -350 -472 -630zM143 1169v323h103v-178q35 24 96 38q25 6 49 6q39 0 74 -17q56 -28 56 -97v-164h-403v89h25zM417 1169v75q0 17 -6 20l-3 2q-3 1 -5 1l-12 2
l-14 -2q-55 -8 -131 -56v-42h171z" />
    <glyph glyph-name="uniFB8F" unicode="&#x6a9;" horiz-adv-x="2681" arabic-form="final" 
d="M430 903l124 -202q-148 -89 -148 -240q0 -114 79 -191q81 -79 211 -79h1465v128q0 110 -103 188q-118 89 -324 89h-806v204l1094 745l125 -185l-804 -549h385q286 0 480 -137q197 -143 197 -355v-128h316v-216h-2050q-223 0 -371 144q-140 138 -140 342q0 281 270 442z
" />
    <glyph glyph-name="uniFB90" unicode="&#x6a9;" horiz-adv-x="1943" arabic-form="initial" 
d="M-10 -25v216h1549v128q0 110 -103 189q-118 88 -324 88h-806v204l1093 745l127 -185l-805 -549h385q286 0 478 -137q199 -142 199 -355v-344h-1793z" />
    <glyph glyph-name="uniFB91" unicode="&#x6a9;" horiz-adv-x="2052" arabic-form="medial" 
d="M-10 191h1545v128q0 110 -103 189q-118 88 -324 88h-806v204l1093 745l127 -185l-805 -549h385q285 0 480 -137q197 -143 197 -355v-128h313v-216h-2102v216z" />
    <glyph glyph-name="uniFB93" unicode="&#x6af;" horiz-adv-x="2681" arabic-form="final" 
d="M430 903l124 -202q-148 -89 -148 -240q0 -114 79 -191q81 -79 211 -79h1465v128q0 110 -103 188q-118 89 -324 89h-806v204l1094 745l125 -185l-804 -549h385q286 0 480 -137q197 -143 197 -355v-128h316v-216h-2050q-223 0 -371 144q-140 138 -140 342q0 281 270 442z
M964 955l-60 100l976 651l60 -99z" />
    <glyph glyph-name="uniFB94" unicode="&#x6af;" horiz-adv-x="1943" arabic-form="initial" 
d="M-10 191h1549v128q0 110 -103 189q-118 88 -324 88h-806v204l1093 745l127 -185l-805 -549h385q286 0 478 -137q199 -142 199 -355v-344h-1793v216zM343 955l-60 100l976 651l60 -99z" />
    <glyph glyph-name="uniFB95" unicode="&#x6af;" horiz-adv-x="2052" arabic-form="medial" 
d="M1535 191v128q0 110 -103 189q-118 88 -324 88h-806v204l1093 745l127 -185l-805 -549h385q285 0 480 -137q197 -143 197 -355v-128h313v-216h-2102v216h1545zM283 1055l976 651l60 -99l-976 -652z" />
    <glyph glyph-name="uniFC5E" unicode="&#xfc5e;" arabic-form="isolated" 
d="M-101 260v-122q0 -12 6 -16q4 -3 9 -3h2q33 4 33 42v122h104v-122q0 -12 6 -17q3 -3 6 -3q2 0 4 1q35 4 35 42v122h103v-122q0 -48 -34 -88t-87 -47q-13 -2 -19 -2q-38 0 -58 15q-24 -29 -77 -36q-11 -1 -19 -1q-46 0 -79 28q-38 34 -38 85v122h103zM-264 354l8 64
q23 -3 43 -3q24 0 46 4q34 7 52 18q-22 8 -40 25q-30 31 -30 75t30.5 74.5t74.5 30.5t75 -30.5t31 -74.5q0 -8 -1 -18q-2 -10 -5 -18q-24 -86 -94.5 -118.5t-140.5 -32.5q-23 0 -49 4zM-14 354l8 64q23 -3 43 -3q24 0 46 4q34 7 52 18q-22 8 -40 25q-30 31 -30 75t30.5 74.5
t74.5 30.5t75 -30.5t31 -74.5q0 -8 -1 -18q-2 -10 -5 -18q-24 -86 -94.5 -118.5t-140.5 -32.5q-23 0 -49 4zM-116 535q0 -16 11 -27t26 -11q16 0 27 11t11 27q0 15 -11 26t-27 11q-15 0 -26 -11t-11 -26zM134 535q0 -16 11 -27t26 -11q16 0 27 11t11 27q0 15 -11 26t-27 11
q-15 0 -26 -11t-11 -26z" />
    <glyph glyph-name="uniFC5F" unicode="&#xfc5f;" arabic-form="isolated" 
d="M-201 429v122h104v-122q0 -12 5 -16q4 -3 9 -3h2q33 4 33 42v122h104v-122q0 -12 6 -17q3 -3 6 -3q2 0 4 1q35 4 35 42v122h103v-122q0 -48 -34 -88t-86 -47q-14 -2 -20 -2q-38 0 -58 15q-24 -29 -77 -36q-11 -1 -19 -1q-46 0 -79 28q-38 34 -38 85zM-218 221l425 103
l20 -82l-426 -102zM-218 90l425 103l20 -82l-426 -102z" />
    <glyph glyph-name="uniFC60" unicode="&#xfc60;" arabic-form="isolated" 
d="M-101 250v-122q0 -12 6 -16q4 -3 9 -3h2q33 4 33 42v122h104v-122q0 -12 6 -17q3 -3 6 -3q2 0 4 1q34 4 34 42v122h103v-122q0 -48 -33.5 -88t-86.5 -47q-13 -2 -19 -2q-38 0 -58 15q-25 -29 -77 -36q-11 -1 -19 -1q-46 0 -79 28q-39 34 -39 85v122h104zM204 517l20 -82
l-426 -102l-20 81z" />
    <glyph glyph-name="uniFC61" unicode="&#xfc61;" arabic-form="isolated" 
d="M-204 260h103v-122q0 -12 6 -16q4 -3 9 -3h2q33 4 33 42v122h104v-122q0 -12 6 -17q3 -3 6 -3q2 0 4 1q35 4 35 42v122h103v-122q0 -48 -34 -88t-87 -47q-13 -2 -19 -2q-38 0 -58 15q-24 -29 -77 -36q-11 -1 -19 -1q-46 0 -79 28q-38 34 -38 85v122zM-147 418
q23 -3 43 -3q24 0 46 4q34 7 52 18q-22 8 -40 25q-30 31 -30 75t30.5 74.5t74.5 30.5t75 -30.5t31 -74.5q0 -8 -1 -18q-2 -10 -5 -18q-24 -86 -94.5 -118.5t-140.5 -32.5q-23 0 -49 4zM-7 535q0 -16 11 -27t26 -11q16 0 27 11t11 27q0 15 -11 26t-27 11q-15 0 -26 -11
t-11 -26z" />
    <glyph glyph-name="uniFC62" unicode="&#xfc62;" arabic-form="isolated" 
d="M-102 433v-122q0 -12 6 -16q4 -3 9 -3h2q33 4 33 42v122h104v-122q0 -12 6 -17q3 -3 6 -3q2 0 4 1q34 4 34 42v122h103v-122q0 -48 -33.5 -88t-86.5 -47q-13 -2 -19 -2q-38 0 -58 15q-25 -29 -77 -36q-11 -1 -19 -1q-46 0 -79 28q-39 34 -39 85v122h104zM203 193l20 -82
l-426 -102l-20 81z" />
    <glyph glyph-name="uniFE82" unicode="&#x622;" horiz-adv-x="707" arabic-form="final" 
d="M433 1561v-1305q0 -65 60 -65h251l3 -216h-260q-134 0 -217 78q-84 79 -84 203v1305h247zM-70 1777q49 42 79 58q41 21 91 30q27 4 51 4q28 0 53 -5q34 -7 68 -26l24 -17q35 -21 66 -21q5 0 10 1q40 7 88 53l47 47l111 -123l-49 -49l-18 -15q-20 -16 -38 -27
q-50 -32 -114 -43q-25 -5 -49 -5q-48 0 -89 17q-15 7 -34 16l-44 29q-13 8 -33 8q-9 0 -20 -2q-37 -6 -90 -53z" />
    <glyph glyph-name="uniFE84" unicode="&#x623;" horiz-adv-x="707" arabic-form="final" 
d="M186 256v1305h247v-1305q0 -65 60 -65h251l3 -216h-260q-134 0 -217 78q-84 79 -84 203zM78 1639v142h59q-7 15 -7 37q0 26 10 63q21 75 91 115q46 26 96 26q27 0 56 -8q78 -22 130 -111l-132 -73q-24 41 -41 46q-7 2 -13 2q-9 0 -18 -5q-15 -9 -20 -28q-2 -8 -2 -16
q0 -12 6 -23q13 -24 37 -25h191v-142h-443z" />
    <glyph glyph-name="uniFE86" unicode="&#x624;" horiz-adv-x="1514" arabic-form="final" 
d="M316 888q159 159 386 159q225 0 384 -159q156 -158 156 -378v-319h312v-216h-330q-40 -155 -215 -271q-208 -143 -566 -143v216q247 0 390 68q126 63 147 130h-278q-227 0 -384 157q-158 158 -158 378t156 378zM492 283q85 -92 210 -92h296v319q0 135 -88 228
q-85 93 -208 93q-125 0 -210 -93q-88 -93 -88 -228q0 -133 88 -227zM432 1319h58q-7 14 -7 35q0 26 10 63q21 75 92 115q48 26 100 26q25 0 51 -6q80 -25 129 -113l-129 -73q-26 43 -42 48q-5 1 -10 1q-10 0 -20 -6q-18 -9 -23 -29q-2 -6 -2 -13q0 -12 8 -25q13 -23 35 -23
h191v-144h-441v144z" />
    <glyph glyph-name="uniFE88" unicode="&#x625;" horiz-adv-x="707" arabic-form="final" 
d="M186 1561h247v-1305q0 -65 60 -65h251l3 -216h-260q-134 0 -217 78q-84 79 -84 203v1305zM157 -355h59q-7 15 -7 37q0 26 10 63q21 74 91 115q45 25 95 25q28 0 58 -8q77 -21 129 -110l-132 -73q-24 41 -41 46q-5 1 -10 1q-12 0 -23 -6q-14 -7 -18 -25q-2 -9 -2 -17
q0 -14 6 -25q12 -22 37 -23h191v-142h-443v142z" />
    <glyph glyph-name="uniFE8A" unicode="&#x626;" horiz-adv-x="2025" arabic-form="final" 
d="M202 251q43 150 200 300l157 -165q-143 -134 -143 -262q0 -46 18 -91q55 -141 234 -231q183 -92 415 -92q173 0 287 61q110 58 138 160q8 29 8 58q0 38 -14 74q-23 63 -75 93q-64 42 -167 114l-86 60l126 185l232 -162q76 -50 136 -82q151 -78 269 -80h128v-216h-128
q-115 0 -192 28q2 -13 2 -28q0 -43 -15 -99q-49 -180 -225 -281q-171 -101 -424 -101q-306 0 -543 127q-240 125 -322 332q-33 86 -33 173q0 62 17 125zM184 807h60q-7 15 -7 36q0 26 10 61q21 77 90 115q47 28 98 28q27 0 55 -8q78 -22 129 -113l-133 -73q-23 44 -39 48
q-7 2 -12 2q-10 0 -18 -5q-16 -9 -22 -30q-2 -7 -2 -15q0 -12 6 -24q13 -22 37 -22h191v-142h-443v142z" />
    <glyph glyph-name="uniFE8B" unicode="&#x626;" horiz-adv-x="725" arabic-form="initial" 
d="M298 191v792h247v-1008h-555v216h308zM181 1242q-7 15 -7 36q0 26 10 63q21 75 90 115q46 26 97 26q27 0 56 -8q78 -22 130 -111l-133 -73q-23 43 -39 46q-6 2 -11 2q-11 0 -21 -6q-15 -8 -20 -27q-2 -8 -2 -16q0 -13 6 -25q12 -21 37 -22h191v-143h-443v143h59z" />
    <glyph glyph-name="uniFE8C" unicode="&#x626;" horiz-adv-x="820" arabic-form="medial" 
d="M260 191v792h245v-408q0 -167 54 -264q68 -120 215 -120h86v-216h-90q-212 2 -265 83v-83h-515v216h270zM150 1242h60q-7 15 -7 36q0 26 10 62q18 76 90 116q46 26 96 26q27 0 55 -8q80 -22 129 -111l-129 -72q-26 42 -42 47q-5 1 -10 1q-10 0 -20 -6q-17 -9 -23 -29
q-2 -6 -2 -13q0 -12 8 -25q13 -23 35 -24h191v-143h-441v143z" />
    <glyph glyph-name="uniFE8E" unicode="&#x627;" horiz-adv-x="707" arabic-form="final" 
d="M186 1561h247v-1305q0 -65 60 -65h251l3 -216h-260q-134 0 -217 78q-84 79 -84 203v1305z" />
    <glyph glyph-name="uniFE90" unicode="&#x628;" horiz-adv-x="1923" arabic-form="final" 
d="M430 903l124 -202q-148 -89 -148 -240q0 -114 79 -191q81 -79 211 -79h715v792h245v-792h307v-216h-1292q-222 0 -371 144q-140 138 -140 342q0 281 270 442zM898 -279q0 53 32 91q38 43 107 43q68 0 105 -43q35 -37 35 -91q0 -53 -35 -89q-38 -40 -105 -40
q-68 0 -106 41q-33 35 -33 88z" />
    <glyph glyph-name="uniFE91" unicode="&#x628;" horiz-adv-x="705" arabic-form="initial" 
d="M-10 191h308v792h247v-1008h-555v216zM288 -188q38 43 106 43q71 0 107 -43q34 -37 34 -91q0 -53 -35 -88q-35 -41 -106 -41q-67 0 -105 41q-33 35 -33 88t32 91z" />
    <glyph glyph-name="uniFE92" unicode="&#x628;" horiz-adv-x="820" arabic-form="medial" 
d="M-10 -25v216h270v792h245v-408q0 -167 54 -264q68 -120 215 -120h86v-216h-90h-7q-174 0 -258 101v-101h-515zM218 -279q0 53 32 91q38 43 107 43q68 0 105 -43q35 -37 35 -91q0 -53 -35 -89q-38 -40 -105 -40q-68 0 -106 41q-33 35 -33 88z" />
    <glyph glyph-name="uniFE94" unicode="&#x629;" horiz-adv-x="1362" arabic-form="final" 
d="M308 826q147 190 393 190h227q35 0 35 43v39h230v-787q0 -50 35 -84q35 -36 81 -36h93v-216h-93q-107 0 -183 26q-67 22 -142 126q-125 -89 -285 -89q-66 0 -130 16q-127 33 -221 129q-95 92 -127 217q-17 68 -17 133q0 158 104 293zM445 454q38 -150 184 -186
q38 -10 74 -10q85 0 155 55q105 81 105 213v250v11q0 6 -1 7t-8 1.5t-26 0.5h-227q-130 0 -210 -105q-56 -73 -56 -160q0 -37 10 -77zM724 1278q0 53 35 91q35 40 105 40q68 0 106 -40q33 -38 33 -91t-33 -91q-38 -41 -106 -41q-70 0 -105 41q-35 37 -35 91zM396 1278
q0 53 33 91q38 40 106 40q67 0 104 -38q36 -40 36 -93q0 -54 -36 -93q-37 -39 -104 -39q-68 0 -106 41q-33 38 -33 91z" />
    <glyph glyph-name="uniFE96" unicode="&#x62a;" horiz-adv-x="1923" arabic-form="final" 
d="M430 903l124 -202q-148 -89 -148 -240q0 -114 79 -191q81 -79 211 -79h715v792h245v-792h307v-216h-1292q-222 0 -371 144q-140 138 -140 342q0 281 270 442zM675 1262q36 41 104 41q71 0 106 -41q35 -37 35 -91q0 -53 -35 -91q-36 -38 -106 -38q-68 0 -103 38t-35 91
q0 54 34 91zM970 1171q0 53 33 91q38 41 106 41t106 -41q32 -38 32 -91t-33 -91q-38 -38 -105 -38t-106 38q-33 38 -33 91z" />
    <glyph glyph-name="uniFE97" unicode="&#x62a;" horiz-adv-x="707" arabic-form="initial" 
d="M-10 -25v216h308v792h247v-1008h-555zM332 1369q35 40 106 40q68 0 106 -40q33 -38 33 -91t-33 -91q-38 -41 -106 -41q-71 0 -106 41q-35 37 -35 91q0 53 35 91zM4 1369q36 40 104 40t104 -38q37 -40 37 -93q0 -54 -35 -91q-35 -41 -106 -41q-68 0 -104 41q-34 37 -34 91
q0 53 34 91z" />
    <glyph glyph-name="uniFE98" unicode="&#x62a;" horiz-adv-x="820" arabic-form="medial" 
d="M-10 191h270v792h245v-408q0 -167 54 -264q68 -120 215 -120h86v-216h-90h-7q-174 0 -258 101v-101h-515v216zM442 1369q35 40 106 40q68 0 106 -40q33 -38 33 -91t-33 -91q-38 -41 -106 -41q-71 0 -106 41q-35 37 -35 91q0 53 35 91zM80 1278q0 53 34 91q36 40 104 40
t104 -38q37 -40 37 -93q0 -54 -35 -91q-35 -41 -106 -41q-68 0 -104 41q-34 37 -34 91z" />
    <glyph glyph-name="uniFE9A" unicode="&#x62b;" horiz-adv-x="1923" arabic-form="final" 
d="M430 903l124 -202q-148 -89 -148 -240q0 -114 79 -191q81 -79 211 -79h715v792h245v-792h307v-216h-1292q-222 0 -371 144q-140 138 -140 342q0 281 270 442zM834 1442q0 53 35 90q36 41 106 41q68 0 106 -41q33 -37 33 -90t-33 -91q-39 -39 -106 -39q-70 0 -106 39
q-35 37 -35 91zM671 1171q0 54 34 91q36 41 104 41q71 0 106 -41q35 -37 35 -91q0 -53 -35 -91q-36 -38 -106 -38q-68 0 -103 38t-35 91zM1000 1171q0 53 34 93q34 39 105 39q68 0 106 -41q32 -38 32 -91t-33 -91q-38 -38 -105 -38q-70 0 -106 39q-33 37 -33 90z" />
    <glyph glyph-name="uniFE9B" unicode="&#x62b;" horiz-adv-x="786" arabic-form="initial" 
d="M-10 -25v216h308v792h247v-1008h-555zM218 1639q36 41 106 41q68 0 106 -41q33 -38 33 -91t-33 -90q-38 -41 -106 -41q-70 0 -106 41q-35 37 -35 90q0 54 35 91zM52 1368q38 41 106 41q71 0 106 -40q35 -38 35 -91q0 -54 -35 -91q-35 -41 -106 -41q-68 0 -106 41
q-32 38 -32 91q0 50 32 90zM383 1370q34 39 105 39q68 0 106 -40q32 -38 32 -91t-32 -91q-38 -41 -106 -41q-71 0 -105 40q-34 39 -34 92t34 92z" />
    <glyph glyph-name="uniFE9C" unicode="&#x62b;" horiz-adv-x="820" arabic-form="medial" 
d="M-10 191h270v792h245v-408q0 -167 54 -264q68 -120 215 -120h86v-216h-90h-7q-174 0 -258 101v-101h-515v216zM277 1639q35 41 103 41q71 0 106 -41q35 -37 35 -91q0 -53 -35 -91q-36 -38 -106 -38q-67 0 -103 38q-35 38 -35 91q0 54 35 91zM406 1278q0 53 34 91
q36 40 106 40q68 0 106 -40q33 -38 33 -91t-33 -91q-39 -38 -106 -38q-70 0 -105 38q-35 37 -35 91zM78 1278q0 53 33 91q38 40 106 40q70 0 106 -40q34 -38 34 -91q0 -54 -35 -91q-36 -38 -105 -38q-68 0 -106 38q-33 38 -33 91z" />
    <glyph glyph-name="uniFE9E" unicode="&#x62c;" horiz-adv-x="1585" arabic-form="final" 
d="M160 -217q0 181 145 294q141 114 358 114h475q-77 103 -77 325q0 131 -84 225q-79 92 -189 92q-73 0 -138 -45q-66 -47 -115 -153l-206 102q74 153 193 231q120 81 266 81q209 0 356 -157q147 -159 147 -376q0 -157 65 -243q63 -82 180 -82h89v-216h-962q-109 0 -179 -44
q-80 -50 -80 -148q0 -108 83 -156q67 -38 179 -40h11q106 0 187 36q32 15 69 40l92 63l129 -182l-56 -40l-42 -28q-52 -30 -101 -51q-127 -54 -286 -54h-6q-225 2 -363 111q-140 114 -140 301zM1214 -146q35 41 103 41q71 0 106 -41q35 -37 35 -91q0 -53 -35 -90
q-35 -41 -106 -41q-68 0 -103 41q-35 37 -35 90q0 54 35 91z" />
    <glyph glyph-name="uniFE9F" unicode="&#x62c;" horiz-adv-x="1400" arabic-form="initial" 
d="M-10 191h883q-67 108 -67 350q0 118 -80 206q-77 86 -187 86q-163 0 -255 -177l-203 106q75 143 196 216q119 71 262 71q208 0 361 -159q148 -154 148 -360q0 -184 72 -272q55 -67 167 -67v-216h-1297v216zM832 -198q36 43 107 43q68 0 106 -43q32 -38 32 -91t-33 -89
q-38 -40 -105 -40q-71 0 -106 40q-35 35 -35 89t34 91z" />
    <glyph glyph-name="uniFEA0" unicode="&#x62c;" horiz-adv-x="1349" arabic-form="medial" 
d="M-10 -25v216h882q-67 108 -67 350q0 118 -80 206q-77 86 -187 86q-162 0 -255 -177l-202 106q75 143 196 216q119 71 261 71q209 0 361 -159q148 -154 148 -360q0 -184 73 -272q54 -67 137 -67h132v-216h-1399zM798 -289q0 54 34 91q36 43 107 43q68 0 106 -43
q32 -38 32 -91t-33 -89q-38 -40 -105 -40q-71 0 -106 40q-35 35 -35 89z" />
    <glyph glyph-name="uniFEA2" unicode="&#x62d;" horiz-adv-x="1585" arabic-form="final" 
d="M305 77q141 114 358 114h475q-77 103 -77 325q0 131 -84 225q-79 92 -189 92q-73 0 -138 -45q-66 -47 -115 -153l-206 102q74 153 193 231q120 81 266 81q209 0 356 -157q147 -159 147 -376q0 -157 65 -243q63 -82 180 -82h89v-216h-962q-109 0 -179 -44
q-80 -50 -80 -148q0 -108 83 -156q67 -38 179 -40h11q106 0 187 36q32 15 69 40l92 63l129 -182l-56 -40l-42 -28q-52 -30 -101 -51q-127 -54 -286 -54h-6q-225 2 -363 111q-140 114 -140 301q0 181 145 294z" />
    <glyph glyph-name="uniFEA3" unicode="&#x62d;" horiz-adv-x="1447" arabic-form="initial" 
d="M873 191q-67 108 -67 350q0 118 -80 206q-77 86 -187 86q-163 0 -255 -177l-203 106q75 143 196 216q119 71 262 71q208 0 361 -159q148 -154 148 -360q0 -184 72 -272q55 -67 167 -67v-216h-1297v216h883z" />
    <glyph glyph-name="uniFEA4" unicode="&#x62d;" horiz-adv-x="1349" arabic-form="medial" 
d="M-10 -25v216h882q-67 108 -67 350q0 118 -80 206q-77 86 -187 86q-162 0 -255 -177l-202 106q75 143 196 216q119 71 261 71q209 0 361 -159q148 -154 148 -360q0 -184 73 -272q54 -67 137 -67h132v-216h-1399z" />
    <glyph glyph-name="uniFEA6" unicode="&#x62e;" horiz-adv-x="1585" arabic-form="final" 
d="M305 77q141 114 358 114h475q-77 103 -77 325q0 131 -84 225q-79 92 -189 92q-73 0 -138 -45q-66 -47 -115 -153l-206 102q74 153 193 231q120 81 266 81q209 0 356 -157q147 -159 147 -376q0 -157 65 -243q63 -82 180 -82h89v-216h-962q-109 0 -179 -44
q-80 -50 -80 -148q0 -108 83 -156q67 -38 179 -40h11q106 0 187 36q32 15 69 40l92 63l129 -182l-56 -40l-42 -28q-52 -30 -101 -51q-127 -54 -286 -54h-6q-225 2 -363 111q-140 114 -140 301q0 181 145 294zM643 1339q0 54 35 91q35 41 106 41q68 0 106 -41q32 -38 32 -91
t-33 -89q-37 -40 -105 -40q-71 0 -106 40q-35 35 -35 89z" />
    <glyph glyph-name="uniFEA7" unicode="&#x62e;" horiz-adv-x="1447" arabic-form="initial" 
d="M-10 191h883q-67 108 -67 350q0 118 -80 206q-77 86 -187 86q-163 0 -255 -177l-203 106q75 143 196 216q119 71 262 71q208 0 361 -159q148 -154 148 -360q0 -184 72 -272q55 -67 167 -67v-216h-1297v216zM398 1341q0 54 34 91q36 41 104 41q71 0 106 -41q35 -37 35 -91
q0 -53 -35 -90q-35 -41 -106 -41q-68 0 -104 41q-34 37 -34 90z" />
    <glyph glyph-name="uniFEA8" unicode="&#x62e;" horiz-adv-x="1349" arabic-form="medial" 
d="M-10 -25v216h882q-67 108 -67 350q0 118 -80 206q-77 86 -187 86q-162 0 -255 -177l-202 106q75 143 196 216q119 71 261 71q209 0 361 -159q148 -154 148 -360q0 -184 73 -272q54 -67 137 -67h132v-216h-1399zM432 1432q36 41 104 41q71 0 106 -41q35 -37 35 -91
q0 -53 -35 -90q-35 -41 -106 -41q-68 0 -104 41q-34 37 -34 90q0 54 34 91z" />
    <glyph glyph-name="uniFEAA" unicode="&#x62f;" horiz-adv-x="1379" arabic-form="final" 
d="M159 -25l1 216h647v133q0 61 -8 111q-10 70 -35 133q-71 166 -273 292l104 203q229 -143 339 -325q82 -135 107 -288q42 -259 259 -259h119v-216h-119q-198 0 -249 60l-1 -60h-891z" />
    <glyph glyph-name="uniFEAC" unicode="&#x630;" horiz-adv-x="1379" arabic-form="final" 
d="M160 191h647v133q0 61 -8 111q-10 70 -35 133q-71 166 -273 292l104 203q229 -143 339 -325q82 -135 107 -288q42 -259 259 -259h119v-216h-119q-198 0 -249 60l-1 -60h-891zM496 1372q39 42 106 42q68 0 106 -41q35 -40 35 -93q0 -54 -35 -89q-38 -40 -106 -40
q-67 0 -105 40q-33 36 -33 89t32 92z" />
    <glyph glyph-name="uniFEAE" unicode="&#x631;" horiz-adv-x="783" arabic-form="final" 
d="M196 188v798h246v-408q0 -167 53 -265q67 -122 216 -122h112v-216h-120q-212 4 -266 88q-9 -350 -472 -630l-115 190q346 210 346 565z" />
    <glyph glyph-name="uniFEB0" unicode="&#x632;" horiz-adv-x="783" arabic-form="final" 
d="M-150 -377q346 210 346 565v798h246v-408q0 -167 53 -265q67 -122 216 -122h112v-216h-120q-212 4 -266 88q-9 -350 -472 -630zM179 1278q0 53 35 91q35 40 106 40q67 0 106 -40q32 -38 32 -91t-33 -91q-38 -38 -105 -38q-70 0 -106 38q-35 37 -35 91z" />
    <glyph glyph-name="uniFEB2" unicode="&#x633;" horiz-adv-x="2816" arabic-form="final" 
d="M411 639l140 -175q-148 -120 -148 -317q0 -163 108 -275q106 -111 260 -111q153 0 259 111q106 112 106 275v712h246v-358q10 -114 51 -190q66 -120 215 -120h68v668h246v-344q10 -143 66 -226q67 -98 199 -98h71v795h244v-795h313v-216h-628q-212 0 -265 81v-81h-314
q-198 0 -273 77q-28 -189 -172 -330q-179 -177 -432 -177q-256 0 -433 175q-179 177 -179 427q0 289 252 492z" />
    <glyph glyph-name="uniFEB3" unicode="&#x633;" horiz-adv-x="1868" arabic-form="initial" 
d="M-10 -25v216h310v668h245v-284q0 -164 54 -264q66 -120 215 -120h68v668h246v-344q10 -143 66 -226q67 -98 199 -98h71v795h244v-1011h-315q-212 0 -265 81v-81h-314q-217 0 -269 82v-82h-555z" />
    <glyph glyph-name="uniFEB4" unicode="&#x633;" horiz-adv-x="1982" arabic-form="medial" 
d="M-10 -25v216h311v668h245v-284q0 -164 54 -264q66 -120 215 -120h68v668h246v-344q10 -143 66 -226q67 -98 199 -98h71v795h244v-795h313v-216h-628q-212 0 -265 81v-81h-314q-217 0 -269 82v-82h-556z" />
    <glyph glyph-name="uniFEB6" unicode="&#x634;" horiz-adv-x="2816" arabic-form="final" 
d="M159 147q0 289 252 492l140 -175q-148 -120 -148 -317q0 -163 108 -275q106 -111 260 -111q153 0 259 111q106 112 106 275v712h246v-358q10 -114 51 -190q66 -120 215 -120h68v668h246v-344q10 -143 66 -226q67 -98 199 -98h71v795h244v-795h313v-216h-628
q-212 0 -265 81v-81h-314q-198 0 -273 77q-28 -189 -172 -330q-179 -177 -432 -177q-256 0 -433 175q-179 177 -179 427zM1526 1268q0 53 34 90q36 43 107 43q68 0 106 -43q32 -37 32 -90q0 -54 -33 -89q-38 -41 -105 -41q-71 0 -106 41q-35 35 -35 89zM1888 1358
q38 43 106 43q69 0 106 -43q35 -37 35 -90q0 -54 -35 -90q-38 -40 -106 -40q-67 0 -105 41q-33 35 -33 89q0 53 32 90zM1724 1628q38 44 106 44q69 0 107 -44q32 -37 32 -90t-33 -89q-38 -40 -106 -40q-70 0 -105 40q-33 36 -33 89t32 90z" />
    <glyph glyph-name="uniFEB7" unicode="&#x634;" horiz-adv-x="1868" arabic-form="initial" 
d="M300 191v668h245v-284q0 -164 54 -264q66 -120 215 -120h68v668h246v-344q10 -143 66 -226q67 -98 199 -98h71v795h244v-1011h-315q-212 0 -265 81v-81h-314q-217 0 -269 82v-82h-555v216h310zM851 1540q0 51 35 90q35 42 104 42q70 0 106 -41q35 -37 35 -91
q0 -53 -35 -91q-36 -40 -106 -40q-69 0 -104 40q-35 38 -35 91zM1050 1360q35 41 106 41q68 0 106 -41q32 -40 32 -92q0 -51 -32 -89q-38 -41 -106 -41q-71 0 -106 41q-35 37 -35 89q0 53 35 92zM720 1360q38 41 106 41t106 -41q35 -39 35 -92q0 -52 -35 -89
q-35 -41 -106 -41q-68 0 -106 41q-32 38 -32 89q0 52 32 92z" />
    <glyph glyph-name="uniFEB8" unicode="&#x634;" horiz-adv-x="1982" arabic-form="medial" 
d="M-10 191h311v668h245v-284q0 -164 54 -264q66 -120 215 -120h68v668h246v-344q10 -143 66 -226q67 -98 199 -98h71v795h244v-795h313v-216h-628q-212 0 -265 81v-81h-314q-217 0 -269 82v-82h-556v216zM1008 1268q0 53 34 92q36 41 106 41q68 0 106 -41q33 -40 33 -92
q0 -51 -33 -89q-38 -41 -106 -41q-70 0 -106 41q-34 37 -34 89zM878 1630q36 42 104 42q71 0 106 -41q35 -37 35 -91q0 -53 -35 -91q-35 -40 -106 -40q-68 0 -104 40q-34 38 -34 91q0 51 34 90zM712 1360q39 41 106 41q68 0 106 -41q35 -39 35 -92q0 -52 -35 -89
q-35 -41 -106 -41q-67 0 -105 41q-33 35 -33 89q0 52 32 92z" />
    <glyph glyph-name="uniFEBA" unicode="&#x635;" horiz-adv-x="2804" arabic-form="final" 
d="M412 694l140 -175q-148 -120 -148 -316q0 -164 108 -276q106 -111 260 -111q153 0 259 111q106 112 106 276v711h246v-189q282 193 521 249q89 22 172 22q142 0 267 -63q191 -93 191 -345v-397h310v-216h-1508q-59 -155 -211 -264q-158 -111 -353 -111q-256 0 -433 175
q-179 177 -179 428q0 289 252 491zM1401 180l2 13h887v395q0 118 -71 157q-12 7 -26 13q-17 6 -41 10q-34 7 -74 7q-35 0 -73 -5q-249 -36 -622 -268v-300z" />
    <glyph glyph-name="uniFEBB" unicode="&#x635;" horiz-adv-x="1871" arabic-form="initial" 
d="M300 191v721h244v-198q290 199 533 258q92 23 177 23q141 0 266 -62q191 -96 191 -345v-613h-1721v216h310zM1465 191v397q0 117 -68 155l-13 7l-15 6q-19 9 -42 12q-31 6 -68 7q-37 -1 -80 -7q-253 -38 -635 -277v-300h921z" />
    <glyph glyph-name="uniFEBC" unicode="&#x635;" horiz-adv-x="1969" arabic-form="medial" 
d="M-10 191h295v721h245v-198q289 199 533 258q91 23 177 23q141 0 266 -62q191 -96 191 -345v-397h312v-216h-2019v216zM530 191h923v397q0 117 -71 155l-12 7l-15 6q-19 9 -42 12q-32 6 -69 7q-37 -1 -80 -7q-253 -38 -634 -277v-300z" />
    <glyph glyph-name="uniFEBE" unicode="&#x636;" horiz-adv-x="2804" arabic-form="final" 
d="M412 694l140 -175q-148 -120 -148 -316q0 -164 108 -276q106 -111 260 -111q153 0 259 111q106 112 106 276v711h246v-189q282 193 521 249q89 22 172 22q142 0 267 -63q191 -93 191 -345v-397h310v-216h-1508q-59 -155 -211 -264q-158 -111 -353 -111q-256 0 -433 175
q-179 177 -179 428q0 289 252 491zM1401 180l2 13h887v395q0 118 -71 157q-12 7 -26 13q-17 6 -41 10q-34 7 -74 7q-35 0 -73 -5q-249 -36 -622 -268v-300zM1899 1369q38 40 106 40q67 0 104 -38q36 -40 36 -93q0 -54 -35 -91q-38 -38 -105 -38t-106 38q-33 38 -33 91t33 91
z" />
    <glyph glyph-name="uniFEBF" unicode="&#x636;" horiz-adv-x="1871" arabic-form="initial" 
d="M300 191v721h244v-198q290 199 533 258q92 23 177 23q141 0 266 -62q191 -96 191 -345v-613h-1721v216h310zM1465 191v397q0 117 -68 155l-13 7l-15 6q-19 9 -42 12q-31 6 -68 7q-37 -1 -80 -7q-253 -38 -635 -277v-300h921zM1043 1369q38 40 106 40q67 0 103 -38
q37 -40 37 -93q0 -54 -37 -93q-36 -39 -103 -39q-68 0 -106 41q-33 38 -33 91t33 91z" />
    <glyph glyph-name="uniFEC0" unicode="&#x636;" horiz-adv-x="1969" arabic-form="medial" 
d="M-10 -25v216h295v721h245v-198q289 199 533 258q91 23 177 23q141 0 266 -62q191 -96 191 -345v-397h312v-216h-2019zM530 491v-300h923v397q0 117 -71 155l-12 7l-15 6q-19 9 -42 12q-32 6 -69 7q-37 -1 -80 -7q-253 -38 -634 -277zM1080 1370q34 39 104 39
q68 0 104 -38q37 -40 37 -93q0 -54 -35 -91q-39 -38 -106 -38q-70 0 -106 38q-32 38 -32 91t34 92z" />
    <glyph glyph-name="uniFEC2" unicode="&#x637;" horiz-adv-x="1950" arabic-form="final" 
d="M160 -25v216h104v1370h245v-847q290 199 533 258q91 23 177 23q141 0 266 -62q191 -96 191 -345v-397h314v-216h-1830zM1430 191v397q0 117 -69 155l-12 7l-15 6q-19 9 -42 12q-32 6 -69 7q-37 -1 -80 -7q-253 -38 -634 -277v-300h921z" />
    <glyph glyph-name="uniFEC3" unicode="&#x637;" horiz-adv-x="1873" arabic-form="initial" 
d="M-10 -25v216h311v1370h245v-846q287 198 531 257q92 23 178 23q141 0 265 -62q193 -96 193 -345v-613h-1723zM546 191h921v397q0 117 -69 155l-12 7l-15 6q-20 9 -42 12q-33 6 -70 7q-37 -1 -79 -7q-253 -38 -634 -277v-300z" />
    <glyph glyph-name="uniFEC4" unicode="&#x637;" horiz-adv-x="1983" arabic-form="medial" 
d="M-10 -25v216h311v1370h245v-846q287 198 531 257q92 23 178 23q141 0 265 -62q193 -96 193 -345v-397h310v-216h-2033zM1467 191v397q0 117 -69 155l-12 7l-15 6q-20 9 -42 12q-33 6 -70 7q-37 -1 -79 -7q-253 -38 -634 -277v-300h921z" />
    <glyph glyph-name="uniFEC6" unicode="&#x638;" horiz-adv-x="1950" arabic-form="final" 
d="M264 191v1370h245v-847q290 199 533 258q91 23 177 23q141 0 266 -62q191 -96 191 -345v-397h314v-216h-1830v216h104zM509 191h921v397q0 117 -69 155l-12 7l-15 6q-19 9 -42 12q-32 6 -69 7q-37 -1 -80 -7q-253 -38 -634 -277v-300zM809 1369q36 40 104 40
q70 0 106 -40q35 -38 35 -91q0 -54 -35 -91q-36 -41 -106 -41q-68 0 -104 41q-35 37 -35 91q0 53 35 91z" />
    <glyph glyph-name="uniFEC7" unicode="&#x638;" horiz-adv-x="1873" arabic-form="initial" 
d="M301 191v1370h245v-846q287 198 531 257q92 23 178 23q141 0 265 -62q193 -96 193 -345v-613h-1723v216h311zM546 191h921v397q0 117 -69 155l-12 7l-15 6q-20 9 -42 12q-33 6 -70 7q-37 -1 -79 -7q-253 -38 -634 -277v-300zM844 1369q38 40 106 40t104 -38
q36 -40 36 -93q0 -54 -36 -93t-104 -39t-106 41q-33 38 -33 91t33 91z" />
    <glyph glyph-name="uniFEC8" unicode="&#x638;" horiz-adv-x="1983" arabic-form="medial" 
d="M301 191v1370h245v-846q287 198 531 257q92 23 178 23q141 0 265 -62q193 -96 193 -345v-397h310v-216h-2033v216h311zM546 191h921v397q0 117 -69 155l-12 7l-15 6q-20 9 -42 12q-33 6 -70 7q-37 -1 -79 -7q-253 -38 -634 -277v-300zM844 1369q38 40 106 40t104 -38
q36 -40 36 -93q0 -54 -36 -93t-104 -39t-106 41q-33 38 -33 91t33 91z" />
    <glyph glyph-name="uniFECA" unicode="&#x639;" horiz-adv-x="1791" arabic-form="final" 
d="M160 -213q0 199 189 332q71 49 174 93q41 18 91 36l43 17l42 14q128 46 165 66l18 10q-10 15 -35 54q-95 157 -161 200q-73 47 -203 47q-54 0 -119 -8l-74 189q270 183 562 236q101 18 190 18q168 0 290 -64q186 -98 188 -267v-5q0 -236 -302 -452q122 -112 377 -112h236
v-216h-236q-381 0 -573 202l-43 -24q-54 -30 -200 -80q-197 -70 -275 -123q-100 -68 -100 -163q0 -92 84 -149q78 -55 191 -55q122 2 218 42q37 17 78 43l36 21l60 48l130 -184l-58 -43l-46 -30q-54 -33 -108 -55q-135 -58 -303 -58h-7q-225 2 -371 119q-148 121 -148 301z
M762 827q59 -20 152 -119q36 -39 72 -92l88 -139q200 140 200 278v3q0 19 -9 36q-13 21 -46 42q-63 37 -171 37q-20 0 -41 -1q-146 -6 -245 -45z" />
    <glyph glyph-name="uniFECB" unicode="&#x639;" horiz-adv-x="1489" arabic-form="initial" 
d="M-10 191h395q5 0 5 5q0 12 -22 48q-70 124 -70 256q0 72 21 147q58 204 260 320q126 71 261 71q74 0 150 -21q217 -59 336 -272l-198 -112q-79 141 -202 175q-42 12 -82 12q-76 0 -147 -44q-131 -79 -147 -185q-7 -42 -7 -80q0 -91 37 -163q56 -109 185 -146
q36 -11 80 -11h471v-216h-1326v216z" />
    <glyph glyph-name="uniFECC" unicode="&#x639;" horiz-adv-x="1727" arabic-form="medial" 
d="M-10 -25v216h231q359 4 611 127l-24 35l-34 53q-102 152 -173 195q-73 45 -203 45q-63 0 -138 -10l-73 192q276 180 582 233q111 19 209 19q165 0 288 -54q186 -83 188 -276v-4q0 -206 -195 -404q-42 -44 -67 -62q129 -89 353 -89h222v-216h-256q-329 9 -521 173
q-314 -169 -770 -173h-230zM673 821q58 -17 156 -115q36 -38 76 -91l62 -91q49 -75 60 -89q24 17 65 58q118 120 118 246v4v11l-2 11q-2 12 -7 23q-10 25 -45 43q-67 36 -182 36q-21 0 -44 -1q-156 -8 -257 -45z" />
    <glyph glyph-name="uniFECE" unicode="&#x63a;" horiz-adv-x="1791" arabic-form="final" 
d="M349 119q71 49 174 93q41 18 91 36l43 17l42 14q128 46 165 66l18 10q-10 15 -35 54q-95 157 -161 200q-73 47 -203 47q-54 0 -119 -8l-74 189q270 183 562 236q101 18 190 18q168 0 290 -64q186 -98 188 -267v-5q0 -236 -302 -452q122 -112 377 -112h236v-216h-236
q-381 0 -573 202l-43 -24q-54 -30 -200 -80q-197 -70 -275 -123q-100 -68 -100 -163q0 -92 84 -149q78 -55 191 -55q122 2 218 42q37 17 78 43l36 21l60 48l130 -184l-58 -43l-46 -30q-54 -33 -108 -55q-135 -58 -303 -58h-7q-225 2 -371 119q-148 121 -148 301
q0 199 189 332zM762 827q59 -20 152 -119q36 -39 72 -92l88 -139q200 140 200 278v3q0 19 -9 36q-13 21 -46 42q-63 37 -171 37q-20 0 -41 -1q-146 -6 -245 -45zM889 1434q38 41 106 41q70 0 106 -41q34 -37 34 -91q0 -53 -34 -90q-36 -41 -106 -41q-68 0 -106 41
q-33 38 -33 90q0 53 33 91z" />
    <glyph glyph-name="uniFECF" unicode="&#x63a;" horiz-adv-x="1489" arabic-form="initial" 
d="M-10 191h395q5 0 5 5q0 12 -22 48q-70 124 -70 256q0 72 21 147q58 204 260 320q126 71 261 71q74 0 150 -21q217 -59 336 -272l-198 -112q-79 141 -202 175q-42 12 -82 12q-76 0 -147 -44q-131 -79 -147 -185q-7 -42 -7 -80q0 -91 37 -163q56 -109 185 -146
q36 -11 80 -11h471v-216h-1326v216zM692 1432q36 41 106 41q68 0 106 -41q33 -38 33 -91t-33 -91q-39 -38 -106 -38q-70 0 -105 38t-35 91q0 54 34 91z" />
    <glyph glyph-name="uniFED0" unicode="&#x63a;" horiz-adv-x="1727" arabic-form="medial" 
d="M-10 191h231q359 4 611 127l-24 35l-34 53q-102 152 -173 195q-73 45 -203 45q-63 0 -138 -10l-73 192q276 180 582 233q111 19 209 19q165 0 288 -54q186 -83 188 -276v-4q0 -206 -195 -404q-42 -44 -67 -62q129 -89 353 -89h222v-216h-256q-329 9 -521 173
q-314 -169 -770 -173h-230v216zM673 821q58 -17 156 -115q36 -38 76 -91l62 -91q49 -75 60 -89q24 17 65 58q118 120 118 246v4v11l-2 11q-2 12 -7 23q-10 25 -45 43q-67 36 -182 36q-21 0 -44 -1q-156 -8 -257 -45zM810 1432q36 41 104 41q71 0 106 -41q35 -37 35 -91
t-35 -89q-35 -40 -106 -40q-68 0 -103 40q-35 35 -35 89t34 91z" />
    <glyph glyph-name="uniFED2" unicode="&#x641;" horiz-adv-x="2418" arabic-form="final" 
d="M430 906l124 -205q-148 -89 -148 -238q0 -116 79 -193q81 -79 211 -79h473q-106 114 -106 321q0 220 158 378q157 157 382 157t386 -159q156 -156 156 -376v-321h313v-216h-1787q-222 0 -371 144q-140 140 -140 344q0 281 270 443zM1305 512q0 -137 84 -229t214 -92h296
v321q0 133 -86 227q-85 92 -210 92q-124 0 -210 -93q-88 -93 -88 -226zM1465 1341q0 55 32 93q38 41 106 41t104 -39q37 -39 37 -95q0 -51 -37 -90q-36 -39 -104 -39t-105 41q-33 35 -33 88z" />
    <glyph glyph-name="uniFED3" unicode="&#x641;" horiz-adv-x="1539" arabic-form="initial" 
d="M-10 191h411q-104 114 -104 319q0 222 158 380q157 157 382 157t381 -157q159 -158 159 -380l2 -535h-1389v216zM623 283q83 -92 212 -92h297v319q0 135 -86 229q-85 92 -209 92q-125 0 -212 -93q-88 -93 -88 -228t86 -227zM732 1436q34 39 105 39q68 0 106 -41
q32 -40 32 -91q0 -52 -32 -90q-38 -41 -106 -41q-71 0 -106 41q-33 35 -33 90q0 53 34 93z" />
    <glyph glyph-name="uniFED4" unicode="&#x641;" horiz-adv-x="1649" arabic-form="medial" 
d="M-10 191h412q-105 114 -105 321q0 220 159 378q156 157 381 157t382 -157q158 -158 158 -378v-321h312v-216h-1699v216zM624 283q83 -92 211 -92h298v321q0 133 -86 227q-85 92 -210 92q-124 0 -212 -93q-87 -93 -87 -226q0 -137 86 -229zM733 1436q34 39 104 39
q68 0 106 -41q33 -40 33 -91q0 -52 -33 -90q-38 -41 -106 -41q-70 0 -106 41q-32 35 -32 90q0 53 34 93z" />
    <glyph glyph-name="uniFED6" unicode="&#x642;" horiz-adv-x="2056" arabic-form="final" 
d="M332 697l162 -178q-95 -151 -95 -325q0 -246 172.5 -418.5t413.5 -172.5q242 0 413 172q98 98 131 201q-4 -1 -11 -1h-276q-225 2 -381 159q-157 158 -157 378t157 376q158 159 383 159t382 -157q158 -158 158 -378q0 -41 2 -115v-204h310v-218h-315q0 -11 -9 -38
q-59 -180 -203 -324q-240 -240 -584 -240q-343 0 -584 241t-241 580q0 267 172 503zM949 512q0 -135 82 -227q83 -92 213 -94h296v321q0 135 -86 227t-210 92t-209 -92q-86 -92 -86 -227zM940 1358q0 53 34 91q36 40 104 40q71 0 106 -40q35 -38 35 -91t-35 -91
q-35 -41 -106 -41q-68 0 -104 41q-34 38 -34 91zM1302 1449q39 40 106 40t105 -40q36 -38 36 -91t-36 -92q-38 -38 -105 -38q-70 0 -106 39q-33 38 -33 91t33 91z" />
    <glyph glyph-name="uniFED7" unicode="&#x642;" horiz-adv-x="1539" arabic-form="initial" 
d="M-10 191h411q-104 114 -104 319q0 222 158 380q157 157 382 157t381 -157q159 -158 159 -380l2 -535h-1389v216zM537 510q0 -135 86 -227q83 -92 212 -92h297v319q0 135 -86 229q-85 92 -209 92q-125 0 -212 -93q-88 -93 -88 -228zM873 1343q0 54 35 91q35 41 104 41
q70 0 106 -41q34 -37 34 -91q0 -53 -34 -90q-36 -41 -106 -41q-69 0 -104 40q-35 35 -35 91zM546 1343q0 53 32 91q38 41 106 41t104 -39q37 -39 37 -93q0 -53 -37 -92q-36 -39 -104 -39t-106 41q-32 38 -32 90z" />
    <glyph glyph-name="uniFED8" unicode="&#x642;" horiz-adv-x="1649" arabic-form="medial" 
d="M-10 -25v216h412q-105 114 -105 321q0 220 159 378q156 157 381 157t382 -157q158 -158 158 -378v-321h312v-216h-1699zM538 512q0 -137 86 -229q83 -92 211 -92h298v321q0 133 -86 227q-85 92 -210 92q-124 0 -212 -93q-87 -93 -87 -226zM874 1434q36 41 104 41
q70 0 108 -41q33 -40 33 -91q0 -52 -33 -90q-38 -41 -108 -41q-68 0 -104 41q-34 37 -34 90q0 51 34 91zM545 1434q38 41 105 41q68 0 104 -39q37 -39 37 -95q0 -51 -37 -90q-36 -39 -104 -39q-67 0 -105 41q-33 38 -33 88q0 55 33 93z" />
    <glyph glyph-name="uniFEDA" unicode="&#x643;" horiz-adv-x="1987" arabic-form="final" 
d="M430 903l124 -202q-148 -89 -148 -240q0 -114 79 -191q81 -79 211 -79h715v1369h245v-1020q7 -143 56 -229q65 -120 212 -120h106v-216h-116q-202 0 -258 82v-82h-985q-222 0 -371 144q-140 138 -140 342q0 283 270 442zM780 805q-11 24 -11 55q0 32 11 71q26 92 109 138
q57 33 117 33q31 0 63 -9q96 -26 153 -131l-150 -83q-28 49 -50 56q-6 1 -12 1q-16 0 -33 -9q-20 -11 -28 -38q-3 -9 -3 -19q0 -17 10 -35q16 -30 50 -30h229v-164h-531v164h76z" />
    <glyph glyph-name="uniFEDB" unicode="&#x643;" horiz-adv-x="1823" arabic-form="initial" 
d="M-10 -25v216h1429v128q0 110 -103 189q-118 88 -324 88h-806v204l1093 745l127 -185l-805 -549h385q286 0 478 -137q199 -142 199 -355v-344h-1673z" />
    <glyph glyph-name="uniFEDC" unicode="&#x643;" horiz-adv-x="1869" arabic-form="medial" 
d="M-10 191h1429v128q0 110 -103 189q-118 88 -324 88h-806v204l1093 745l127 -185l-805 -549h385q285 0 480 -137q197 -143 197 -355v-128h246v-216h-1919v216z" />
    <glyph glyph-name="uniFEDE" unicode="&#x644;" horiz-adv-x="1739" arabic-form="final" 
d="M492 800l143 -174q-231 -184 -231 -427q0 -201 111 -329q114 -130 298 -130q183 0 303 136q119 132 119 333v384h-2v962h247v-980q0 -167 54 -264q68 -120 245 -120v-216q-249 0 -310 95q-11 -178 -193 -358q-189 -188 -461 -188q-288 0 -473 199q-182 190 -182 476
q0 333 332 601z" />
    <glyph glyph-name="uniFEDF" unicode="&#x644;" horiz-adv-x="701" arabic-form="initial" 
d="M297 1561h244v-1582l-551 -4v216h307v1370z" />
    <glyph glyph-name="uniFEE0" unicode="&#x644;" horiz-adv-x="851" arabic-form="medial" 
d="M-10 191h308v1370h245v-986q0 -164 54 -262q66 -122 215 -122h79v-206l-95 -1q-12 -1 -24 -1q-182 1 -229 75v-83h-553v216z" />
    <glyph glyph-name="uniFEE2" unicode="&#x645;" horiz-adv-x="1883" arabic-form="final" 
d="M160 -133q0 186 99 267q37 33 88 47q35 10 74 10h15l18 2q23 3 41 9q40 13 40 46v239q0 220 158 377q159 158 384 158t381 -156q159 -159 159 -379q0 -110 -29 -177q46 -117 167 -117h168v-218h-228q-179 0 -254 115q-133 -140 -364 -140q-232 0 -362 138
q-66 -117 -294 -117q-19 -5 -25 -16t-6 -88v-599h-230v599zM781 487q0 -135 86 -228q85 -93 210 -93q124 0 210 93q87 94 87 228q0 133 -87 227q-86 92 -210 92q-125 0 -210 -92q-86 -94 -86 -227z" />
    <glyph glyph-name="uniFEE3" unicode="&#x645;" horiz-adv-x="1542" arabic-form="initial" 
d="M-10 -25v216h196q7 0 32 3t44 8q40 13 40 46v237q0 222 158 381q157 156 382 156t382 -156q158 -159 158 -381q0 -219 -158 -378q-157 -157 -382 -157q-234 0 -362 136q-21 -39 -111 -77q-68 -34 -183 -34h-196zM548 485q0 -133 84 -226q85 -91 210 -91t211 93
q87 92 87 224q0 135 -88 229q-86 92 -210 92q-125 0 -210 -92q-84 -93 -84 -229z" />
    <glyph glyph-name="uniFEE4" unicode="&#x645;" horiz-adv-x="1655" arabic-form="medial" 
d="M-10 191h231q22 3 41 9q40 15 40 46v239q0 222 158 381q157 156 382 156t382 -156q158 -159 158 -381q0 -108 -29 -175q48 -119 169 -119h173v-216h-235q-179 0 -254 115q-133 -140 -364 -140q-234 0 -362 136q-21 -39 -111 -77q-68 -34 -183 -34h-196v216zM548 485
q0 -133 84 -226q85 -91 210 -91t211 93q87 92 87 224q0 135 -88 229q-86 92 -210 92q-125 0 -210 -92q-84 -93 -84 -229z" />
    <glyph glyph-name="uniFEE6" unicode="&#x646;" horiz-adv-x="1739" arabic-form="final" 
d="M160 199q0 334 332 601l142 -175q-230 -183 -230 -426q0 -201 111 -330q114 -129 298 -129q183 0 303 136q119 132 119 333v774h245v-408q0 -166 54 -264q68 -120 245 -120v-216q-249 0 -309 95q-12 -178 -196 -360q-188 -186 -459 -186q-287 0 -472 198
q-183 192 -183 477zM740 1145q0 53 32 90q38 41 106 41t104 -38q37 -40 37 -93q0 -54 -36 -92q-38 -38 -105 -38q-70 0 -106 39q-32 38 -32 91z" />
    <glyph glyph-name="uniFEE7" unicode="&#x646;" horiz-adv-x="721" arabic-form="initial" 
d="M-10 191h308v792h247v-1008h-555v216zM316 1369q36 40 106 40q68 0 106 -40q33 -38 33 -91t-33 -91q-38 -41 -106 -41q-70 0 -106 41q-35 37 -35 91q0 53 35 91z" />
    <glyph glyph-name="uniFEE8" unicode="&#x646;" horiz-adv-x="820" arabic-form="medial" 
d="M-10 -25v216h270v792h245v-408q0 -167 54 -264q68 -120 215 -120h86v-216h-90q-212 2 -265 83v-83h-515zM210 1278q0 53 35 91q35 40 106 40q67 0 106 -40q32 -38 32 -91t-32 -91q-39 -41 -106 -41q-71 0 -106 41q-35 37 -35 91z" />
    <glyph glyph-name="uniFEEA" unicode="&#x647;" horiz-adv-x="1363" arabic-form="final" 
d="M308 826q147 190 393 190h227q35 0 35 43v39h230v-787q0 -50 35 -84q35 -36 81 -36h93v-216h-93q-107 0 -183 26q-67 22 -142 126q-125 -89 -285 -89q-66 0 -130 16q-127 33 -221 129q-95 92 -127 217q-17 68 -17 133q0 158 104 293zM445 454q38 -150 184 -186
q38 -10 74 -10q85 0 155 55q105 81 105 213v250v11q0 6 -1 7t-8 1.5t-26 0.5h-227q-130 0 -210 -105q-56 -73 -56 -160q0 -37 10 -77z" />
    <glyph glyph-name="uniFEEB" unicode="&#x647;" horiz-adv-x="1719" arabic-form="initial" 
d="M-10 -25v216h476q-45 47 -84 154q-13 37 -19 73q-2 12 -4 27v16q0 169 126 287q124 119 301 119q175 0 299 -119q126 -118 126 -287q0 -10 -2 -21q0 -12 -2 -26q-7 -36 -20 -73q-36 -101 -58 -123.5t-26 -26.5h210l-2 391q0 214 -147 365q-151 154 -362 154
q-213 0 -390 -183l-165 157q236 242 555 242q309 0 535 -224q222 -218 222 -511v-607q-380 0 -497 2q-158 2 -276 36q-135 -38 -320 -38h-476zM786 246q177 65 177 215q0 81 -53 138q-50 52 -124 52q-76 0 -126 -52q-55 -57 -55 -138q0 -148 181 -215z" />
    <glyph glyph-name="uniFEEC" unicode="&#x647;" horiz-adv-x="1402" arabic-form="medial" 
d="M301 191v325q0 212 107 351q114 145 288 145q175 0 293 -144q116 -142 116 -352q0 -207 -81 -325h418v-216h-356q45 -62 45 -182q0 -163 -126 -282q-124 -120 -295 -120q-172 0 -290 118q-119 120 -119 284v182h-311v216h311zM545 190h151q54 0 104 87q60 99 60 239
q0 127 -52 208q-45 72 -112 72q-65 0 -106 -71q-45 -79 -45 -209v-326zM595 -340q46 -53 115 -53q70 0 122 54q55 55 55 132t-53 130q-52 52 -124 52h-165v-182q0 -78 50 -133z" />
    <glyph glyph-name="uniFEEE" unicode="&#x648;" horiz-adv-x="1514" arabic-form="final" 
d="M160 510q0 220 156 378q159 159 386 159q225 0 384 -159q156 -158 156 -378v-319h312v-216h-330q-40 -155 -215 -271q-208 -143 -566 -143v216q247 0 390 68q126 63 147 130h-278q-227 0 -384 157q-158 158 -158 378zM404 510q0 -133 88 -227q85 -92 210 -92h296v319
q0 135 -88 228q-85 93 -208 93q-125 0 -210 -93q-88 -93 -88 -228z" />
    <glyph glyph-name="uniFEF0" unicode="&#x649;" horiz-adv-x="2025" arabic-form="final" 
d="M202 251q43 150 200 300l157 -165q-143 -134 -143 -262q0 -46 18 -91q55 -141 234 -231q183 -92 415 -92q173 0 287 61q110 58 138 160q8 29 8 58q0 38 -14 74q-23 63 -75 93q-64 42 -167 114l-86 60l126 185l232 -162q76 -50 136 -82q151 -78 269 -80h128v-216h-128
q-115 0 -192 28q2 -13 2 -28q0 -43 -15 -99q-49 -180 -225 -281q-171 -101 -424 -101q-306 0 -543 127q-240 125 -322 332q-33 86 -33 173q0 62 17 125z" />
    <glyph glyph-name="uniFEF2" unicode="&#x64a;" horiz-adv-x="2025" arabic-form="final" 
d="M202 251q43 150 200 300l157 -165q-143 -134 -143 -262q0 -46 18 -91q55 -141 234 -231q183 -92 415 -92q173 0 287 61q110 58 138 160q8 29 8 58q0 38 -14 74q-23 63 -75 93q-64 42 -167 114l-86 60l126 185l232 -162q76 -50 136 -82q151 -78 269 -80h128v-216h-128
q-115 0 -192 28q2 -13 2 -28q0 -43 -15 -99q-49 -180 -225 -281q-171 -101 -424 -101q-306 0 -543 127q-240 125 -322 332q-33 86 -33 173q0 62 17 125zM1064 -727q0 53 32 90q38 44 106 44q71 0 106 -44q35 -37 35 -90q0 -54 -35 -89q-35 -40 -106 -40q-68 0 -105 40
q-33 36 -33 89zM736 -727q0 53 32 90q35 44 106 44q69 0 107 -44q32 -37 32 -90t-33 -89q-38 -40 -106 -40q-70 0 -105 40q-33 36 -33 89z" />
    <glyph glyph-name="uniFEF3" unicode="&#x64a;" horiz-adv-x="757" arabic-form="initial" 
d="M20 -25v216h308v792h247v-1008h-555zM318 -248q0 54 34 91q35 43 106 43q69 0 106 -43q33 -38 33 -91t-33 -89q-38 -40 -106 -40q-70 0 -105 40q-35 35 -35 89zM-10 -248q0 54 34 91q35 43 104 43q72 0 107 -43q34 -37 34 -91t-35 -89q-35 -40 -106 -40q-68 0 -103 40
q-35 35 -35 89z" />
    <glyph glyph-name="uniFEF4" unicode="&#x64a;" horiz-adv-x="820" arabic-form="medial" 
d="M-10 -25v216h270v792h245v-408q0 -167 54 -264q68 -120 215 -120h86v-216h-90h-7q-174 0 -258 101v-101h-515zM99 -157q35 43 104 43q71 0 106 -43q35 -37 35 -91t-36 -89q-35 -40 -105 -40q-69 0 -104 40q-35 35 -35 89t35 91zM406 -157q36 43 107 43q68 0 106 -43
q32 -38 32 -91t-33 -89q-38 -40 -105 -40q-71 0 -106 40q-35 35 -35 89t34 91z" />
    <glyph glyph-name=".notdef" horiz-adv-x="1024" 
d="M100 1434h824v-1434h-824v1434zM874 50v1334h-724v-1334h724zM325 1103v45q31 28 58 43q53 30 112 30q92 0 148 -47.5t56 -127.5q0 -49 -23 -98.5t-87 -129.5q-63 -80 -99 -132t-36 -99q0 -38 24 -133h-32q-35 97 -35 148q0 76 81.5 218t81.5 217q0 57 -33 90t-91 33
q-38 0 -69 -17q-26 -15 -56 -40zM378 312q0 10 11 22l57 58q11 10 20 10q10 0 22 -11l56 -60q9 -11 9 -20q0 -11 -10 -22l-56 -62q-14 -14 -21 -14q-11 0 -20 10l-61 71q-7 9 -7 18z" />
    <glyph glyph-name=".null" 
 />
    <glyph glyph-name="uni000D" unicode="&#xd;" horiz-adv-x="512" 
 />
    <glyph glyph-name="space" unicode=" " horiz-adv-x="508" 
 />
    <glyph glyph-name="glyph2" horiz-adv-x="508" 
 />
    <glyph glyph-name="uni001D" 
 />
    <glyph glyph-name="uni001D" 
 />
    <glyph glyph-name="exclam" unicode="!" horiz-adv-x="549" 
d="M406 1456l-24 -1027h-209l-23 1027h256zM143 115q0 57 37 94.5t101 37.5t101 -37.5t37 -94.5q0 -55 -36 -92t-102 -37t-102 37t-36 92z" />
    <glyph glyph-name="quotedbl" unicode="&#x22;" horiz-adv-x="664" 
d="M402 1536h174v-137l-35 -387h-139v524zM101 1536h174v-137l-35 -387h-139v524z" />
    <glyph glyph-name="numbersign" unicode="#" horiz-adv-x="1250" 
d="M357 568l58 313h-243v159h273l78 416h167l-78 -416h225l78 416h167l-78 -416h208v-159h-238l-58 -313h221v-158h-251l-76 -410h-167l76 410h-224l-76 -410h-168l76 410h-231v158h261zM525 568h224l58 313h-224z" />
    <glyph glyph-name="dollar" unicode="$" horiz-adv-x="1164" 
d="M100 443h243q0 -126 63.5 -195t179.5 -69q114 0 173.5 55t59.5 146q0 85 -54 140.5t-180 100t-196 82.5q-233 125 -233 370q0 166 101 273t274 127v218h160v-220q174 -25 269 -147.5t95 -318.5h-242q0 126 -56.5 198.5t-153.5 72.5q-96 0 -150 -52t-54 -149
q0 -87 53.5 -139.5t181.5 -99.5t201 -87t123 -91.5t77 -118.5t27 -157q0 -169 -103.5 -274t-288.5 -124v-195h-159v194q-198 22 -304.5 142t-106.5 318z" />
    <glyph glyph-name="percent" unicode="%" horiz-adv-x="1504" 
d="M886 574q87 83 222 83q136 0 222.5 -83t86.5 -224v-71q0 -130 -83.5 -214.5t-223.5 -84.5t-225.5 83.5t-85.5 220.5v73q0 134 87 217zM99 1105v71q0 132 85 216.5t223 84.5q140 0 224.5 -84.5t84.5 -221.5v-72q0 -131 -84.5 -215t-222.5 -84q-135 0 -222.5 82.5
t-87.5 222.5zM1045 1319l125 -72l-711 -1138l-125 72zM1009 168q39 -44 101 -44q64 0 100.5 41.5t36.5 116.5v75q0 70 -39 112t-100 42q-62 0 -100.5 -42t-38.5 -116v-74q0 -68 40 -111zM269 1099q0 -69 38.5 -111.5t101.5 -42.5q62 0 100 42.5t38 115.5v73q0 69 -38.5 112
t-101.5 43t-100.5 -43.5t-37.5 -114.5v-74z" />
    <glyph glyph-name="ampersand" unicode="&#x26;" horiz-adv-x="1309" 
d="M141 579q55 84 217 200q-85 107 -118.5 182t-33.5 145q0 171 104 270.5t280 99.5q159 0 260.5 -93.5t101.5 -231.5q0 -91 -46 -167.5t-151 -152.5l-99 -72l281 -332q61 120 61 267h211q0 -269 -126 -441l214 -253h-282l-82 97q-156 -117 -372 -117t-345.5 114.5
t-129.5 298.5q0 101 55 186zM329 401q0 -101 65 -164t174 -63q123 0 230 82l-318 375l-31 -22q-120 -91 -120 -208zM434 1112q0 -84 103 -211l111 76l31 25q62 55 62 141q0 57 -43 97.5t-109 40.5q-71 0 -113 -48t-42 -121z" />
    <glyph glyph-name="quotesingle" unicode="'" horiz-adv-x="346" 
d="M267 1411l-26 -391h-159v516h185v-125z" />
    <glyph glyph-name="parenleft" unicode="(" horiz-adv-x="714" 
d="M190 1031q62 207 182 370.5t254 229.5l48 -142q-141 -107 -228.5 -326.5t-95.5 -502.5l-1 -86q0 -303 85.5 -540.5t239.5 -361.5l-48 -135q-134 66 -254.5 230.5t-182 371t-61.5 453.5q0 231 62 439z" />
    <glyph glyph-name="parenright" unicode=")" horiz-adv-x="722" 
d="M278 27q87 238 87 544v23q0 278 -76 506.5t-218 366.5l-31 28l48 136q128 -62 248 -220t184 -353.5t72 -403.5l1 -78q0 -222 -61 -428.5t-185 -376t-259 -234.5l-48 135q150 116 238 355z" />
    <glyph glyph-name="asterisk" unicode="*" horiz-adv-x="905" 
d="M332 972l-305 88l55 169l302 -117l-15 344h179l-15 -350l297 115l54 -172l-310 -88l200 -266l-145 -106l-180 288l-178 -279l-146 102z" />
    <glyph glyph-name="plus" unicode="+" horiz-adv-x="1141" 
d="M450 801v405h236v-405h380v-222h-380v-433h-236v433h-382v222h382z" />
    <glyph glyph-name="comma" unicode="," horiz-adv-x="450" 
d="M28 -250q58 91 79.5 158.5t22.5 137.5v189h219l-1 -175q-1 -106 -53.5 -212.5t-135.5 -175.5z" />
    <glyph glyph-name="hyphen" unicode="-" horiz-adv-x="672" 
d="M596 521h-525v196h525v-196z" />
    <glyph glyph-name="period" unicode="." horiz-adv-x="572" 
d="M135 121q0 58 37 96.5t104 38.5q68 0 105 -38.5t37 -96.5q0 -57 -37 -94.5t-105 -37.5q-65 0 -103 37t-38 95z" />
    <glyph glyph-name="slash" unicode="/" horiz-adv-x="810" 
d="M193 -125h-191l573 1581h191z" />
    <glyph glyph-name="zero" unicode="0" horiz-adv-x="1164" 
d="M105 596v252q0 314 117.5 471t358.5 157q239 0 356.5 -153t120.5 -458v-252q0 -314 -117.5 -473.5t-357.5 -159.5q-236 0 -355.5 155.5t-122.5 460.5zM404 274q57 -100 179 -100q117 0 173 92.5t59 289.5v329q0 205 -56 300.5t-178 95.5q-119 0 -175 -90.5t-59 -282.5
v-330q0 -204 57 -304z" />
    <glyph glyph-name="one" unicode="1" horiz-adv-x="1164" 
d="M767 0h-242v1169l-357 -122v205l568 209h31v-1461z" />
    <glyph glyph-name="two" unicode="2" horiz-adv-x="1164" 
d="M142 1252q60 106 172.5 165t259.5 59q212 0 334.5 -106.5t122.5 -294.5q0 -109 -61.5 -228.5t-201.5 -271.5l-356 -381h676v-194h-979v167l485 529q105 117 149.5 195.5t44.5 157.5q0 104 -58.5 168t-157.5 64q-118 0 -183 -72t-65 -197h-243q0 133 61 240z" />
    <glyph glyph-name="three" unicode="3" horiz-adv-x="1164" 
d="M322 390q0 -96 64.5 -156t173.5 -60q113 0 178 60t65 174q0 115 -68 177t-202 62h-143v192h148q112 1 177.5 58t65.5 165q0 104 -54.5 161.5t-166.5 57.5q-98 0 -161 -56.5t-63 -147.5h-243q0 112 59.5 204t166 143.5t238.5 51.5q218 0 342.5 -109.5t124.5 -304.5
q0 -98 -62.5 -184.5t-161.5 -130.5q120 -41 182.5 -129t62.5 -210q0 -196 -134.5 -312t-353.5 -116q-210 0 -344 112t-134 298h243z" />
    <glyph glyph-name="four" unicode="4" horiz-adv-x="1164" 
d="M680 1456h251v-937h181v-195h-181v-324h-243v324h-629l-7 148zM307 519h381v608l-18 -32z" />
    <glyph glyph-name="five" unicode="5" horiz-adv-x="1164" 
d="M129 393h235q14 -106 76 -162.5t162 -56.5q112 0 174.5 80t62.5 218q0 133 -69 210.5t-190 77.5q-66 0 -112 -17.5t-100 -68.5l-194 48l79 734h782v-210h-580l-40 -348q101 58 228 58q208 0 323.5 -133t115.5 -358q0 -222 -128 -353.5t-351 -131.5q-200 0 -331.5 113.5
t-142.5 299.5z" />
    <glyph glyph-name="six" unicode="6" horiz-adv-x="1164" 
d="M117 563v83q0 383 186.5 600t536.5 217h25v-201h-30q-204 -3 -326 -112t-145 -309q117 123 299 123q193 0 304.5 -136t111.5 -351q0 -222 -130.5 -359.5t-342.5 -137.5q-218 0 -353.5 161t-135.5 422zM428 272q68 -96 176 -96t171 81t63 213t-64 215t-170 83
q-80 0 -146.5 -45t-97.5 -120v-74q0 -162 68 -257z" />
    <glyph glyph-name="seven" unicode="7" horiz-adv-x="1164" 
d="M1078 1321l-582 -1321h-255l581 1261h-753v195h1009v-135z" />
    <glyph glyph-name="eight" unicode="8" horiz-adv-x="1164" 
d="M166 607q62 93 174 143q-94 48 -148.5 131.5t-54.5 190.5q0 186 120 295t324 109q205 0 325 -109t120 -295q0 -107 -55 -190.5t-150 -131.5q114 -53 175.5 -145t61.5 -208q0 -192 -130 -304.5t-346 -112.5q-217 0 -347.5 113t-130.5 304q0 117 62 210zM410 238
q62 -64 172 -64t171.5 62t61.5 173q0 108 -64.5 174.5t-170.5 66.5t-169.5 -66t-63.5 -175q0 -107 63 -171zM435 904q54 -59 147 -59t147.5 59t54.5 159q0 95 -55 156.5t-148 61.5t-147 -58.5t-54 -159.5q0 -100 55 -159z" />
    <glyph glyph-name="nine" unicode="9" horiz-adv-x="1164" 
d="M93 968q0 144 58 261t165 182t248 65q220 0 349 -164t129 -439v-68q0 -394 -178 -601t-531 -210h-29v201h35q215 3 330 103.5t129 310.5q-122 -129 -285 -129q-192 0 -306 134.5t-114 353.5zM396 754q63 -84 168 -84q73 0 137 42t99 116v95q0 161 -66 259t-171 98
t-167.5 -86.5t-62.5 -218.5q0 -137 63 -221z" />
    <glyph glyph-name="colon" unicode=":" horiz-adv-x="543" 
d="M130 970q0 58 37 96.5t104 38.5q68 0 105 -38.5t37 -96.5q0 -57 -37 -94.5t-105 -37.5q-65 0 -103 37t-38 95zM167 218q37 38 104 38q68 0 105 -38.5t37 -96.5q0 -57 -37 -94.5t-105 -37.5q-65 0 -103 37t-38 95t37 97z" />
    <glyph glyph-name="semicolon" unicode=";" horiz-adv-x="487" 
d="M126 -92q21 68 22 138v189h219l-1 -175q-1 -106 -53.5 -212.5t-135.5 -175.5l-131 78q58 91 80 158zM146 1067q37 38 104 38q68 0 105 -38.5t37 -96.5q0 -57 -37 -94.5t-105 -37.5q-65 0 -103 37t-38 95t37 97z" />
    <glyph glyph-name="less" unicode="&#x3c;" horiz-adv-x="1041" 
d="M63 537v193l837 372v-243l-590 -228l590 -224v-243z" />
    <glyph glyph-name="equal" unicode="=" horiz-adv-x="1146" 
d="M1007 982v-202h-862v202h862zM145 356v201h862v-201h-862z" />
    <glyph glyph-name="greater" unicode="&#x3e;" horiz-adv-x="1066" 
d="M128 165v239l618 232l-618 227v239l864 -372v-193z" />
    <glyph glyph-name="question" unicode="?" horiz-adv-x="996" 
d="M60 1093q2 177 120.5 280t313.5 103q201 0 313.5 -102t112.5 -285q0 -163 -152 -321l-123 -121q-66 -75 -68 -219h-227q0 133 33 212t130.5 173.5t123.5 134.5q40 61 40 132q0 94 -46.5 143.5t-136.5 49.5q-86 0 -138.5 -48.5t-52.5 -131.5h-243zM333 117q0 59 37 95.5
t100 36.5q64 0 101 -37.5t37 -94.5q0 -55 -36 -92t-102 -37t-101.5 37t-35.5 92z" />
    <glyph glyph-name="at" unicode="@" horiz-adv-x="1832" 
d="M102 471q12 274 123 492.5t303.5 339.5t438.5 121q249 0 428.5 -109.5t263 -303t83.5 -428.5q0 -32 -1 -65q-12 -250 -123 -394.5t-301 -144.5q-181 0 -242 154q-51 -76 -118.5 -114t-141.5 -38q-146 0 -214 108.5t-68 258.5q0 35 3 74q16 163 79.5 294t161 202.5
t207.5 71.5q84 0 148.5 -21t151.5 -87l-52 -563q-2 -25 -2 -46q0 -152 116 -152q102 0 167.5 109.5t71.5 283.5q2 36 2 69q0 319 -152 505.5t-472 186.5q-196 0 -347.5 -98t-240.5 -283.5t-98 -422.5q-2 -35 -2 -70q0 -197 64.5 -358.5t208 -252.5t350.5 -91q84 0 175.5 20
t155.5 54l38 -137q-61 -40 -164.5 -64.5t-208.5 -24.5q-254 0 -436 107.5t-273 311.5q-84 189 -84 444q0 30 1 61zM756 216q37 -71 118 -71q54 0 102 47.5t78 130.5l45 493q-50 19 -97 19q-111 0 -181 -104.5t-89 -308.5q-3 -35 -3 -66q0 -88 27 -140z" />
    <glyph glyph-name="A" unicode="A" horiz-adv-x="1363" 
d="M568 1456h227l551 -1456h-264l-119 339h-564l-118 -339h-263zM892 543l-211 604l-211 -604h422z" />
    <glyph glyph-name="B" unicode="B" horiz-adv-x="1292" 
d="M647 1456q247 0 376 -99t129 -295q0 -100 -54 -180t-158 -124q118 -32 182.5 -120.5t64.5 -212.5q0 -205 -131.5 -315t-376.5 -110h-531v1456h499zM401 202h281q119 0 186 59t67 164q0 227 -232 232h-302v-455zM401 843h248q118 0 184.5 53.5t66.5 151.5q0 108 -61.5 156
t-191.5 48h-246v-409z" />
    <glyph glyph-name="C" unicode="C" horiz-adv-x="1337" 
d="M102 786q0 206 73 363t209.5 242t315.5 85q241 0 388 -131t171 -370h-252q-18 157 -91.5 226.5t-215.5 69.5q-165 0 -253.5 -120.5t-90.5 -353.5v-129q0 -236 84.5 -360t247.5 -124q149 0 224 67t95 223h252q-22 -233 -172 -363.5t-399 -130.5q-174 0 -306.5 82.5
t-204.5 234.5t-75 353v136z" />
    <glyph glyph-name="D" unicode="D" horiz-adv-x="1338" 
d="M578 1456q193 0 342.5 -86t231.5 -244t82 -362v-73q0 -207 -82.5 -364t-235 -242t-349.5 -85h-419v1456h430zM401 1252v-1050h165q199 0 305.5 124.5t108.5 357.5v81q0 237 -103 362t-299 125h-177z" />
    <glyph glyph-name="E" unicode="E" horiz-adv-x="1158" 
d="M1093 1456v-204h-692v-402h598v-200h-598v-448h699v-202h-952v1456h945z" />
    <glyph glyph-name="F" unicode="F" horiz-adv-x="1125" 
d="M148 0v1456h925v-204h-672v-433h586v-202h-586v-617h-253z" />
    <glyph glyph-name="G" unicode="G" horiz-adv-x="1394" 
d="M106 775q0 330 158 515.5t441 185.5q243 0 386 -120t172 -346h-248q-42 263 -305 263q-170 0 -258.5 -122.5t-91.5 -359.5v-112q0 -236 99.5 -366.5t276.5 -130.5q194 0 276 88v285h-300v192h552v-558q-79 -103 -219 -156t-318 -53q-183 0 -324 83t-217.5 237.5
t-79.5 360.5v114z" />
    <glyph glyph-name="H" unicode="H" horiz-adv-x="1455" 
d="M148 0v1456h253v-606h651v606h252v-1456h-252v647h-651v-647h-253z" />
    <glyph glyph-name="I" unicode="I" horiz-adv-x="578" 
d="M415 0h-252v1456h252v-1456z" />
    <glyph glyph-name="J" unicode="J" horiz-adv-x="1137" 
d="M45 415h252q0 -116 57.5 -174.5t166.5 -58.5q102 0 162.5 67.5t60.5 186.5v1020h252v-1021q0 -209 -130.5 -332t-344.5 -123q-228 0 -352 115t-124 320z" />
    <glyph glyph-name="K" unicode="K" horiz-adv-x="1291" 
d="M148 0v1456h253v-683l140 173l426 510h306l-541 -645l572 -811h-300l-438 629l-165 -175v-454h-253z" />
    <glyph glyph-name="L" unicode="L" horiz-adv-x="1108" 
d="M401 202h661v-202h-914v1456h253v-1254z" />
    <glyph glyph-name="M" unicode="M" horiz-adv-x="1793" 
d="M476 1456l420 -1116l419 1116h327v-1456h-252v480l25 642l-430 -1122h-181l-429 1121l25 -641v-480h-252v1456h328z" />
    <glyph glyph-name="N" unicode="N" horiz-adv-x="1454" 
d="M401 1456l651 -1037v1037h251v-1456h-253l-649 1033v-1033h-253v1456h253z" />
    <glyph glyph-name="O" unicode="O" horiz-adv-x="1414" 
d="M178 1140q75 163 212.5 249.5t315.5 86.5t315.5 -85.5t212.5 -246t76 -373.5v-81q0 -214 -74 -375.5t-211.5 -248t-316.5 -86.5q-177 0 -315.5 86.5t-214 246.5t-76.5 369v82q0 213 76 376zM355 690q0 -240 93.5 -371t259.5 -131q168 0 258.5 128t90.5 374v76
q0 242 -91.5 371t-259.5 129q-164 0 -256.5 -128.5t-94.5 -363.5v-84z" />
    <glyph glyph-name="P" unicode="P" horiz-adv-x="1309" 
d="M148 1456h557q244 0 387.5 -127t143.5 -336q0 -214 -140.5 -333t-393.5 -119h-301v-541h-253v1456zM705 744q135 0 206 63.5t71 183.5q0 118 -72 188.5t-198 72.5h-311v-508h304z" />
    <glyph glyph-name="Q" unicode="Q" horiz-adv-x="1414" 
d="M96 682v82q0 213 75.5 376t213 249.5t314.5 86.5q180 0 317.5 -85.5t212.5 -246t76 -373.5v-81q0 -207 -65.5 -358.5t-183.5 -240.5l250 -195l-164 -148l-310 245q-61 -13 -131 -13q-176 0 -314.5 86.5t-214 246.5t-76.5 369zM349 775v-85q0 -236 92.5 -369t259.5 -133
q169 0 259.5 128t90.5 374v76q0 246 -92 373t-260 127q-163 0 -255.5 -128.5t-94.5 -362.5z" />
    <glyph glyph-name="R" unicode="R" horiz-adv-x="1278" 
d="M660 1456q252 0 389 -113t137 -327q0 -146 -70.5 -244.5t-196.5 -151.5l327 -607v-13h-271l-292 561h-282v-561h-253v1456h512zM401 764h260q128 0 200 64.5t72 176.5q0 117 -66.5 181t-198.5 66h-267v-488z" />
    <glyph glyph-name="S" unicode="S" horiz-adv-x="1236" 
d="M74 440h253q0 -124 82 -192t235 -68q132 0 198.5 53.5t66.5 141.5q0 96 -67.5 148t-243.5 105t-280 118q-199 125 -199 326q0 176 143.5 290t372.5 114q152 0 271 -56t187 -159.5t68 -229.5h-252q0 114 -71.5 178.5t-204.5 64.5q-124 0 -192.5 -53t-68.5 -148
q0 -80 74 -133.5t244 -104t273 -115t151 -148t48 -195.5q0 -182 -139.5 -289.5t-378.5 -107.5q-158 0 -290.5 58.5t-206 161.5t-73.5 240z" />
    <glyph glyph-name="T" unicode="T" horiz-adv-x="1243" 
d="M45 1252v204h1155v-204h-454v-1252h-251v1252h-450z" />
    <glyph glyph-name="U" unicode="U" horiz-adv-x="1335" 
d="M125 1456h252v-974q0 -146 74 -223t218 -77q292 0 292 308v966h252v-973q0 -232 -148.5 -367.5t-395.5 -135.5q-250 0 -397 133.5t-147 370.5v972z" />
    <glyph glyph-name="V" unicode="V" horiz-adv-x="1325" 
d="M18 1456h277l366 -1139l370 1139h278l-524 -1456h-245z" />
    <glyph glyph-name="W" unicode="W" horiz-adv-x="1802" 
d="M48 1456h251l226 -1094l278 1094h212l275 -1096l224 1096h251l-336 -1456h-242l-277 1063l-283 -1063h-243z" />
    <glyph glyph-name="X" unicode="X" horiz-adv-x="1296" 
d="M41 0l451 734l-441 722h292l306 -526l306 526h292l-440 -722l450 -734h-295l-313 534l-314 -534h-294z" />
    <glyph glyph-name="Y" unicode="Y" horiz-adv-x="1248" 
d="M7 1456h281l335 -690l335 690h280l-488 -920v-536h-254v536z" />
    <glyph glyph-name="Z" unicode="Z" horiz-adv-x="1233" 
d="M386 202h778v-202h-1084v164l753 1088h-748v204h1055v-160z" />
    <glyph glyph-name="bracketleft" unicode="[" horiz-adv-x="561" 
d="M540 1678v-190h-165v-1623h165v-189h-408v2002h408z" />
    <glyph glyph-name="backslash" unicode="\" horiz-adv-x="856" 
d="M20 1456h240l608 -1581h-240z" />
    <glyph glyph-name="bracketright" unicode="]" horiz-adv-x="561" 
d="M179 -135v1623h-167v190h410v-2002h-410v189h167z" />
    <glyph glyph-name="asciicircum" unicode="^" horiz-adv-x="875" 
d="M352 1456h171l298 -727h-205l-179 461l-178 -461h-206z" />
    <glyph glyph-name="underscore" unicode="_" horiz-adv-x="924" 
d="M920 -191h-917v191h917v-191z" />
    <glyph glyph-name="grave" unicode="`" horiz-adv-x="660" 
d="M521 1233h-202l-270 303h277z" />
    <glyph glyph-name="a" unicode="a" horiz-adv-x="1108" 
d="M90 303q0 173 128.5 265.5t367.5 92.5h149v71q0 84 -47 134.5t-143 50.5q-83 0 -136 -41.5t-53 -105.5h-243q0 89 59 166.5t160.5 121.5t226.5 44q190 0 303 -95.5t116 -268.5v-488q0 -146 41 -233v-17h-248q-16 31 -28 101q-116 -121 -284 -121q-163 0 -266 93t-103 230
zM333 328q0 -70 46.5 -111.5t124.5 -41.5q72 0 135.5 35t95.5 94v204h-131q-135 0 -203 -47t-68 -133z" />
    <glyph glyph-name="b" unicode="b" horiz-adv-x="1153" 
d="M124 1536h243v-558q105 124 283 124q198 0 311 -147t113 -411v-14q0 -252 -112.5 -401t-309.5 -149q-190 0 -296 137l-12 -117h-220v1536zM591 178q114 0 176 85t64 257v31q0 176 -62 264t-180 88q-158 0 -222 -138v-446q65 -141 224 -141z" />
    <glyph glyph-name="c" unicode="c" horiz-adv-x="1072" 
d="M79 533v25q0 247 132 395.5t360 148.5q193 0 314.5 -112.5t127.5 -295.5h-229q-4 93 -63.5 153t-151.5 60q-118 0 -182 -85.5t-65 -259.5v-39q0 -176 63.5 -262.5t183.5 -86.5q91 0 151 53t64 131h229q-4 -101 -63 -188.5t-160 -138.5t-218 -51q-227 0 -360 147t-133 406
z" />
    <glyph glyph-name="d" unicode="d" horiz-adv-x="1156" 
d="M79 549q0 250 116 401.5t311 151.5q172 0 278 -120v554h243v-1536h-220l-12 112q-109 -132 -291 -132q-190 0 -307.5 153t-117.5 416zM322 528q0 -165 63.5 -257.5t180.5 -92.5q149 0 218 133v462q-67 130 -216 130q-118 0 -182 -93.5t-64 -281.5z" />
    <glyph glyph-name="e" unicode="e" horiz-adv-x="1099" 
d="M83 513v30q0 162 62.5 289.5t175.5 198.5t252 71q221 0 341.5 -141t120.5 -399v-98h-707q11 -134 89.5 -212t197.5 -78q167 0 272 135l131 -125q-65 -97 -173.5 -150.5t-243.5 -53.5q-231 0 -374.5 145.5t-143.5 387.5zM332 642h463v18q-8 122 -65 184.5t-158 62.5
q-100 0 -161.5 -70t-78.5 -195z" />
    <glyph glyph-name="f" unicode="f" horiz-adv-x="726" 
d="M210 1082v99q0 180 100 278t280 98q64 0 136 -18l-6 -190q-40 8 -93 8q-174 0 -174 -179v-96h220v-180h-220v-902h-243v902h-165v180h165z" />
    <glyph glyph-name="g" unicode="g" horiz-adv-x="1161" 
d="M82 549q0 252 118.5 402.5t314.5 150.5q185 0 291 -129l11 109h219v-1049q0 -213 -132.5 -336t-357.5 -123q-119 0 -232.5 49.5t-172.5 129.5l115 146q112 -133 276 -133q121 0 191 65.5t70 192.5v73q-105 -117 -280 -117q-190 0 -310.5 151t-120.5 418zM391 272
q66 -94 184 -94q147 0 218 126v476q-69 123 -216 123q-120 0 -186.5 -95t-66.5 -280q0 -163 67 -256z" />
    <glyph glyph-name="h" unicode="h" horiz-adv-x="1137" 
d="M121 1536h243v-572q119 138 301 138q346 0 351 -395v-707h-243v698q0 112 -48.5 158.5t-142.5 46.5q-146 0 -218 -130v-773h-243v1536z" />
    <glyph glyph-name="i" unicode="i" horiz-adv-x="523" 
d="M383 1082v-1082h-243v1082h243zM125 1363q0 56 35.5 93t101.5 37t102 -37t36 -93q0 -55 -36 -91.5t-102 -36.5t-101.5 36.5t-35.5 91.5z" />
    <glyph glyph-name="j" unicode="j" horiz-adv-x="513" 
d="M11 -237q121 0 124 132v1187h243v-1178q0 -166 -82.5 -253.5t-241.5 -87.5q-67 0 -129 17v192q38 -9 86 -9zM114 1363q0 56 35.5 93t101.5 37t102 -37t36 -93q0 -55 -36 -91.5t-102 -36.5t-101.5 36.5t-35.5 91.5z" />
    <glyph glyph-name="k" unicode="k" horiz-adv-x="1069" 
d="M125 0v1536h243v-886l76 95l299 337h292l-402 -451l445 -631h-281l-321 464l-108 -111v-353h-243z" />
    <glyph glyph-name="l" unicode="l" horiz-adv-x="523" 
d="M383 0h-243v1536h243v-1536z" />
    <glyph glyph-name="m" unicode="m" horiz-adv-x="1782" 
d="M353 1082l7 -113q114 133 312 133q217 0 297 -166q118 166 332 166q179 0 266.5 -99t89.5 -292v-711h-243v704q0 103 -45 151t-149 48q-83 0 -135.5 -44.5t-73.5 -116.5l1 -742h-243v712q-5 191 -195 191q-146 0 -207 -119v-784h-243v1082h229z" />
    <glyph glyph-name="n" unicode="n" horiz-adv-x="1139" 
d="M121 1082h229l7 -125q120 145 315 145q338 0 344 -387v-715h-243v701q0 103 -44.5 152.5t-145.5 49.5q-147 0 -219 -133v-770h-243v1082z" />
    <glyph glyph-name="o" unicode="o" horiz-adv-x="1166" 
d="M79 539v12q0 159 63 286.5t177 196t262 68.5q219 0 355.5 -141t147.5 -374l1 -57q0 -160 -61.5 -286t-176 -195t-264.5 -69q-229 0 -366.5 152.5t-137.5 406.5zM322 530q0 -167 69 -261.5t192 -94.5t191.5 96t68.5 281q0 164 -70.5 260t-191.5 96q-119 0 -189 -94.5
t-70 -282.5z" />
    <glyph glyph-name="p" unicode="p" horiz-adv-x="1153" 
d="M124 -416v1498h224l10 -110q107 130 291 130q198 0 310.5 -147.5t112.5 -409.5v-15q0 -251 -114 -400.5t-306 -149.5q-178 0 -285 117v-513h-243zM367 300q66 -126 216 -126q116 0 181.5 93.5t65.5 283.5q0 162 -64.5 257t-184.5 95q-149 0 -214 -123v-480z" />
    <glyph glyph-name="q" unicode="q" horiz-adv-x="1163" 
d="M79 550q0 254 116 403t314 149q181 0 287 -127l14 107h216v-1498h-243v508q-106 -112 -276 -112q-194 0 -311 151.5t-117 418.5zM322 529q0 -166 65.5 -260.5t181.5 -94.5q144 0 214 123v492q-70 118 -212 118q-116 0 -182.5 -93t-66.5 -285z" />
    <glyph glyph-name="r" unicode="r" horiz-adv-x="720" 
d="M356 1082l6 -121q88 141 244 141q52 0 86 -14l-1 -228q-48 8 -99 8q-167 0 -225 -128v-740h-243v1082h232z" />
    <glyph glyph-name="s" unicode="s" horiz-adv-x="1057" 
d="M311 341q5 -86 65 -132.5t159 -46.5q96 0 146 36.5t50 95.5q0 65 -53.5 99t-177.5 60t-207 66q-182 88 -182 255q0 140 118 234t300 94q194 0 313.5 -96t119.5 -249h-243q0 70 -52 116.5t-138 46.5q-80 0 -130.5 -37t-50.5 -99q0 -56 47 -87t190 -62.5t224.5 -75
t121 -104.5t39.5 -148q0 -146 -121 -236.5t-317 -90.5q-133 0 -237 48t-162 132t-58 181h236z" />
    <glyph glyph-name="t" unicode="t" horiz-adv-x="681" 
d="M8 1082h178v263h243v-263h191v-180h-191v-604q0 -62 24.5 -89.5t87.5 -27.5q42 0 85 10v-188q-83 -23 -160 -23q-280 0 -280 309v613h-178v180z" />
    <glyph glyph-name="u" unicode="u" horiz-adv-x="1138" 
d="M119 381v701h243v-698q0 -206 171 -206q177 0 239 127v777h243v-1082h-229l-6 106q-107 -126 -304 -126q-176 0 -266.5 103t-90.5 298z" />
    <glyph glyph-name="v" unicode="v" horiz-adv-x="1013" 
d="M22 1082h252l232 -774l229 774h251l-375 -1082h-211z" />
    <glyph glyph-name="w" unicode="w" horiz-adv-x="1522" 
d="M33 1082h237l175 -739l222 739h183l225 -747l172 747h237l-295 -1082h-200l-232 743l-228 -743h-200z" />
    <glyph glyph-name="x" unicode="x" horiz-adv-x="1030" 
d="M31 0l342 549l-330 533h268l202 -356l206 356h270l-331 -533l342 -549h-268l-216 370l-215 -370h-270z" />
    <glyph glyph-name="y" unicode="y" horiz-adv-x="997" 
d="M12 1082h262l229 -734l220 734h259l-430 -1246q-99 -273 -336 -273q-53 0 -117 18v188l46 -3q92 0 138.5 33.5t73.5 112.5l35 93z" />
    <glyph glyph-name="z" unicode="z" horiz-adv-x="1030" 
d="M384 194h576v-194h-878v159l549 727h-539v196h847v-154z" />
    <glyph glyph-name="braceleft" unicode="{" horiz-adv-x="687" 
d="M56 529v178q193 0 193 226v212q3 180 93.5 291t266.5 161l48 -140q-173 -56 -179 -306v-216q0 -225 -173 -316q173 -92 173 -319v-213q6 -250 179 -306l-48 -141q-353 99 -360 451v213q0 225 -193 225z" />
    <glyph glyph-name="bar" unicode="|" horiz-adv-x="514" 
d="M341 -270h-167v1726h167v-1726z" />
    <glyph glyph-name="braceright" unicode="}" horiz-adv-x="687" 
d="M75 1597q182 -51 271 -165.5t89 -299.5v-200q0 -225 194 -225v-178q-194 0 -194 -225v-197q0 -187 -89.5 -301.5t-270.5 -165.5l-48 141q176 57 180 312v208q0 231 182 317q-182 86 -182 320v207q-4 255 -180 312z" />
    <glyph glyph-name="asciitilde" unicode="~" horiz-adv-x="1361" 
d="M208 706q91 109 239 109q74 0 140.5 -29.5t139 -95.5t106 -83t72.5 -17q67 0 109 56t42 140h188q0 -176 -95 -287.5t-237 -111.5q-74 0 -136.5 28t-139.5 96.5t-110.5 85t-71.5 16.5q-67 0 -105.5 -52t-38.5 -136h-193q0 171 91 281z" />
    <glyph glyph-name="uni00A0" unicode="&#xa0;" horiz-adv-x="510" 
 />
    <glyph glyph-name="exclamdown" unicode="&#xa1;" horiz-adv-x="542" 
d="M170 662h209l24 -1026h-257zM134 971q0 55 36 92.5t102 37.5q65 0 101 -37.5t36 -92.5q0 -56 -36 -93.5t-101 -37.5q-66 0 -102 37.5t-36 93.5z" />
    <glyph glyph-name="cent" unicode="&#xa2;" horiz-adv-x="1149" 
d="M100 558q0 213 102 357t285 178v225h200v-224q158 -28 250.5 -136t96.5 -264h-228q-7 96 -66 154.5t-150 58.5q-230 0 -246 -312l-1 -72q0 -176 63.5 -262.5t184.5 -86.5q89 0 149 52t66 132h228q-4 -136 -102.5 -238.5t-244.5 -130.5v-234h-200v234q-183 34 -285 177.5
t-102 363.5v28z" />
    <glyph glyph-name="sterling" unicode="&#xa3;" horiz-adv-x="1205" 
d="M94 598v199h155l-8 242q0 202 125 319t328 117t319 -109t116 -293h-245q0 95 -52.5 147.5t-146.5 52.5q-89 0 -140.5 -65t-51.5 -169l9 -242h311v-199h-304l7 -176q0 -135 -64 -220h696l-1 -202h-1049v202h82q39 9 60.5 64.5t21.5 146.5l-7 185h-161z" />
    <glyph glyph-name="currency" unicode="&#xa4;" horiz-adv-x="1437" 
d="M93 1120l141 144l142 -145q155 115 347 115q194 0 349 -117l145 148l142 -145l-148 -151q107 -159 107 -361q0 -193 -98 -349l139 -141l-142 -145l-132 134q-159 -127 -362 -127q-202 0 -360 126l-129 -132l-141 144l135 137q-100 156 -100 353q0 200 109 365zM313 608
q0 -120 55 -223t150 -161.5t205 -58.5t205 59t149.5 162t54.5 222t-54.5 221t-149 160.5t-205.5 58.5t-206 -58.5t-149.5 -160.5t-54.5 -221z" />
    <glyph glyph-name="yen" unicode="&#xa5;" horiz-adv-x="1088" 
d="M11 1456h273l261 -609l262 609h269l-341 -714h234v-152h-303v-138h303v-151h-303v-301h-252v301h-308v151h308v138h-308v152h248z" />
    <glyph glyph-name="brokenbar" unicode="&#xa6;" horiz-adv-x="508" 
d="M136 -270v795h229v-795h-229zM136 698v758h229v-758h-229z" />
    <glyph glyph-name="section" unicode="&#xa7;" horiz-adv-x="1272" 
d="M90 -50l242 1q0 -110 78 -170t214 -60q121 0 191.5 47.5t70.5 126.5q0 77 -67 122.5t-254 100.5q-188 51 -283 106t-141.5 132t-46.5 186q0 184 169 274q-65 50 -99 118t-34 168q0 170 137.5 272t367.5 102q240 0 374 -112.5t134 -316.5h-243q0 106 -72.5 170t-192.5 64
q-123 0 -192.5 -47.5t-69.5 -129.5q0 -84 60 -127.5t253.5 -95.5t290.5 -108.5t142 -133t45 -184.5q0 -184 -171 -273q135 -100 135 -285q0 -173 -135 -272t-369 -99q-246 0 -390 108.5t-144 315.5zM336 558q0 -81 49.5 -124t198.5 -90l179 -53l46 -16q115 47 115 164
q0 81 -68 129.5t-255 104.5q-81 21 -157 49q-108 -40 -108 -164z" />
    <glyph glyph-name="dieresis" unicode="&#xa8;" horiz-adv-x="901" 
d="M584 1449q33 34 92 34t93 -34t34 -84t-34 -84t-93 -34t-92.5 34t-33.5 84t34 84zM93 1366q0 50 33.5 84t92.5 34t93 -34t34 -84t-34 -84t-93 -34t-92.5 34t-33.5 84z" />
    <glyph glyph-name="copyright" unicode="&#xa9;" horiz-adv-x="1604" 
d="M87 729q0 202 93.5 375t259 272.5t357.5 99.5t357 -99.5t258.5 -272.5t93.5 -375t-93.5 -375t-257.5 -273.5t-358 -100.5q-193 0 -357.5 100t-258.5 273t-94 376zM287 415q77 -144 213.5 -227.5t296.5 -83.5t297.5 85t213.5 229t76 311q0 166 -75 308.5t-212 228
t-300 85.5q-159 0 -295.5 -82t-214.5 -226t-78 -314t78 -314zM434 788q0 174 95.5 280.5t253.5 106.5q163 0 249.5 -82.5t86.5 -231.5h-156q0 96 -46 137.5t-134 41.5q-92 0 -143.5 -68t-51.5 -186v-117q0 -118 52 -185t143 -67q89 0 134 40.5t45 138.5h156
q0 -152 -87.5 -233t-247.5 -81t-254.5 106.5t-94.5 286.5v113z" />
    <glyph glyph-name="ordfeminine" unicode="&#xaa;" horiz-adv-x="913" 
d="M225 1090q84 60 257 60h102v51q0 127 -116 127q-65 0 -101.5 -25.5t-36.5 -73.5l-173 14q0 104 87.5 168.5t223.5 64.5q137 0 214 -72.5t77 -204.5v-316q0 -97 26 -178h-177l-17 68q-77 -82 -201 -82q-118 0 -183.5 61.5t-65.5 166.5q0 110 84 171zM433 835q40 0 82 18
t69 43v137h-106q-76 -1 -119 -31t-43 -79q0 -88 117 -88z" />
    <glyph glyph-name="guillemotleft" unicode="&#xab;" horiz-adv-x="994" 
d="M734 937h167l-247 -400l247 -399h-167l-288 390v19zM87 528v19l288 390h167l-247 -400l247 -399h-167z" />
    <glyph glyph-name="logicalnot" unicode="&#xac;" horiz-adv-x="1133" 
d="M962 374h-200v260h-635v171h835v-431z" />
    <glyph glyph-name="uni00AD" unicode="&#xad;" horiz-adv-x="672" 
d="M596 521h-525v196h525v-196z" />
    <glyph glyph-name="registered" unicode="&#xae;" horiz-adv-x="1604" 
d="M181 1104q93 173 258.5 272.5t357.5 99.5t357 -99.5t258.5 -272.5t93.5 -375t-93.5 -375t-257.5 -273.5t-358 -100.5q-193 0 -357.5 100t-258.5 273t-94 376q0 202 94 375zM209 729q0 -170 77.5 -314t214 -227.5t296.5 -83.5t297.5 85t213.5 229t76 311q0 166 -75 308.5
t-212 228t-300 85.5q-159 0 -295.5 -82t-214.5 -226t-78 -314zM783 1166q153 0 239 -67.5t86 -192.5q0 -117 -120 -180q65 -29 91 -84.5t26 -137t3.5 -115.5t13.5 -57v-16h-155q-13 34 -13 194q0 76 -33 109.5t-110 33.5h-158v-337h-151v850h281zM653 787h143q69 0 115.5 31
t46.5 85q0 70 -35.5 99.5t-128.5 30.5h-141v-246z" />
    <glyph glyph-name="macron" unicode="&#xaf;" horiz-adv-x="987" 
d="M842 1292h-687v158h687v-158z" />
    <glyph glyph-name="degree" unicode="&#xb0;" horiz-adv-x="778" 
d="M206 1397q78 79 185 79q106 0 183 -79t77 -189t-76 -187.5t-184 -77.5q-109 0 -186.5 77.5t-77.5 187.5t79 189zM303 1120q36 -36 88 -36q53 0 87.5 35.5t34.5 88.5q0 52 -34.5 90t-87.5 38t-89 -38t-36 -90t37 -88z" />
    <glyph glyph-name="plusminus" unicode="&#xb1;" horiz-adv-x="1098" 
d="M95 899h357v377h216v-377h343v-199h-343v-388h-216v388h-357v199zM974 197v-196h-849v196h849z" />
    <glyph glyph-name="twosuperior" unicode="&#xb2;" horiz-adv-x="758" 
d="M145 1391q84 76 219 76q143 0 221 -64t78 -179q0 -107 -106 -209l-98 -87l-140 -113h371v-148h-612v125l285 261q113 103 113 170q0 42 -27 68.5t-79 26.5q-58 0 -91 -33t-33 -87h-186q0 116 85 193z" />
    <glyph glyph-name="threesuperior" unicode="&#xb3;" horiz-adv-x="758" 
d="M241 896q0 -38 34.5 -64.5t94.5 -26.5q63 0 93.5 27.5t30.5 69.5q0 101 -134 102h-92v129h81q132 0 132 97q0 35 -27 61.5t-89 26.5q-48 0 -80.5 -19.5t-32.5 -54.5h-186q0 99 82.5 161t212.5 62q143 0 224.5 -60.5t81.5 -165.5q0 -119 -135 -170q149 -41 149 -183
q0 -106 -88.5 -169t-231.5 -63q-135 0 -220.5 63.5t-85.5 176.5h186z" />
    <glyph glyph-name="acute" unicode="&#xb4;" horiz-adv-x="667" 
d="M307 1536h277l-277 -303h-195z" />
    <glyph glyph-name="uni00B5" unicode="&#xb5;" horiz-adv-x="1211" 
d="M146 -416v1498h242v-636q2 -141 46.5 -206t150.5 -65q168 0 227 121v786h243v-1082h-223l-7 86q-92 -107 -239 -107q-121 0 -198 55v-450h-242z" />
    <glyph glyph-name="paragraph" unicode="&#xb6;" horiz-adv-x="1005" 
d="M202 1329q133 127 363 127h289v-1456h-210v520h-80q-230 0 -362.5 127t-132.5 341q0 213 133 341z" />
    <glyph glyph-name="periodcentered" unicode="&#xb7;" horiz-adv-x="578" 
d="M142 714q0 58 37 97t104 39t104.5 -39t37.5 -97q0 -59 -39 -96t-103 -37q-65 0 -103 37t-38 96z" />
    <glyph glyph-name="cedilla" unicode="&#xb8;" horiz-adv-x="528" 
d="M109 -136l32 139h177l-11 -54q150 -27 150 -173q0 -105 -86 -164t-241 -59l-7 137q66 0 101.5 23.5t35.5 65.5q0 45 -35.5 62.5t-115.5 22.5z" />
    <glyph glyph-name="onesuperior" unicode="&#xb9;" horiz-adv-x="758" 
d="M514 667h-185v570l-201 -48v146l367 119h19v-787z" />
    <glyph glyph-name="ordmasculine" unicode="&#xba;" horiz-adv-x="935" 
d="M215 1379q95 97 250 97t251 -97t96 -263v-72q0 -159 -94 -256.5t-251 -97.5q-158 0 -253 98t-95 261v72q0 160 96 258zM341 891q46 -55 126 -55q78 0 123.5 54t46.5 151v80q0 97 -46.5 152t-125.5 55q-78 0 -124.5 -54.5t-46.5 -156.5v-73q0 -98 47 -153z" />
    <glyph glyph-name="guillemotright" unicode="&#xbb;" horiz-adv-x="994" 
d="M713 537l-247 400h167l288 -390v-19l-288 -390h-167zM93 138l247 399l-247 400h167l288 -390v-19l-288 -390h-167z" />
    <glyph glyph-name="onequarter" unicode="&#xbc;" horiz-adv-x="1488" 
d="M1127 789h189v-475h95v-151h-95v-163h-187v163h-358l-9 121zM328 189l711 1138l125 -72l-711 -1138zM456 1451h19v-787h-185v570l-201 -48v146zM943 314h186v242l-14 -22z" />
    <glyph glyph-name="onehalf" unicode="&#xbd;" horiz-adv-x="1579" 
d="M854 531q0 116 84.5 192.5t219.5 76.5q143 0 221 -64t78 -179q0 -107 -106 -209l-98 -87l-140 -113h371v-148h-612v125l285 261q113 103 113 170q0 42 -27 68.5t-79 26.5q-58 0 -91 -33t-33 -87h-186zM996 1327l125 -72l-711 -1138l-125 72zM447 1454h19v-787h-185v570
l-201 -48v146z" />
    <glyph glyph-name="threequarters" unicode="&#xbe;" horiz-adv-x="1623" 
d="M883 284l365 505h189v-475h95v-151h-95v-163h-187v163h-358zM289 896q0 -38 34.5 -64.5t94.5 -26.5q63 0 93.5 27.5t30.5 69.5q0 101 -134 102h-92v129h81q132 0 132 97q0 35 -27 61.5t-89 26.5q-48 0 -80.5 -19.5t-32.5 -54.5h-186q0 99 82.5 161t212.5 62
q143 0 224.5 -60.5t81.5 -165.5q0 -119 -135 -170q149 -41 149 -183q0 -106 -88.5 -169t-231.5 -63q-135 0 -220.5 63.5t-85.5 176.5h186zM1180 1327l125 -72l-711 -1138l-125 72zM1250 314v242l-14 -22l-172 -220h186z" />
    <glyph glyph-name="questiondown" unicode="&#xbf;" horiz-adv-x="996" 
d="M221 328l92 93q78 72 88 187l2 53h227q-2 -124 -28.5 -196.5t-99.5 -151.5l-103 -106q-90 -97 -90 -203q0 -94 49 -140.5t138 -46.5q88 0 141 50t53 133h243q-2 -177 -121.5 -281t-313.5 -104q-206 0 -319 100.5t-113 284.5q0 165 155 328zM411 1065q36 37 102 37
t101.5 -37.5t35.5 -92.5q0 -56 -35.5 -93.5t-101.5 -37.5t-102 37.5t-36 93.5q0 55 36 93z" />
    <glyph glyph-name="Agrave" unicode="&#xc0;" horiz-adv-x="1363" 
d="M18 0l550 1456h227l551 -1456h-264l-119 339h-564l-118 -339h-263zM892 543l-211 604l-211 -604h422zM340 1846h277l195 -303h-202z" />
    <glyph glyph-name="Aacute" unicode="&#xc1;" horiz-adv-x="1363" 
d="M18 0l550 1456h227l551 -1456h-264l-119 339h-564l-118 -339h-263zM892 543l-211 604l-211 -604h422zM562 1543l195 303h277l-277 -303h-195z" />
    <glyph glyph-name="Acircumflex" unicode="&#xc2;" horiz-adv-x="1363" 
d="M18 0l550 1456h227l551 -1456h-264l-119 339h-564l-118 -339h-263zM892 543l-211 604l-211 -604h422zM343 1571l271 276h143l273 -278v-11h-195l-150 156l-149 -156h-193v13z" />
    <glyph glyph-name="Atilde" unicode="&#xc3;" horiz-adv-x="1363" 
d="M18 0l550 1456h227l551 -1456h-264l-119 339h-564l-118 -339h-263zM383 1747q63 75 158 75q57 0 137.5 -45t132.5 -45q38 0 65 28.5t27 75.5l149 -12q0 -110 -63.5 -183t-159.5 -73q-39 0 -67.5 8.5t-81 38.5t-74 36t-47.5 6q-38 0 -64.5 -28.5t-26.5 -74.5l-149 8
q0 110 64 185zM470 543h422l-211 604z" />
    <glyph glyph-name="Adieresis" unicode="&#xc4;" horiz-adv-x="1363" 
d="M568 1456h227l551 -1456h-264l-119 339h-564l-118 -339h-263zM892 543l-211 604l-211 -604h422zM822 1759q33 34 92 34t93 -34t34 -84t-34 -84t-93 -34t-92.5 34t-33.5 84t34 84zM331 1676q0 50 33.5 84t92.5 34t93 -34t34 -84t-34 -84t-93 -34t-92.5 34t-33.5 84z" />
    <glyph glyph-name="Aring" unicode="&#xc5;" horiz-adv-x="1363" 
d="M18 0l550 1456h227l551 -1456h-264l-119 339h-564l-118 -339h-263zM528 1879q63 61 158 61q93 0 157 -61.5t64 -146.5t-62.5 -145t-158.5 -60q-97 0 -159.5 60t-62.5 145t64 147zM470 543h422l-211 604zM607 1653q33 -33 79 -33q47 0 79.5 32t32.5 80q0 46 -31.5 79.5
t-80.5 33.5t-80.5 -33.5t-31.5 -79.5q0 -47 33 -79z" />
    <glyph glyph-name="AE" unicode="&#xc6;" horiz-adv-x="1925" 
d="M825 1456h992v-197h-646l17 -408h548v-197h-540l20 -458h663v-196h-898l-15 340h-502l-184 -340h-290zM580 555h377l-27 648z" />
    <glyph glyph-name="Ccedilla" unicode="&#xc7;" horiz-adv-x="1337" 
d="M102 650v136q0 206 73 363t209.5 242t315.5 85q241 0 388 -131t171 -370h-252q-18 157 -91.5 226.5t-215.5 69.5q-165 0 -253.5 -120.5t-90.5 -353.5v-129q0 -236 84.5 -360t247.5 -124q149 0 224 67t95 223h252q-22 -233 -172 -363q-124 -108 -315 -127l-8 -40
q150 -27 150 -173q0 -105 -86 -164t-241 -59l-7 137q66 0 101.5 23.5t35.5 65.5q0 45 -35.5 62.5t-115.5 22.5l29 127q-117 17 -213 77q-133 82 -205 234t-75 353z" />
    <glyph glyph-name="Egrave" unicode="&#xc8;" horiz-adv-x="1158" 
d="M148 0v1456h945v-204h-692v-402h598v-200h-598v-448h699v-202h-952zM281 1853h277l195 -303h-202z" />
    <glyph glyph-name="Eacute" unicode="&#xc9;" horiz-adv-x="1158" 
d="M148 1456h945v-204h-692v-402h598v-200h-598v-448h699v-202h-952v1456zM503 1550l195 303h277l-277 -303h-195z" />
    <glyph glyph-name="Ecircumflex" unicode="&#xca;" horiz-adv-x="1158" 
d="M148 1456h945v-204h-692v-402h598v-200h-598v-448h699v-202h-952v1456zM555 1854h143l273 -278v-11h-195l-150 156l-149 -156h-193v13z" />
    <glyph glyph-name="Edieresis" unicode="&#xcb;" horiz-adv-x="1158" 
d="M148 1456h945v-204h-692v-402h598v-200h-598v-448h699v-202h-952v1456zM729 1682q0 50 33.5 84t92.5 34t93 -34t34 -84t-34 -84t-93 -34t-92.5 34t-33.5 84zM272 1683q0 50 33.5 84t92.5 34t93 -34t34 -84t-34 -84t-93 -34t-92.5 34t-33.5 84z" />
    <glyph glyph-name="Igrave" unicode="&#xcc;" horiz-adv-x="578" 
d="M415 0h-252v1456h252v-1456zM416 1550h-202l-270 303h277z" />
    <glyph glyph-name="Iacute" unicode="&#xcd;" horiz-adv-x="578" 
d="M415 0h-252v1456h252v-1456zM360 1853h277l-277 -303h-195z" />
    <glyph glyph-name="Icircumflex" unicode="&#xce;" horiz-adv-x="578" 
d="M163 0v1456h252v-1456h-252zM218 1854h143l273 -278v-11h-195l-150 156l-149 -156h-193v13z" />
    <glyph glyph-name="Idieresis" unicode="&#xcf;" horiz-adv-x="578" 
d="M163 0v1456h252v-1456h-252zM-32 1767q34 34 93 34t93 -34t34 -84t-34 -84t-93 -34t-92.5 34t-33.5 84t33 84zM426 1766q33 34 92 34t93 -34t34 -84t-34 -84t-93 -34t-92.5 34t-33.5 84t34 84z" />
    <glyph glyph-name="Eth" unicode="&#xd0;" horiz-adv-x="1368" 
d="M178 822v634h430q193 0 342.5 -86t231.5 -244t82 -362v-73q0 -207 -82.5 -364t-235 -242t-349.5 -85h-419v652h-187v170h187zM431 652v-450h163q203 0 309.5 126.5t106.5 366.5v70q0 237 -103 362t-299 125h-177v-430h229v-170h-229z" />
    <glyph glyph-name="Ntilde" unicode="&#xd1;" horiz-adv-x="1454" 
d="M148 1456h253l651 -1037v1037h251v-1456h-253l-649 1033v-1033h-253v1456zM424 1747q63 75 158 75q57 0 137.5 -45t132.5 -45q38 0 65 28.5t27 75.5l149 -12q0 -110 -63.5 -183t-159.5 -73q-39 0 -67.5 8.5t-81 38.5t-74 36t-47.5 6q-38 0 -64.5 -28.5t-26.5 -74.5
l-149 8q0 110 64 185z" />
    <glyph glyph-name="Ograve" unicode="&#xd2;" horiz-adv-x="1414" 
d="M178 1140q75 163 212.5 249.5t315.5 86.5t315.5 -85.5t212.5 -246t76 -373.5v-81q0 -214 -74 -375.5t-211.5 -248t-316.5 -86.5q-177 0 -315.5 86.5t-214 246.5t-76.5 369v82q0 213 76 376zM449 319q93 -131 259 -131q168 0 258.5 128t90.5 374v76q0 242 -91.5 371
t-259.5 129q-164 0 -256.5 -128.5t-94.5 -363.5v-84q0 -240 94 -371zM363 1846h277l195 -303h-202z" />
    <glyph glyph-name="Oacute" unicode="&#xd3;" horiz-adv-x="1414" 
d="M102 764q0 213 75.5 376t213 249.5t315.5 86.5t315.5 -85.5t212.5 -246t76 -373.5v-81q0 -214 -74 -375.5t-211.5 -248t-316.5 -86.5q-177 0 -315.5 86.5t-214 246.5t-76.5 369v82zM449 319q93 -131 259 -131q168 0 258.5 128t90.5 374v76q0 242 -91.5 371t-259.5 129
q-164 0 -256.5 -128.5t-94.5 -363.5v-84q0 -240 94 -371zM585 1543l195 303h277l-277 -303h-195z" />
    <glyph glyph-name="Ocircumflex" unicode="&#xd4;" horiz-adv-x="1414" 
d="M102 682v82q0 213 75.5 376t213 249.5t315.5 86.5t315.5 -85.5t212.5 -246t76 -373.5v-81q0 -214 -74 -375.5t-211.5 -248t-316.5 -86.5q-177 0 -315.5 86.5t-214 246.5t-76.5 369zM355 774v-84q0 -240 93.5 -371t259.5 -131q168 0 258.5 128t90.5 374v76
q0 242 -91.5 371t-259.5 129q-164 0 -256.5 -128.5t-94.5 -363.5zM366 1558v13l271 276h143l273 -278v-11h-195l-150 156l-149 -156h-193z" />
    <glyph glyph-name="Otilde" unicode="&#xd5;" horiz-adv-x="1414" 
d="M102 764q0 213 75.5 376t213 249.5t315.5 86.5t315.5 -85.5t212.5 -246t76 -373.5v-81q0 -214 -74 -375.5t-211.5 -248t-316.5 -86.5q-177 0 -315.5 86.5t-214 246.5t-76.5 369v82zM355 690q0 -240 93.5 -371t259.5 -131q168 0 258.5 128t90.5 374v76q0 242 -91.5 371
t-259.5 129q-164 0 -256.5 -128.5t-94.5 -363.5v-84zM406 1747q63 75 158 75q57 0 137.5 -45t132.5 -45q38 0 65 28.5t27 75.5l149 -12q0 -110 -63.5 -183t-159.5 -73q-39 0 -67.5 8.5t-81 38.5t-74 36t-47.5 6q-38 0 -64.5 -28.5t-26.5 -74.5l-149 8q0 110 64 185z" />
    <glyph glyph-name="Odieresis" unicode="&#xd6;" horiz-adv-x="1414" 
d="M178 1140q75 163 212.5 249.5t315.5 86.5t315.5 -85.5t212.5 -246t76 -373.5v-81q0 -214 -74 -375.5t-211.5 -248t-316.5 -86.5q-177 0 -315.5 86.5t-214 246.5t-76.5 369v82q0 213 76 376zM449 319q93 -131 259 -131q168 0 258.5 128t90.5 374v76q0 242 -91.5 371
t-259.5 129q-164 0 -256.5 -128.5t-94.5 -363.5v-84q0 -240 94 -371zM811 1675q0 50 33.5 84t92.5 34t93 -34t34 -84t-34 -84t-93 -34t-92.5 34t-33.5 84zM388 1760q33 34 92 34t93 -34t34 -84t-34 -84t-93 -34t-92.5 34t-33.5 84t34 84z" />
    <glyph glyph-name="multiply" unicode="&#xd7;" horiz-adv-x="1092" 
d="M77 364l316 322l-316 322l148 150l315 -322l316 322l148 -150l-316 -322l316 -322l-148 -150l-316 321l-315 -321z" />
    <glyph glyph-name="Oslash" unicode="&#xd8;" horiz-adv-x="1412" 
d="M105 697v67q0 213 75 375t213 249.5t316 87.5q197 0 340 -101l87 143h167l-147 -243q157 -193 158 -510v-75q0 -214 -74 -375.5t-211.5 -248t-317.5 -86.5q-164 0 -296 75l-91 -150h-169l145 238q-195 195 -195 554zM429 355l502 826q-87 85 -222 85
q-164 0 -256.5 -128.5t-94.5 -363.5v-84q0 -207 71 -335zM711 188q169 0 259.5 128t90.5 374v76q0 166 -44 280l-489 -804q78 -54 183 -54z" />
    <glyph glyph-name="Ugrave" unicode="&#xd9;" horiz-adv-x="1335" 
d="M125 484v972h252v-974q0 -146 74 -223t218 -77q292 0 292 308v966h252v-973q0 -232 -148.5 -367.5t-395.5 -135.5q-250 0 -397 133.5t-147 370.5zM599 1846l195 -303h-202l-270 303h277z" />
    <glyph glyph-name="Uacute" unicode="&#xda;" horiz-adv-x="1335" 
d="M125 484v972h252v-974q0 -146 74 -223t218 -77q292 0 292 308v966h252v-973q0 -232 -148.5 -367.5t-395.5 -135.5q-250 0 -397 133.5t-147 370.5zM544 1543l195 303h277l-277 -303h-195z" />
    <glyph glyph-name="Ucircumflex" unicode="&#xdb;" horiz-adv-x="1335" 
d="M377 1456v-974q0 -146 74 -223t218 -77q292 0 292 308v966h252v-973q0 -232 -148.5 -367.5t-395.5 -135.5q-250 0 -397 133.5t-147 370.5v972h252zM596 1847h143l273 -278v-11h-195l-150 156l-149 -156h-193v13z" />
    <glyph glyph-name="Udieresis" unicode="&#xdc;" horiz-adv-x="1335" 
d="M125 1456h252v-974q0 -146 74 -223t218 -77q292 0 292 308v966h252v-973q0 -232 -148.5 -367.5t-395.5 -135.5q-250 0 -397 133.5t-147 370.5v972zM347 1760q33 34 92 34t93 -34t34 -84t-34 -84t-93 -34t-92.5 34t-33.5 84t34 84zM804 1759q33 34 92 34t93 -34t34 -84
t-34 -84t-93 -34t-92.5 34t-33.5 84t34 84z" />
    <glyph glyph-name="Yacute" unicode="&#xdd;" horiz-adv-x="1248" 
d="M7 1456h281l335 -690l335 690h280l-488 -920v-536h-254v536zM503 1543l195 303h277l-277 -303h-195z" />
    <glyph glyph-name="Thorn" unicode="&#xde;" horiz-adv-x="1226" 
d="M391 1456v-280h241q244 0 381 -119t137 -319q0 -199 -137 -318.5t-380 -119.5h-242v-300h-243v1456h243zM391 981v-486h246q125 0 197.5 65t72.5 176t-70 177t-192 68h-254z" />
    <glyph glyph-name="germandbls" unicode="&#xdf;" horiz-adv-x="1255" 
d="M378 0h-242v1105q0 214 114.5 333t320.5 119q187 0 294.5 -93.5t107.5 -262.5q0 -62 -13.5 -111t-48 -105.5t-45.5 -89t-11 -71.5q0 -44 32.5 -86t121.5 -116t129.5 -142.5t40.5 -143.5q0 -171 -108.5 -263.5t-306.5 -92.5q-80 0 -165.5 19.5t-123.5 44.5l49 195
q45 -28 108.5 -46.5t117.5 -18.5q97 0 142 43t45 110q0 49 -35 94.5t-122 113.5t-127.5 136t-40.5 148q0 88 63 188.5t63 177.5q0 81 -46 129.5t-126 48.5q-184 0 -188 -247v-1116z" />
    <glyph glyph-name="agrave" unicode="&#xe0;" horiz-adv-x="1108" 
d="M219 569q128 92 367 92h149v71q0 84 -47 134.5t-143 50.5q-83 0 -136 -41.5t-53 -105.5h-243q0 89 59 166.5t160.5 121.5t226.5 44q190 0 303 -95.5t116 -268.5v-488q0 -146 41 -233v-17h-248q-16 31 -28 101q-116 -121 -284 -121q-163 0 -266 93t-103 230q0 173 129 266
zM380 217q46 -42 124 -42q72 0 135.5 35t95.5 94v204h-131q-135 0 -203 -47t-68 -133q0 -70 47 -111zM499 1536l195 -303h-202l-270 303h277z" />
    <glyph glyph-name="aacute" unicode="&#xe1;" horiz-adv-x="1108" 
d="M90 303q0 173 128.5 265.5t367.5 92.5h149v71q0 84 -47 134.5t-143 50.5q-83 0 -136 -41.5t-53 -105.5h-243q0 89 59 166.5t160.5 121.5t226.5 44q190 0 303 -95.5t116 -268.5v-488q0 -146 41 -233v-17h-248q-16 31 -28 101q-116 -121 -284 -121q-163 0 -266 93t-103 230
zM333 328q0 -70 46.5 -111.5t124.5 -41.5q72 0 135.5 35t95.5 94v204h-131q-135 0 -203 -47t-68 -133zM639 1536h277l-277 -303h-195z" />
    <glyph glyph-name="acircumflex" unicode="&#xe2;" horiz-adv-x="1108" 
d="M219 569q128 92 367 92h149v71q0 84 -47 134.5t-143 50.5q-83 0 -136 -41.5t-53 -105.5h-243q0 89 59 166.5t160.5 121.5t226.5 44q190 0 303 -95.5t116 -268.5v-488q0 -146 41 -233v-17h-248q-16 31 -28 101q-116 -121 -284 -121q-163 0 -266 93t-103 230q0 173 129 266
zM380 217q46 -42 124 -42q72 0 135.5 35t95.5 94v204h-131q-135 0 -203 -47t-68 -133q0 -70 47 -111zM225 1261l271 276h143l273 -278v-11h-195l-150 156l-149 -156h-193v13z" />
    <glyph glyph-name="atilde" unicode="&#xe3;" horiz-adv-x="1108" 
d="M219 569q128 92 367 92h149v71q0 84 -47 134.5t-143 50.5q-83 0 -136 -41.5t-53 -105.5h-243q0 89 59 166.5t160.5 121.5t226.5 44q190 0 303 -95.5t116 -268.5v-488q0 -146 41 -233v-17h-248q-16 31 -28 101q-116 -121 -284 -121q-163 0 -266 93t-103 230q0 173 129 266
zM201 1252q0 110 63.5 185t158.5 75q57 0 137.5 -45t132.5 -45q38 0 65 28.5t27 75.5l149 -12q0 -110 -63.5 -183t-159.5 -73q-39 0 -67.5 8.5t-81 38.5t-74 36t-47.5 6q-38 0 -64.5 -28.5t-26.5 -74.5zM333 328q0 -70 46.5 -111.5t124.5 -41.5q72 0 135.5 35t95.5 94v204
h-131q-135 0 -203 -47t-68 -133z" />
    <glyph glyph-name="adieresis" unicode="&#xe4;" horiz-adv-x="1108" 
d="M219 569q128 92 367 92h149v71q0 84 -47 134.5t-143 50.5q-83 0 -136 -41.5t-53 -105.5h-243q0 89 59 166.5t160.5 121.5t226.5 44q190 0 303 -95.5t116 -268.5v-488q0 -146 41 -233v-17h-248q-16 31 -28 101q-116 -121 -284 -121q-163 0 -266 93t-103 230q0 173 129 266
zM380 217q46 -42 124 -42q72 0 135.5 35t95.5 94v204h-131q-135 0 -203 -47t-68 -133q0 -70 47 -111zM247 1450q33 34 92 34t93 -34t34 -84t-34 -84t-93 -34t-92.5 34t-33.5 84t34 84zM704 1449q33 34 92 34t93 -34t34 -84t-34 -84t-93 -34t-92.5 34t-33.5 84t34 84z" />
    <glyph glyph-name="aring" unicode="&#xe5;" horiz-adv-x="1108" 
d="M90 303q0 173 128.5 265.5t367.5 92.5h149v71q0 84 -47 134.5t-143 50.5q-83 0 -136 -41.5t-53 -105.5h-243q0 89 59 166.5t160.5 121.5t226.5 44q190 0 303 -95.5t116 -268.5v-488q0 -146 41 -233v-17h-248q-16 31 -28 101q-116 -121 -284 -121q-163 0 -266 93t-103 230
zM346 1422q0 85 63.5 146.5t158.5 61.5q93 0 157 -61.5t64 -146.5t-62.5 -145t-158.5 -60q-97 0 -159.5 60t-62.5 145zM333 328q0 -70 46.5 -111.5t124.5 -41.5q72 0 135.5 35t95.5 94v204h-131q-135 0 -203 -47t-68 -133zM456 1422q0 -47 33 -79.5t79 -32.5q47 0 79.5 32
t32.5 80q0 46 -31.5 79.5t-80.5 33.5t-80.5 -33.5t-31.5 -79.5z" />
    <glyph glyph-name="ae" unicode="&#xe6;" horiz-adv-x="1729" 
d="M72 312q0 158 119 244t352 86h191v71q0 91 -47.5 142.5t-135.5 51.5q-91 0 -148.5 -44.5t-57.5 -110.5l-242 19q0 146 126.5 238.5t323.5 92.5q223 0 334 -133q129 133 325 133h6q212 0 331 -129.5t119 -364.5v-137h-695q9 -139 85 -218t210 -79q137 0 244 58l61 34
l73 -166q-70 -56 -174.5 -88t-217.5 -32q-253 0 -393 161q-65 -77 -172 -119t-241 -42q-176 0 -276 88t-100 244zM314 308q0 -65 46.5 -104.5t134.5 -39.5q58 0 126 29.5t113 72.5v209h-196q-104 -2 -164 -49.5t-60 -117.5zM976 642h452v30q0 113 -54.5 174t-155.5 61
q-99 0 -162.5 -69t-79.5 -196z" />
    <glyph glyph-name="ccedilla" unicode="&#xe7;" horiz-adv-x="1072" 
d="M79 558q0 247 132 395.5t360 148.5q193 0 314.5 -112.5t127.5 -295.5h-229q-4 93 -63.5 153t-151.5 60q-118 0 -182 -85.5t-65 -259.5v-39q0 -176 63.5 -262.5t183.5 -86.5q91 0 151 53t64 131h229q-4 -101 -63 -188.5t-160 -138.5q-75 -38 -158 -48l-8 -39
q150 -27 150 -173q0 -105 -86 -164t-241 -59l-7 137q66 0 101.5 23.5t35.5 65.5q0 45 -35.5 62.5t-115.5 22.5l30 132q-147 29 -244 136q-133 147 -133 406v25z" />
    <glyph glyph-name="egrave" unicode="&#xe8;" horiz-adv-x="1099" 
d="M83 513v30q0 162 62.5 289.5t175.5 198.5t252 71q221 0 341.5 -141t120.5 -399v-98h-707q11 -134 89.5 -212t197.5 -78q167 0 272 135l131 -125q-65 -97 -173.5 -150.5t-243.5 -53.5q-231 0 -374.5 145.5t-143.5 387.5zM795 642v18q-8 122 -65 184.5t-158 62.5
q-100 0 -161.5 -70t-78.5 -195h463zM210 1536h277l195 -303h-202z" />
    <glyph glyph-name="eacute" unicode="&#xe9;" horiz-adv-x="1099" 
d="M83 513v30q0 162 62.5 289.5t175.5 198.5t252 71q221 0 341.5 -141t120.5 -399v-98h-707q11 -134 89.5 -212t197.5 -78q167 0 272 135l131 -125q-65 -97 -173.5 -150.5t-243.5 -53.5q-231 0 -374.5 145.5t-143.5 387.5zM795 642v18q-8 122 -65 184.5t-158 62.5
q-100 0 -161.5 -70t-78.5 -195h463zM432 1233l195 303h277l-277 -303h-195z" />
    <glyph glyph-name="ecircumflex" unicode="&#xea;" horiz-adv-x="1099" 
d="M83 513v30q0 162 62.5 289.5t175.5 198.5t252 71q221 0 341.5 -141t120.5 -399v-98h-707q11 -134 89.5 -212t197.5 -78q167 0 272 135l131 -125q-65 -97 -173.5 -150.5t-243.5 -53.5q-231 0 -374.5 145.5t-143.5 387.5zM795 642v18q-8 122 -65 184.5t-158 62.5
q-100 0 -161.5 -70t-78.5 -195h463zM213 1248v13l271 276h143l273 -278v-11h-195l-150 156l-149 -156h-193z" />
    <glyph glyph-name="edieresis" unicode="&#xeb;" horiz-adv-x="1099" 
d="M83 543q0 162 62.5 289.5t175.5 198.5t252 71q221 0 341.5 -141t120.5 -399v-98h-707q11 -134 89.5 -212t197.5 -78q167 0 272 135l131 -125q-65 -97 -173.5 -150.5t-243.5 -53.5q-231 0 -374.5 145.5t-143.5 387.5v30zM795 642v18q-8 122 -65 184.5t-158 62.5
q-100 0 -161.5 -70t-78.5 -195h463zM235 1450q33 34 92 34t93 -34t34 -84t-34 -84t-93 -34t-92.5 34t-33.5 84t34 84zM658 1365q0 50 33.5 84t92.5 34t93 -34t34 -84t-34 -84t-93 -34t-92.5 34t-33.5 84z" />
    <glyph glyph-name="igrave" unicode="&#xec;" horiz-adv-x="538" 
d="M386 0h-243v1082h243v-1082zM396 1226h-202l-270 303h277z" />
    <glyph glyph-name="iacute" unicode="&#xed;" horiz-adv-x="538" 
d="M386 0h-243v1082h243v-1082zM340 1529h277l-277 -303h-195z" />
    <glyph glyph-name="icircumflex" unicode="&#xee;" horiz-adv-x="538" 
d="M143 0v1082h243v-1082h-243zM198 1530h143l273 -278v-11h-195l-150 156l-149 -156h-193v13z" />
    <glyph glyph-name="idieresis" unicode="&#xef;" horiz-adv-x="538" 
d="M143 0v1082h243v-1082h-243zM-52 1443q34 34 93 34t93 -34t34 -84t-34 -84t-93 -34t-92.5 34t-33.5 84t33 84zM406 1442q33 34 92 34t93 -34t34 -84t-34 -84t-93 -34t-92.5 34t-33.5 84t34 84z" />
    <glyph glyph-name="eth" unicode="&#xf0;" horiz-adv-x="1191" 
d="M834 1303q254 -265 254 -666v-82q0 -166 -63 -297.5t-177.5 -204.5t-254.5 -73q-138 0 -251 63t-176 176t-63 249q0 149 56.5 264.5t159.5 178t235 62.5q146 0 259 -91q-49 169 -175 291l-204 -135l-78 109l172 114q-126 82 -288 124l75 195q238 -50 415 -185l180 120
l78 -109zM845 663l-1 18q-32 48 -93.5 76t-139.5 28q-126 0 -195.5 -84t-69.5 -233q0 -126 70.5 -210t180.5 -84q111 0 179.5 100t68.5 273v116z" />
    <glyph glyph-name="ntilde" unicode="&#xf1;" horiz-adv-x="1139" 
d="M121 1082h229l7 -125q120 145 315 145q338 0 344 -387v-715h-243v701q0 103 -44.5 152.5t-145.5 49.5q-147 0 -219 -133v-770h-243v1082zM271 1437q63 75 158 75q57 0 137.5 -45t132.5 -45q38 0 65 28.5t27 75.5l149 -12q0 -110 -63.5 -183t-159.5 -73q-39 0 -67.5 8.5
t-81 38.5t-74 36t-47.5 6q-38 0 -64.5 -28.5t-26.5 -74.5l-149 8q0 110 64 185z" />
    <glyph glyph-name="ograve" unicode="&#xf2;" horiz-adv-x="1166" 
d="M79 539v12q0 159 63 286.5t177 196t262 68.5q219 0 355.5 -141t147.5 -374l1 -57q0 -160 -61.5 -286t-176 -195t-264.5 -69q-229 0 -366.5 152.5t-137.5 406.5zM391 269q69 -95 192 -95t191.5 96t68.5 281q0 164 -70.5 260t-191.5 96q-119 0 -189 -94.5t-70 -282.5
q0 -167 69 -261zM508 1536l195 -303h-202l-270 303h277z" />
    <glyph glyph-name="oacute" unicode="&#xf3;" horiz-adv-x="1166" 
d="M79 551q0 159 63 286.5t177 196t262 68.5q219 0 355.5 -141t147.5 -374l1 -57q0 -160 -61.5 -286t-176 -195t-264.5 -69q-229 0 -366.5 152.5t-137.5 406.5v12zM322 530q0 -167 69 -261.5t192 -94.5t191.5 96t68.5 281q0 164 -70.5 260t-191.5 96q-119 0 -189 -94.5
t-70 -282.5zM453 1233l195 303h277l-277 -303h-195z" />
    <glyph glyph-name="ocircumflex" unicode="&#xf4;" horiz-adv-x="1166" 
d="M79 539v12q0 159 63 286.5t177 196t262 68.5q219 0 355.5 -141t147.5 -374l1 -57q0 -160 -61.5 -286t-176 -195t-264.5 -69q-229 0 -366.5 152.5t-137.5 406.5zM322 530q0 -167 69 -261.5t192 -94.5t191.5 96t68.5 281q0 164 -70.5 260t-191.5 96q-119 0 -189 -94.5
t-70 -282.5zM505 1537h143l273 -278v-11h-195l-150 156l-149 -156h-193v13z" />
    <glyph glyph-name="otilde" unicode="&#xf5;" horiz-adv-x="1166" 
d="M79 551q0 159 63 286.5t177 196t262 68.5q219 0 355.5 -141t147.5 -374l1 -57q0 -160 -61.5 -286t-176 -195t-264.5 -69q-229 0 -366.5 152.5t-137.5 406.5v12zM322 530q0 -167 69 -261.5t192 -94.5t191.5 96t68.5 281q0 164 -70.5 260t-191.5 96q-119 0 -189 -94.5
t-70 -282.5zM210 1252q0 110 63.5 185t158.5 75q57 0 137.5 -45t132.5 -45q38 0 65 28.5t27 75.5l149 -12q0 -110 -63.5 -183t-159.5 -73q-39 0 -67.5 8.5t-81 38.5t-74 36t-47.5 6q-38 0 -64.5 -28.5t-26.5 -74.5z" />
    <glyph glyph-name="odieresis" unicode="&#xf6;" horiz-adv-x="1166" 
d="M79 539v12q0 159 63 286.5t177 196t262 68.5q219 0 355.5 -141t147.5 -374l1 -57q0 -160 -61.5 -286t-176 -195t-264.5 -69q-229 0 -366.5 152.5t-137.5 406.5zM322 530q0 -167 69 -261.5t192 -94.5t191.5 96t68.5 281q0 164 -70.5 260t-191.5 96q-119 0 -189 -94.5
t-70 -282.5zM713 1449q33 34 92 34t93 -34t34 -84t-34 -84t-93 -34t-92.5 34t-33.5 84t34 84zM256 1450q33 34 92 34t93 -34t34 -84t-34 -84t-93 -34t-92.5 34t-33.5 84t34 84z" />
    <glyph glyph-name="divide" unicode="&#xf7;" horiz-adv-x="1169" 
d="M1079 582h-1012v212h1012v-212zM576 1228q68 0 105 -38t37 -95t-37 -94.5t-105 -37.5q-67 0 -104 37.5t-37 94.5t37 95t104 38zM435 278q0 58 37 96t104 38q68 0 105 -38t37 -96q0 -57 -37 -94t-105 -37q-67 0 -104 37t-37 94z" />
    <glyph glyph-name="oslash" unicode="&#xf8;" horiz-adv-x="1160" 
d="M79 551q0 159 63 286.5t177 196t262 68.5q106 0 194 -34l71 143h145l-102 -208q196 -153 196 -473q0 -160 -61.5 -286t-176 -195t-264.5 -69q-93 0 -183 30l-72 -147h-145l102 207q-206 150 -206 481zM386 276l299 609q-47 22 -104 22q-119 0 -189 -94.5t-70 -282.5
q0 -156 64 -254zM583 174q123 0 191.5 96t68.5 281q0 148 -58 241l-296 -601q43 -17 94 -17z" />
    <glyph glyph-name="ugrave" unicode="&#xf9;" horiz-adv-x="1138" 
d="M119 1082h243v-698q0 -206 171 -206q177 0 239 127v777h243v-1082h-229l-6 106q-107 -126 -304 -126q-176 0 -266.5 103t-90.5 298v701zM501 1536l195 -303h-202l-270 303h277z" />
    <glyph glyph-name="uacute" unicode="&#xfa;" horiz-adv-x="1138" 
d="M119 1082h243v-698q0 -206 171 -206q177 0 239 127v777h243v-1082h-229l-6 106q-107 -126 -304 -126q-176 0 -266.5 103t-90.5 298v701zM446 1233l195 303h277l-277 -303h-195z" />
    <glyph glyph-name="ucircumflex" unicode="&#xfb;" horiz-adv-x="1138" 
d="M362 1082v-698q0 -206 171 -206q177 0 239 127v777h243v-1082h-229l-6 106q-107 -126 -304 -126q-176 0 -266.5 103t-90.5 298v701h243zM227 1261l271 276h143l273 -278v-11h-195l-150 156l-149 -156h-193v13z" />
    <glyph glyph-name="udieresis" unicode="&#xfc;" horiz-adv-x="1138" 
d="M119 1082h243v-698q0 -206 171 -206q177 0 239 127v777h243v-1082h-229l-6 106q-107 -126 -304 -126q-176 0 -266.5 103t-90.5 298v701zM249 1450q33 34 92 34t93 -34t34 -84t-34 -84t-93 -34t-92.5 34t-33.5 84t34 84zM672 1365q0 50 33.5 84t92.5 34t93 -34t34 -84
t-34 -84t-93 -34t-92.5 34t-33.5 84z" />
    <glyph glyph-name="yacute" unicode="&#xfd;" horiz-adv-x="997" 
d="M12 1082h262l229 -734l220 734h259l-430 -1246q-99 -273 -336 -273q-53 0 -117 18v188l46 -3q92 0 138.5 33.5t73.5 112.5l35 93zM390 1233l195 303h277l-277 -303h-195z" />
    <glyph glyph-name="thorn" unicode="&#xfe;" horiz-adv-x="1175" 
d="M1079 530q0 -247 -113.5 -398.5t-307.5 -151.5q-178 0 -285 117v-513h-243v1952h243v-553q106 119 282 119q197 0 310.5 -147t113.5 -409v-16zM836 551q0 166 -65.5 259t-183.5 93q-149 0 -214 -123v-480q66 -126 216 -126q116 0 181.5 93.5t65.5 283.5z" />
    <glyph glyph-name="ydieresis" unicode="&#xff;" horiz-adv-x="997" 
d="M12 1082h262l229 -734l220 734h259l-430 -1246q-99 -273 -336 -273q-53 0 -117 18v188l46 -3q92 0 138.5 33.5t73.5 112.5l35 93zM193 1450q33 34 92 34t93 -34t34 -84t-34 -84t-93 -34t-92.5 34t-33.5 84t34 84zM616 1365q0 50 33.5 84t92.5 34t93 -34t34 -84t-34 -84
t-93 -34t-92.5 34t-33.5 84z" />
    <glyph glyph-name="Amacron" unicode="&#x100;" horiz-adv-x="1363" 
d="M18 0l550 1456h227l551 -1456h-264l-119 339h-564l-118 -339h-263zM470 543h422l-211 604zM345 1606v158h687v-158h-687z" />
    <glyph glyph-name="amacron" unicode="&#x101;" horiz-adv-x="1108" 
d="M219 569q128 92 367 92h149v71q0 84 -47 134.5t-143 50.5q-83 0 -136 -41.5t-53 -105.5h-243q0 89 59 166.5t160.5 121.5t226.5 44q190 0 303 -95.5t116 -268.5v-488q0 -146 41 -233v-17h-248q-16 31 -28 101q-116 -121 -284 -121q-163 0 -266 93t-103 230q0 173 129 266
zM380 217q46 -42 124 -42q72 0 135.5 35t95.5 94v204h-131q-135 0 -203 -47t-68 -133q0 -70 47 -111zM227 1454h687v-158h-687v158z" />
    <glyph glyph-name="Abreve" unicode="&#x102;" horiz-adv-x="1363" 
d="M18 0l550 1456h227l551 -1456h-264l-119 339h-564l-118 -339h-263zM892 543l-211 604l-211 -604h422zM363 1820h182q0 -66 37.5 -102.5t103.5 -36.5t103 36.5t37 102.5h183q0 -126 -88 -204t-235 -78t-235 78t-88 204z" />
    <glyph glyph-name="abreve" unicode="&#x103;" horiz-adv-x="1108" 
d="M219 569q128 92 367 92h149v71q0 84 -47 134.5t-143 50.5q-83 0 -136 -41.5t-53 -105.5h-243q0 89 59 166.5t160.5 121.5t226.5 44q190 0 303 -95.5t116 -268.5v-488q0 -146 41 -233v-17h-248q-16 31 -28 101q-116 -121 -284 -121q-163 0 -266 93t-103 230q0 173 129 266
zM245 1510h182q0 -66 37.5 -102.5t103.5 -36.5t103 36.5t37 102.5h183q0 -126 -88 -204t-235 -78t-235 78t-88 204zM333 328q0 -70 46.5 -111.5t124.5 -41.5q72 0 135.5 35t95.5 94v204h-131q-135 0 -203 -47t-68 -133z" />
    <glyph glyph-name="Aogonek" unicode="&#x104;" horiz-adv-x="1363" 
d="M568 1456h227l551 -1456h-62q-87 -56 -124 -103t-37 -96q0 -68 71 -68q44 0 90 23l21 -142q-73 -44 -165 -44q-95 0 -153 55t-58 146q0 141 149 239l-115 329h-564l-118 -339h-263zM892 543l-211 604l-211 -604h422z" />
    <glyph glyph-name="aogonek" unicode="&#x105;" horiz-adv-x="1108" 
d="M219 569q128 92 367 92h149v71q0 84 -47 134.5t-143 50.5q-83 0 -136 -41.5t-53 -105.5h-243q0 89 59 166.5t160.5 121.5t226.5 44q190 0 303 -95.5t116 -268.5v-488q0 -146 41 -233v-17h-42q-87 -56 -124 -103t-37 -96q0 -68 71 -68q44 0 90 23l21 -142
q-73 -44 -165 -44q-95 0 -153 55t-58 146q0 140 145 236q-11 25 -24 94q-116 -121 -284 -121q-163 0 -266 93t-103 230q0 173 129 266zM333 328q0 -70 46.5 -111.5t124.5 -41.5q72 0 135.5 35t95.5 94v204h-131q-135 0 -203 -47t-68 -133z" />
    <glyph glyph-name="Cacute" unicode="&#x106;" horiz-adv-x="1337" 
d="M175 1149q73 157 209.5 242t315.5 85q241 0 388 -131t171 -370h-252q-18 157 -91.5 226.5t-215.5 69.5q-165 0 -253.5 -120.5t-90.5 -353.5v-129q0 -236 84.5 -360t247.5 -124q149 0 224 67t95 223h252q-22 -233 -172 -363.5t-399 -130.5q-174 0 -306.5 82.5
t-204.5 234.5t-75 353v136q0 206 73 363zM560 1564l195 303h277l-277 -303h-195z" />
    <glyph glyph-name="cacute" unicode="&#x107;" horiz-adv-x="1072" 
d="M79 533v25q0 247 132 395.5t360 148.5q193 0 314.5 -112.5t127.5 -295.5h-229q-4 93 -63.5 153t-151.5 60q-118 0 -182 -85.5t-65 -259.5v-39q0 -176 63.5 -262.5t183.5 -86.5q91 0 151 53t64 131h229q-4 -101 -63 -188.5t-160 -138.5t-218 -51q-227 0 -360 147t-133 406
zM409 1233l195 303h277l-277 -303h-195z" />
    <glyph glyph-name="Ccircumflex" unicode="&#x108;" horiz-adv-x="1337" 
d="M102 786q0 206 73 363t209.5 242t315.5 85q241 0 388 -131t171 -370h-252q-18 157 -91.5 226.5t-215.5 69.5q-165 0 -253.5 -120.5t-90.5 -353.5v-129q0 -236 84.5 -360t247.5 -124q149 0 224 67t95 223h252q-22 -233 -172 -363.5t-399 -130.5q-174 0 -306.5 82.5
t-204.5 234.5t-75 353v136zM612 1868h143l273 -278v-11h-195l-150 156l-149 -156h-193v13z" />
    <glyph glyph-name="ccircumflex" unicode="&#x109;" horiz-adv-x="1072" 
d="M79 533v25q0 247 132 395.5t360 148.5q193 0 314.5 -112.5t127.5 -295.5h-229q-4 93 -63.5 153t-151.5 60q-118 0 -182 -85.5t-65 -259.5v-39q0 -176 63.5 -262.5t183.5 -86.5q91 0 151 53t64 131h229q-4 -101 -63 -188.5t-160 -138.5t-218 -51q-227 0 -360 147t-133 406
zM190 1261l271 276h143l273 -278v-11h-195l-150 156l-149 -156h-193v13z" />
    <glyph glyph-name="Cdotaccent" unicode="&#x10a;" horiz-adv-x="1337" 
d="M102 786q0 206 73 363t209.5 242t315.5 85q241 0 388 -131t171 -370h-252q-18 157 -91.5 226.5t-215.5 69.5q-165 0 -253.5 -120.5t-90.5 -353.5v-129q0 -236 84.5 -360t247.5 -124q149 0 224 67t95 223h252q-22 -233 -172 -363.5t-399 -130.5q-174 0 -306.5 82.5
t-204.5 234.5t-75 353v136zM586 1798q34 35 97 35t97 -35.5t34 -88.5q0 -52 -34 -87t-97 -35t-97 35t-34 87q0 53 34 89z" />
    <glyph glyph-name="cdotaccent" unicode="&#x10b;" horiz-adv-x="1072" 
d="M79 533v25q0 247 132 395.5t360 148.5q193 0 314.5 -112.5t127.5 -295.5h-229q-4 93 -63.5 153t-151.5 60q-118 0 -182 -85.5t-65 -259.5v-39q0 -176 63.5 -262.5t183.5 -86.5q91 0 151 53t64 131h229q-4 -101 -63 -188.5t-160 -138.5t-218 -51q-227 0 -360 147t-133 406
zM401 1378q0 53 34 88.5t97 35.5t97 -35.5t34 -88.5q0 -52 -34 -87t-97 -35t-97 35t-34 87z" />
    <glyph glyph-name="Ccaron" unicode="&#x10c;" horiz-adv-x="1337" 
d="M102 786q0 206 73 363t209.5 242t315.5 85q241 0 388 -131t171 -370h-252q-18 157 -91.5 226.5t-215.5 69.5q-165 0 -253.5 -120.5t-90.5 -353.5v-129q0 -236 84.5 -360t247.5 -124q149 0 224 67t95 223h252q-22 -233 -172 -363.5t-399 -130.5q-174 0 -306.5 82.5
t-204.5 234.5t-75 353v136zM536 1868l146 -155l146 155h208v-10l-279 -279h-150l-277 280v9h206z" />
    <glyph glyph-name="ccaron" unicode="&#x10d;" horiz-adv-x="1072" 
d="M79 533v25q0 247 132 395.5t360 148.5q193 0 314.5 -112.5t127.5 -295.5h-229q-4 93 -63.5 153t-151.5 60q-118 0 -182 -85.5t-65 -259.5v-39q0 -176 63.5 -262.5t183.5 -86.5q91 0 151 53t64 131h229q-4 -101 -63 -188.5t-160 -138.5t-218 -51q-227 0 -360 147t-133 406
zM179 1537h206l146 -155l146 155h208v-10l-279 -279h-150l-277 280v9z" />
    <glyph glyph-name="Dcaron" unicode="&#x10e;" horiz-adv-x="1338" 
d="M578 1456q193 0 342.5 -86t231.5 -244t82 -362v-73q0 -207 -82.5 -364t-235 -242t-349.5 -85h-419v1456h430zM401 202h165q199 0 305.5 124.5t108.5 357.5v81q0 237 -103 362t-299 125h-177v-1050zM217 1854h206l146 -155l146 155h208v-10l-279 -279h-150l-277 280v9z
" />
    <glyph glyph-name="dcaron" unicode="&#x10f;" horiz-adv-x="1306" 
d="M79 549q0 250 116 401.5t311 151.5q172 0 278 -120v554h243v-1536h-220l-12 112q-109 -132 -291 -132q-190 0 -307.5 153t-117.5 416zM322 528q0 -165 63.5 -257.5t180.5 -92.5q149 0 218 133v462q-67 130 -216 130q-118 0 -182 -93.5t-64 -281.5zM1094 1200
q73 115 76 238v100h201v-79q-1 -93 -42.5 -186t-106.5 -150z" />
    <glyph glyph-name="Dcroat" unicode="&#x110;" horiz-adv-x="1368" 
d="M178 822v634h430q193 0 342.5 -86t231.5 -244t82 -362v-73q0 -207 -82.5 -364t-235 -242t-349.5 -85h-419v652h-187v170h187zM431 652v-450h163q203 0 309.5 126.5t106.5 366.5v70q0 237 -103 362t-299 125h-177v-430h229v-170h-229z" />
    <glyph glyph-name="dcroat" unicode="&#x111;" horiz-adv-x="1261" 
d="M79 549q0 250 116 401.5t311 151.5q172 0 278 -120v242h-251v170h251v142h243v-142h175v-170h-175v-1224h-220l-12 112q-109 -132 -291 -132q-190 0 -307.5 153t-117.5 416zM386 271q63 -93 180 -93q149 0 218 133v462q-67 130 -216 130q-118 0 -182 -93.5t-64 -281.5
q0 -165 64 -257z" />
    <glyph glyph-name="Emacron" unicode="&#x112;" horiz-adv-x="1158" 
d="M148 0v1456h945v-204h-692v-402h598v-200h-598v-448h699v-202h-952zM286 1771h687v-158h-687v158z" />
    <glyph glyph-name="emacron" unicode="&#x113;" horiz-adv-x="1099" 
d="M83 513v30q0 162 62.5 289.5t175.5 198.5t252 71q221 0 341.5 -141t120.5 -399v-98h-707q11 -134 89.5 -212t197.5 -78q167 0 272 135l131 -125q-65 -97 -173.5 -150.5t-243.5 -53.5q-231 0 -374.5 145.5t-143.5 387.5zM215 1296v158h687v-158h-687zM795 642v18
q-8 122 -65 184.5t-158 62.5q-100 0 -161.5 -70t-78.5 -195h463z" />
    <glyph glyph-name="Ebreve" unicode="&#x114;" horiz-adv-x="1158" 
d="M148 1456h945v-204h-692v-402h598v-200h-598v-448h699v-202h-952v1456zM304 1827h182q0 -66 37.5 -102.5t103.5 -36.5t103 36.5t37 102.5h183q0 -126 -88 -204t-235 -78t-235 78t-88 204z" />
    <glyph glyph-name="ebreve" unicode="&#x115;" horiz-adv-x="1099" 
d="M83 513v30q0 162 62.5 289.5t175.5 198.5t252 71q221 0 341.5 -141t120.5 -399v-98h-707q11 -134 89.5 -212t197.5 -78q167 0 272 135l131 -125q-65 -97 -173.5 -150.5t-243.5 -53.5q-231 0 -374.5 145.5t-143.5 387.5zM415 1510q0 -66 37.5 -102.5t103.5 -36.5t103 36.5
t37 102.5h183q0 -126 -88 -204t-235 -78t-235 78t-88 204h182zM332 642h463v18q-8 122 -65 184.5t-158 62.5q-100 0 -161.5 -70t-78.5 -195z" />
    <glyph glyph-name="Edotaccent" unicode="&#x116;" horiz-adv-x="1158" 
d="M1093 1456v-204h-692v-402h598v-200h-598v-448h699v-202h-952v1456h945zM529 1784q34 35 97 35t97 -35.5t34 -88.5q0 -52 -34 -87t-97 -35t-97 35t-34 87q0 53 34 89z" />
    <glyph glyph-name="edotaccent" unicode="&#x117;" horiz-adv-x="1099" 
d="M83 513v30q0 162 62.5 289.5t175.5 198.5t252 71q221 0 341.5 -141t120.5 -399v-98h-707q11 -134 89.5 -212t197.5 -78q167 0 272 135l131 -125q-65 -97 -173.5 -150.5t-243.5 -53.5q-231 0 -374.5 145.5t-143.5 387.5zM332 642h463v18q-8 122 -65 184.5t-158 62.5
q-100 0 -161.5 -70t-78.5 -195zM424 1378q0 53 34 88.5t97 35.5t97 -35.5t34 -88.5q0 -52 -34 -87t-97 -35t-97 35t-34 87z" />
    <glyph glyph-name="Eogonek" unicode="&#x118;" horiz-adv-x="1158" 
d="M1093 1456v-204h-692v-402h598v-200h-598v-448h699v-202h-111q-87 -56 -124 -103t-37 -96q0 -68 71 -68q44 0 90 23l21 -142q-73 -44 -165 -44q-95 0 -153 55t-58 146q0 134 135 229h-621v1456h945z" />
    <glyph glyph-name="eogonek" unicode="&#x119;" horiz-adv-x="1099" 
d="M83 543q0 162 62.5 289.5t175.5 198.5t252 71q221 0 341.5 -141t120.5 -399v-98h-707q11 -134 89.5 -212t197.5 -78q167 0 272 135l131 -125q-73 -106 -186 -157q-87 -56 -124 -103t-37 -96q0 -68 71 -68q44 0 90 23l21 -142q-73 -44 -165 -44q-95 0 -153 55t-58 146
q0 102 80 184q-207 13 -337.5 150.5t-136.5 352.5v58zM795 642v18q-8 122 -65 184.5t-158 62.5q-100 0 -161.5 -70t-78.5 -195h463z" />
    <glyph glyph-name="Ecaron" unicode="&#x11a;" horiz-adv-x="1158" 
d="M148 1456h945v-204h-692v-402h598v-200h-598v-448h699v-202h-952v1456zM273 1854h206l146 -155l146 155h208v-10l-279 -279h-150l-277 280v9z" />
    <glyph glyph-name="ecaron" unicode="&#x11b;" horiz-adv-x="1099" 
d="M83 513v30q0 162 62.5 289.5t175.5 198.5t252 71q221 0 341.5 -141t120.5 -399v-98h-707q11 -134 89.5 -212t197.5 -78q167 0 272 135l131 -125q-65 -97 -173.5 -150.5t-243.5 -53.5q-231 0 -374.5 145.5t-143.5 387.5zM202 1537h206l146 -155l146 155h208v-10l-279 -279
h-150l-277 280v9zM332 642h463v18q-8 122 -65 184.5t-158 62.5q-100 0 -161.5 -70t-78.5 -195z" />
    <glyph glyph-name="Gcircumflex" unicode="&#x11c;" horiz-adv-x="1394" 
d="M264 1291q158 185 441 185q243 0 386 -120t172 -346h-248q-42 263 -305 263q-170 0 -258.5 -122.5t-91.5 -359.5v-112q0 -236 99.5 -366.5t276.5 -130.5q194 0 276 88v285h-300v192h552v-558q-79 -103 -219 -156t-318 -53q-183 0 -324 83t-217.5 237.5t-79.5 360.5v114
q0 330 158 516zM609 1868h143l273 -278v-11h-195l-150 156l-149 -156h-193v13z" />
    <glyph glyph-name="gcircumflex" unicode="&#x11d;" horiz-adv-x="1161" 
d="M201 952q118 150 314 150q185 0 291 -129l11 109h219v-1049q0 -213 -132.5 -336t-357.5 -123q-119 0 -232.5 49.5t-172.5 129.5l115 146q112 -133 276 -133q121 0 191 65.5t70 192.5v73q-105 -117 -280 -117q-190 0 -310.5 151t-120.5 418q0 252 119 403zM324 528
q0 -163 66.5 -256.5t184.5 -93.5q147 0 218 126v476q-69 123 -216 123q-120 0 -186.5 -95t-66.5 -280zM212 1248v13l271 276h143l273 -278v-11h-195l-150 156l-149 -156h-193z" />
    <glyph glyph-name="Gbreve" unicode="&#x11e;" horiz-adv-x="1394" 
d="M106 775q0 330 158 515.5t441 185.5q243 0 386 -120t172 -346h-248q-42 263 -305 263q-170 0 -258.5 -122.5t-91.5 -359.5v-112q0 -236 99.5 -366.5t276.5 -130.5q194 0 276 88v285h-300v192h552v-558q-79 -103 -219 -156t-318 -53q-183 0 -324 83t-217.5 237.5
t-79.5 360.5v114zM358 1841h182q0 -66 37.5 -102.5t103.5 -36.5t103 36.5t37 102.5h183q0 -126 -88 -204t-235 -78t-235 78t-88 204z" />
    <glyph glyph-name="gbreve" unicode="&#x11f;" horiz-adv-x="1161" 
d="M82 549q0 252 118.5 402.5t314.5 150.5q185 0 291 -129l11 109h219v-1049q0 -213 -132.5 -336t-357.5 -123q-119 0 -232.5 49.5t-172.5 129.5l115 146q112 -133 276 -133q121 0 191 65.5t70 192.5v73q-105 -117 -280 -117q-190 0 -310.5 151t-120.5 418zM391 272
q66 -94 184 -94q147 0 218 126v476q-69 123 -216 123q-120 0 -186.5 -95t-66.5 -280q0 -163 67 -256zM414 1510q0 -66 37.5 -102.5t103.5 -36.5t103 36.5t37 102.5h183q0 -126 -88 -204t-235 -78t-235 78t-88 204h182z" />
    <glyph glyph-name="Gdotaccent" unicode="&#x120;" horiz-adv-x="1394" 
d="M264 1291q158 185 441 185q243 0 386 -120t172 -346h-248q-42 263 -305 263q-170 0 -258.5 -122.5t-91.5 -359.5v-112q0 -236 99.5 -366.5t276.5 -130.5q194 0 276 88v285h-300v192h552v-558q-79 -103 -219 -156t-318 -53q-183 0 -324 83t-217.5 237.5t-79.5 360.5v114
q0 330 158 516zM549 1709q0 53 34 88.5t97 35.5t97 -35.5t34 -88.5q0 -52 -34 -87t-97 -35t-97 35t-34 87z" />
    <glyph glyph-name="gdotaccent" unicode="&#x121;" horiz-adv-x="1161" 
d="M82 549q0 252 118.5 402.5t314.5 150.5q185 0 291 -129l11 109h219v-1049q0 -213 -132.5 -336t-357.5 -123q-119 0 -232.5 49.5t-172.5 129.5l115 146q112 -133 276 -133q121 0 191 65.5t70 192.5v73q-105 -117 -280 -117q-190 0 -310.5 151t-120.5 418zM324 528
q0 -163 66.5 -256.5t184.5 -93.5q147 0 218 126v476q-69 123 -216 123q-120 0 -186.5 -95t-66.5 -280zM423 1378q0 53 34 88.5t97 35.5t97 -35.5t34 -88.5q0 -52 -34 -87t-97 -35t-97 35t-34 87z" />
    <glyph glyph-name="uni0122" unicode="&#x122;" horiz-adv-x="1394" 
d="M264 1291q158 185 441 185q243 0 386 -120t172 -346h-248q-42 263 -305 263q-170 0 -258.5 -122.5t-91.5 -359.5v-112q0 -236 99.5 -366.5t276.5 -130.5q194 0 276 88v285h-300v192h552v-558q-79 -103 -219 -156t-318 -53q-183 0 -324 83t-217.5 237.5t-79.5 360.5v114
q0 330 158 516zM552 -448q73 115 76 238v100h201v-79q-1 -93 -42.5 -186t-106.5 -150z" />
    <glyph glyph-name="uni0123" unicode="&#x123;" horiz-adv-x="1161" 
d="M201 952q118 150 314 150q185 0 291 -129l11 109h219v-1049q0 -213 -132.5 -336t-357.5 -123q-119 0 -232.5 49.5t-172.5 129.5l115 146q112 -133 276 -133q121 0 191 65.5t70 192.5v73q-105 -117 -280 -117q-190 0 -310.5 151t-120.5 418q0 252 119 403zM391 272
q66 -94 184 -94q147 0 218 126v476q-69 123 -216 123q-120 0 -186.5 -95t-66.5 -280q0 -163 67 -256zM443 1255v133q0 89 42.5 180t103.5 137l131 -83q-63 -109 -65 -233l-1 -134h-211z" />
    <glyph glyph-name="Hcircumflex" unicode="&#x124;" horiz-adv-x="1455" 
d="M148 1456h253v-606h651v606h252v-1456h-252v647h-651v-647h-253v1456zM645 1854h143l273 -278v-11h-195l-150 156l-149 -156h-193v13z" />
    <glyph glyph-name="hcircumflex" unicode="&#x125;" horiz-adv-x="1137" 
d="M121 1536h243v-572q119 138 301 138q346 0 351 -395v-707h-243v698q0 112 -48.5 158.5t-142.5 46.5q-146 0 -218 -130v-773h-243v1536zM171 1597v13l271 276h143l273 -278v-11h-195l-150 156l-149 -156h-193z" />
    <glyph glyph-name="Hbar" unicode="&#x126;" horiz-adv-x="1456" 
d="M31 1036v162h124v258h252v-258h651v258h252v-258h127v-162h-127v-1036h-252v647h-651v-647h-252v1036h-124zM407 850h651v186h-651v-186z" />
    <glyph glyph-name="hbar" unicode="&#x127;" horiz-adv-x="1167" 
d="M-44 1393h195v143h243v-143h231v-170h-231v-259q119 138 301 138q346 0 351 -395v-707h-243v698q0 112 -48.5 158.5t-142.5 46.5q-146 0 -218 -130v-773h-243v1223h-195v170z" />
    <glyph glyph-name="Itilde" unicode="&#x128;" horiz-adv-x="578" 
d="M163 0v1456h252v-1456h-252zM-14 1754q64 75 159 75q57 0 137.5 -45t132.5 -45q38 0 65 28.5t27 75.5l149 -12q0 -110 -63.5 -183t-159.5 -73q-39 0 -67.5 8.5t-81 38.5t-74 36t-47.5 6q-38 0 -64.5 -28.5t-26.5 -74.5l-149 8q0 110 63 185z" />
    <glyph glyph-name="itilde" unicode="&#x129;" horiz-adv-x="538" 
d="M143 0v1082h243v-1082h-243zM-34 1430q64 75 159 75q57 0 137.5 -45t132.5 -45q38 0 65 28.5t27 75.5l149 -12q0 -110 -63.5 -183t-159.5 -73q-39 0 -67.5 8.5t-81 38.5t-74 36t-47.5 6q-38 0 -64.5 -28.5t-26.5 -74.5l-149 8q0 110 63 185z" />
    <glyph glyph-name="Imacron" unicode="&#x12a;" horiz-adv-x="578" 
d="M415 0h-252v1456h252v-1456zM636 1613h-687v158h687v-158z" />
    <glyph glyph-name="imacron" unicode="&#x12b;" horiz-adv-x="538" 
d="M386 0h-243v1082h243v-1082zM616 1289h-687v158h687v-158z" />
    <glyph glyph-name="Ibreve" unicode="&#x12c;" horiz-adv-x="578" 
d="M163 1456h252v-1456h-252v1456zM-33 1827h182q0 -66 37.5 -102.5t103.5 -36.5t103 36.5t37 102.5h183q0 -126 -88 -204t-235 -78t-235 78t-88 204z" />
    <glyph glyph-name="ibreve" unicode="&#x12d;" horiz-adv-x="538" 
d="M143 1082h243v-1082h-243v1082zM-53 1503h182q0 -66 37.5 -102.5t103.5 -36.5t103 36.5t37 102.5h183q0 -126 -88 -204t-235 -78t-235 78t-88 204z" />
    <glyph glyph-name="Iogonek" unicode="&#x12e;" horiz-adv-x="578" 
d="M23 -223q0 137 140 232v1447h252v-1456h-46q-80 -53 -115 -97q-37 -47 -37 -96q0 -68 71 -68q44 0 90 23l21 -142q-73 -44 -165 -44q-95 0 -153 55t-58 146z" />
    <glyph glyph-name="iogonek" unicode="&#x12f;" horiz-adv-x="523" 
d="M140 3v1079h243v-1082h-28q-87 -56 -124 -103t-37 -96q0 -68 71 -68q44 0 90 23l21 -142q-73 -44 -165 -44q-95 0 -153 55t-58 146q0 137 140 232zM161 1456q35 37 101 37t102 -37t36 -93q0 -55 -36 -91.5t-102 -36.5t-101.5 36.5t-35.5 91.5q0 56 36 93z" />
    <glyph glyph-name="Idotaccent" unicode="&#x130;" horiz-adv-x="578" 
d="M415 1456v-1456h-252v1456h252zM157 1695q0 53 34 88.5t97 35.5t97 -35.5t34 -88.5q0 -52 -34 -87t-97 -35t-97 35t-34 87z" />
    <glyph glyph-name="dotlessi" unicode="&#x131;" horiz-adv-x="538" 
d="M386 0h-243v1082h243v-1082z" />
    <glyph glyph-name="IJ" unicode="&#x132;" horiz-adv-x="1715" 
d="M415 0h-252v1456h252v-1456zM1322 1456h252v-1021q0 -209 -130.5 -332t-344.5 -123q-228 0 -352 115t-124 320h252q0 -116 57.5 -174.5t166.5 -58.5q102 0 162.5 67.5t60.5 186.5v1020z" />
    <glyph glyph-name="ij" unicode="&#x133;" horiz-adv-x="1036" 
d="M383 0h-243v1082h243v-1082zM125 1363q0 56 35.5 93t101.5 37t102 -37t36 -93q0 -55 -36 -91.5t-102 -36.5t-101.5 36.5t-35.5 91.5zM901 1082v-1178q0 -166 -82.5 -253.5t-241.5 -87.5q-67 0 -129 17v192q38 -9 86 -9q121 0 124 132v1187h243zM637 1363q0 56 35.5 93
t101.5 37t102 -37t36 -93q0 -55 -36 -91.5t-102 -36.5t-101.5 36.5t-35.5 91.5z" />
    <glyph glyph-name="Jcircumflex" unicode="&#x134;" horiz-adv-x="1137" 
d="M45 415h252q0 -116 57.5 -174.5t166.5 -58.5q102 0 162.5 67.5t60.5 186.5v1020h252v-1021q0 -209 -130.5 -332t-344.5 -123q-228 0 -352 115t-124 320zM779 1847h143l273 -278v-11h-195l-150 156l-149 -156h-193v13z" />
    <glyph glyph-name="jcircumflex" unicode="&#x135;" horiz-adv-x="550" 
d="M-60 -229q39 -13 97 -13q124 0 124 192v1132h242v-1147q-1 -178 -93 -275t-259 -97q-70 0 -126 17zM-68 1214v13l271 276h143l273 -278v-11h-195l-150 156l-149 -156h-193z" />
    <glyph glyph-name="uni0136" unicode="&#x136;" horiz-adv-x="1291" 
d="M401 1456v-683l140 173l426 510h306l-541 -645l572 -811h-300l-438 629l-165 -175v-454h-253v1456h253zM482 -367q73 115 76 238v100h201v-79q-1 -93 -42.5 -186t-106.5 -150z" />
    <glyph glyph-name="uni0137" unicode="&#x137;" horiz-adv-x="1069" 
d="M125 1536h243v-886l76 95l299 337h292l-402 -451l445 -631h-281l-321 464l-108 -111v-353h-243v1536zM370 -388q73 115 76 238v100h201v-79q-1 -93 -42.5 -186t-106.5 -150z" />
    <glyph glyph-name="kgreenlandic" unicode="&#x138;" horiz-adv-x="1176" 
d="M142 0v1082h242v-432h85l336 432h300l-415 -525l441 -557h-309l-327 428h-111v-428h-242z" />
    <glyph glyph-name="Lacute" unicode="&#x139;" horiz-adv-x="1108" 
d="M401 202h661v-202h-914v1456h253v-1254zM348 1846h277l-277 -303h-195z" />
    <glyph glyph-name="lacute" unicode="&#x13a;" horiz-adv-x="523" 
d="M383 0h-243v1536h243v-1536zM333 1937h277l-277 -303h-195z" />
    <glyph glyph-name="uni013B" unicode="&#x13b;" horiz-adv-x="1108" 
d="M401 1456v-1254h661v-202h-914v1456h253zM434 -432q73 115 76 238v100h201v-79q-1 -93 -42.5 -186t-106.5 -150z" />
    <glyph glyph-name="uni013C" unicode="&#x13c;" horiz-adv-x="523" 
d="M140 1536h243v-1536h-243v1536zM161 -194v100h201v-79q-1 -93 -42.5 -186t-106.5 -150l-128 77q73 115 76 238z" />
    <glyph glyph-name="Lcaron" unicode="&#x13d;" horiz-adv-x="1108" 
d="M401 1456v-1254h661v-202h-914v1456h253zM591 1119q73 115 76 238v100h201v-79q-1 -93 -42.5 -186t-106.5 -150z" />
    <glyph glyph-name="lcaron" unicode="&#x13e;" horiz-adv-x="673" 
d="M140 0v1536h243v-1536h-243zM466 1200q73 115 76 238v100h201v-79q-1 -93 -42.5 -186t-106.5 -150z" />
    <glyph glyph-name="Ldot" unicode="&#x13f;" horiz-adv-x="1108" 
d="M401 1456v-1254h661v-202h-914v1456h253zM621 902q34 35 97 35t97 -35.5t34 -88.5q0 -52 -34 -87t-97 -35t-97 35t-34 87q0 53 34 89z" />
    <glyph glyph-name="ldot" unicode="&#x140;" horiz-adv-x="743" 
d="M140 1536h243v-1536h-243v1536zM485 776q0 53 34 88.5t97 35.5t97 -35.5t34 -88.5q0 -52 -34 -87t-97 -35t-97 35t-34 87z" />
    <glyph glyph-name="Lslash" unicode="&#x141;" horiz-adv-x="1124" 
d="M34 755l130 39v662h253v-585l234 71v-147l-234 -71v-522h661v-202h-914v647l-130 -39v147z" />
    <glyph glyph-name="lslash" unicode="&#x142;" horiz-adv-x="591" 
d="M33 755l134 47v734h243v-647l148 53v-146l-148 -53v-743h-243v656l-134 -47v146z" />
    <glyph glyph-name="Nacute" unicode="&#x143;" horiz-adv-x="1454" 
d="M401 1456l651 -1037v1037h251v-1456h-253l-649 1033v-1033h-253v1456h253zM603 1543l195 303h277l-277 -303h-195z" />
    <glyph glyph-name="nacute" unicode="&#x144;" horiz-adv-x="1139" 
d="M350 1082l7 -125q120 145 315 145q338 0 344 -387v-715h-243v701q0 103 -44.5 152.5t-145.5 49.5q-147 0 -219 -133v-770h-243v1082h229zM645 1536h277l-277 -303h-195z" />
    <glyph glyph-name="uni0145" unicode="&#x145;" horiz-adv-x="1454" 
d="M148 0v1456h253l651 -1037v1037h251v-1456h-253l-649 1033v-1033h-253zM545 -436q73 115 76 238v100h201v-79q-1 -93 -42.5 -186t-106.5 -150z" />
    <glyph glyph-name="uni0146" unicode="&#x146;" horiz-adv-x="1139" 
d="M121 0v1082h229l7 -125q120 145 315 145q338 0 344 -387v-715h-243v701q0 103 -44.5 152.5t-145.5 49.5q-147 0 -219 -133v-770h-243zM390 -432q73 115 76 238v100h201v-79q-1 -93 -42.5 -186t-106.5 -150z" />
    <glyph glyph-name="Ncaron" unicode="&#x147;" horiz-adv-x="1454" 
d="M148 0v1456h253l651 -1037v1037h251v-1456h-253l-649 1033v-1033h-253zM373 1847h206l146 -155l146 155h208v-10l-279 -279h-150l-277 280v9z" />
    <glyph glyph-name="ncaron" unicode="&#x148;" horiz-adv-x="1139" 
d="M350 1082l7 -125q120 145 315 145q338 0 344 -387v-715h-243v701q0 103 -44.5 152.5t-145.5 49.5q-147 0 -219 -133v-770h-243v1082h229zM220 1537h206l146 -155l146 155h208v-10l-279 -279h-150l-277 280v9z" />
    <glyph glyph-name="napostrophe" unicode="&#x149;" horiz-adv-x="1139" 
d="M121 1082h229l7 -125q120 145 315 145q338 0 344 -387v-715h-243v701q0 103 -44.5 152.5t-145.5 49.5q-147 0 -219 -133v-770h-243v1082zM-91 1201q73 115 76 238v100h201v-79q-1 -93 -42.5 -186t-106.5 -150z" />
    <glyph glyph-name="Eng" unicode="&#x14a;" horiz-adv-x="1427" 
d="M144 1456h252l639 -1044v1044h254v-1512q0 -183 -95 -282t-264 -99q-70 0 -130 17l14 199q40 -12 98 -12q123 0 123 184v49l-639 1045v-1045h-252v1456z" />
    <glyph glyph-name="eng" unicode="&#x14b;" horiz-adv-x="1160" 
d="M126 1082h222l13 -150q115 170 311 170q176 0 266.5 -107t91.5 -317v-741q0 -180 -93.5 -277t-259.5 -97q-69 0 -127 17l14 198q40 -12 99 -12q124 0 124 176v729q0 120 -46.5 176t-151.5 56q-145 0 -220 -103v-800h-243v1082z" />
    <glyph glyph-name="Omacron" unicode="&#x14c;" horiz-adv-x="1414" 
d="M102 764q0 213 75.5 376t213 249.5t315.5 86.5t315.5 -85.5t212.5 -246t76 -373.5v-81q0 -214 -74 -375.5t-211.5 -248t-316.5 -86.5q-177 0 -315.5 86.5t-214 246.5t-76.5 369v82zM355 774v-84q0 -240 93.5 -371t259.5 -131q168 0 258.5 128t90.5 374v76
q0 242 -91.5 371t-259.5 129q-164 0 -256.5 -128.5t-94.5 -363.5zM368 1606v158h687v-158h-687z" />
    <glyph glyph-name="omacron" unicode="&#x14d;" horiz-adv-x="1166" 
d="M79 539v12q0 159 63 286.5t177 196t262 68.5q219 0 355.5 -141t147.5 -374l1 -57q0 -160 -61.5 -286t-176 -195t-264.5 -69q-229 0 -366.5 152.5t-137.5 406.5zM322 530q0 -167 69 -261.5t192 -94.5t191.5 96t68.5 281q0 164 -70.5 260t-191.5 96q-119 0 -189 -94.5
t-70 -282.5zM236 1296v158h687v-158h-687z" />
    <glyph glyph-name="Obreve" unicode="&#x14e;" horiz-adv-x="1414" 
d="M102 682v82q0 213 75.5 376t213 249.5t315.5 86.5t315.5 -85.5t212.5 -246t76 -373.5v-81q0 -214 -74 -375.5t-211.5 -248t-316.5 -86.5q-177 0 -315.5 86.5t-214 246.5t-76.5 369zM355 690q0 -240 93.5 -371t259.5 -131q168 0 258.5 128t90.5 374v76q0 242 -91.5 371
t-259.5 129q-164 0 -256.5 -128.5t-94.5 -363.5v-84zM568 1820q0 -66 37.5 -102.5t103.5 -36.5t103 36.5t37 102.5h183q0 -126 -88 -204t-235 -78t-235 78t-88 204h182z" />
    <glyph glyph-name="obreve" unicode="&#x14f;" horiz-adv-x="1166" 
d="M79 551q0 159 63 286.5t177 196t262 68.5q219 0 355.5 -141t147.5 -374l1 -57q0 -160 -61.5 -286t-176 -195t-264.5 -69q-229 0 -366.5 152.5t-137.5 406.5v12zM391 269q69 -95 192 -95t191.5 96t68.5 281q0 164 -70.5 260t-191.5 96q-119 0 -189 -94.5t-70 -282.5
q0 -167 69 -261zM254 1510h182q0 -66 37.5 -102.5t103.5 -36.5t103 36.5t37 102.5h183q0 -126 -88 -204t-235 -78t-235 78t-88 204z" />
    <glyph glyph-name="Ohungarumlaut" unicode="&#x150;" horiz-adv-x="1414" 
d="M102 682v82q0 213 75.5 376t213 249.5t315.5 86.5t315.5 -85.5t212.5 -246t76 -373.5v-81q0 -214 -74 -375.5t-211.5 -248t-316.5 -86.5q-177 0 -315.5 86.5t-214 246.5t-76.5 369zM449 319q93 -131 259 -131q168 0 258.5 128t90.5 374v76q0 242 -91.5 371t-259.5 129
q-164 0 -256.5 -128.5t-94.5 -363.5v-84q0 -240 94 -371zM746 1543l225 302h238l-266 -302h-197zM428 1543l174 302h233l-222 -302h-185z" />
    <glyph glyph-name="ohungarumlaut" unicode="&#x151;" horiz-adv-x="1166" 
d="M79 539v12q0 159 63 286.5t177 196t262 68.5q219 0 355.5 -141t147.5 -374l1 -57q0 -160 -61.5 -286t-176 -195t-264.5 -69q-229 0 -366.5 152.5t-137.5 406.5zM391 269q69 -95 192 -95t191.5 96t68.5 281q0 164 -70.5 260t-191.5 96q-119 0 -189 -94.5t-70 -282.5
q0 -167 69 -261zM839 1535h238l-266 -302h-197zM296 1233l174 302h233l-222 -302h-185z" />
    <glyph glyph-name="OE" unicode="&#x152;" horiz-adv-x="1972" 
d="M100 566v314q0 172 72.5 309t206 212t301.5 75q123 0 290 -20h860v-204h-692v-402h598v-200h-598v-448h699v-202h-867q-167 -20 -288 -20q-167 0 -299.5 73.5t-206.5 208t-76 304.5zM343 886v-310q0 -193 89 -297.5t250 -104.5q99 0 203 13v1080q-114 14 -205 14
q-161 0 -248.5 -103.5t-88.5 -291.5z" />
    <glyph glyph-name="oe" unicode="&#x153;" horiz-adv-x="1850" 
d="M227 951q135 151 359 151q249 0 383 -177q65 84 155.5 130.5t196.5 46.5h5q214 0 333 -129.5t119 -365.5v-136h-682q11 -139 83.5 -218t189.5 -79q89 0 160.5 21t142.5 71l79 -158q-71 -63 -173.5 -95.5t-222.5 -32.5q-247 0 -387 174q-134 -174 -380 -174
q-227 0 -362 150.5t-135 408.5v12q0 248 136 400zM333 530q0 -170 67 -263t188 -93q119 0 186 92.5t67 284.5q0 166 -67.5 261t-187.5 95q-117 0 -185 -93t-68 -284zM1538 649v25q0 111 -56.5 172t-155.5 61q-85 0 -145 -68.5t-80 -189.5h437z" />
    <glyph glyph-name="Racute" unicode="&#x154;" horiz-adv-x="1278" 
d="M148 1456h512q252 0 389 -113t137 -327q0 -146 -70.5 -244.5t-196.5 -151.5l327 -607v-13h-271l-292 561h-282v-561h-253v1456zM401 764h260q128 0 200 64.5t72 176.5q0 117 -66.5 181t-198.5 66h-267v-488zM481 1543l195 303h277l-277 -303h-195z" />
    <glyph glyph-name="racute" unicode="&#x155;" horiz-adv-x="720" 
d="M124 0v1082h232l6 -121q88 141 244 141q52 0 86 -14l-1 -228q-48 8 -99 8q-167 0 -225 -128v-740h-243zM285 1233l195 303h277l-277 -303h-195z" />
    <glyph glyph-name="uni0156" unicode="&#x156;" horiz-adv-x="1278" 
d="M148 1456h512q252 0 389 -113t137 -327q0 -146 -70.5 -244.5t-196.5 -151.5l327 -607v-13h-271l-292 561h-282v-561h-253v1456zM401 764h260q128 0 200 64.5t72 176.5q0 117 -66.5 181t-198.5 66h-267v-488zM435 -432q73 115 76 238v100h201v-79q-1 -93 -42.5 -186
t-106.5 -150z" />
    <glyph glyph-name="uni0157" unicode="&#x157;" horiz-adv-x="720" 
d="M356 1082l6 -121q88 141 244 141q52 0 86 -14l-1 -228q-48 8 -99 8q-167 0 -225 -128v-740h-243v1082h232zM79 -432q73 115 76 238v100h201v-79q-1 -93 -42.5 -186t-106.5 -150z" />
    <glyph glyph-name="Rcaron" unicode="&#x158;" horiz-adv-x="1278" 
d="M148 1456h512q252 0 389 -113t137 -327q0 -146 -70.5 -244.5t-196.5 -151.5l327 -607v-13h-271l-292 561h-282v-561h-253v1456zM401 764h260q128 0 200 64.5t72 176.5q0 117 -66.5 181t-198.5 66h-267v-488zM251 1847h206l146 -155l146 155h208v-10l-279 -279h-150
l-277 280v9z" />
    <glyph glyph-name="rcaron" unicode="&#x159;" horiz-adv-x="720" 
d="M124 1082h232l6 -121q88 141 244 141q52 0 86 -14l-1 -228q-48 8 -99 8q-167 0 -225 -128v-740h-243v1082zM262 1537l146 -155l146 155h208v-10l-279 -279h-150l-277 280v9h206z" />
    <glyph glyph-name="Sacute" unicode="&#x15a;" horiz-adv-x="1236" 
d="M74 440h253q0 -124 82 -192t235 -68q132 0 198.5 53.5t66.5 141.5q0 96 -67.5 148t-243.5 105t-280 118q-199 125 -199 326q0 176 143.5 290t372.5 114q152 0 271 -56t187 -159.5t68 -229.5h-252q0 114 -71.5 178.5t-204.5 64.5q-124 0 -192.5 -53t-68.5 -148
q0 -80 74 -133.5t244 -104t273 -115t151 -148t48 -195.5q0 -182 -139.5 -289.5t-378.5 -107.5q-158 0 -290.5 58.5t-206 161.5t-73.5 240zM510 1543l195 303h277l-277 -303h-195z" />
    <glyph glyph-name="sacute" unicode="&#x15b;" horiz-adv-x="1057" 
d="M75 341h236q5 -86 65 -132.5t159 -46.5q96 0 146 36.5t50 95.5q0 65 -53.5 99t-177.5 60t-207 66q-182 88 -182 255q0 140 118 234t300 94q194 0 313.5 -96t119.5 -249h-243q0 70 -52 116.5t-138 46.5q-80 0 -130.5 -37t-50.5 -99q0 -56 47 -87t190 -62.5t224.5 -75
t121 -104.5t39.5 -148q0 -146 -121 -236.5t-317 -90.5q-133 0 -237 48t-162 132t-58 181zM621 1536h277l-277 -303h-195z" />
    <glyph glyph-name="Scircumflex" unicode="&#x15c;" horiz-adv-x="1236" 
d="M327 440q0 -124 82 -192t235 -68q132 0 198.5 53.5t66.5 141.5q0 96 -67.5 148t-243.5 105t-280 118q-199 125 -199 326q0 176 143.5 290t372.5 114q152 0 271 -56t187 -159.5t68 -229.5h-252q0 114 -71.5 178.5t-204.5 64.5q-124 0 -192.5 -53t-68.5 -148
q0 -80 74 -133.5t244 -104t273 -115t151 -148t48 -195.5q0 -182 -139.5 -289.5t-378.5 -107.5q-158 0 -290.5 58.5t-206 161.5t-73.5 240h253zM291 1571l271 276h143l273 -278v-11h-195l-150 156l-149 -156h-193v13z" />
    <glyph glyph-name="scircumflex" unicode="&#x15d;" horiz-adv-x="1057" 
d="M75 341h236q5 -86 65 -132.5t159 -46.5q96 0 146 36.5t50 95.5q0 65 -53.5 99t-177.5 60t-207 66q-182 88 -182 255q0 140 118 234t300 94q194 0 313.5 -96t119.5 -249h-243q0 70 -52 116.5t-138 46.5q-80 0 -130.5 -37t-50.5 -99q0 -56 47 -87t190 -62.5t224.5 -75
t121 -104.5t39.5 -148q0 -146 -121 -236.5t-317 -90.5q-133 0 -237 48t-162 132t-58 181zM207 1261l271 276h143l273 -278v-11h-195l-150 156l-149 -156h-193v13z" />
    <glyph glyph-name="Scedilla" unicode="&#x15e;" horiz-adv-x="1236" 
d="M327 440q0 -124 82 -192t235 -68q132 0 198.5 53.5t66.5 141.5q0 96 -67.5 148t-243.5 105t-280 118q-199 125 -199 326q0 176 143.5 290t372.5 114q152 0 271 -56t187 -159.5t68 -229.5h-252q0 114 -71.5 178.5t-204.5 64.5q-124 0 -192.5 -53t-68.5 -148
q0 -80 74 -133.5t244 -104t273 -115t151 -148t48 -195.5q0 -182 -139 -289q-115 -89 -296 -104l-7 -35q150 -27 150 -173q0 -105 -86 -164t-241 -59l-7 137q66 0 101.5 23.5t35.5 65.5q0 45 -35.5 62.5t-115.5 22.5l28 121q-104 13 -196 54q-133 58 -206.5 161t-73.5 240
h253z" />
    <glyph glyph-name="scedilla" unicode="&#x15f;" horiz-adv-x="1057" 
d="M311 341q5 -86 65 -132.5t159 -46.5q96 0 146 36.5t50 95.5q0 65 -53.5 99t-177.5 60t-207 66q-182 88 -182 255q0 140 118 234t300 94q194 0 313.5 -96t119.5 -249h-243q0 70 -52 116.5t-138 46.5q-80 0 -130.5 -37t-50.5 -99q0 -56 47 -87t190 -62.5t224.5 -75
t121 -104.5t39.5 -148q0 -146 -121 -236q-85 -64 -208 -83l-10 -48q150 -27 150 -173q0 -105 -86 -164t-241 -59l-7 137q66 0 101.5 23.5t35.5 65.5q0 45 -35.5 62.5t-115.5 22.5l30 128q-92 10 -168 45q-104 48 -162 132t-58 181h236z" />
    <glyph glyph-name="Scaron" unicode="&#x160;" horiz-adv-x="1236" 
d="M327 440q0 -124 82 -192t235 -68q132 0 198.5 53.5t66.5 141.5q0 96 -67.5 148t-243.5 105t-280 118q-199 125 -199 326q0 176 143.5 290t372.5 114q152 0 271 -56t187 -159.5t68 -229.5h-252q0 114 -71.5 178.5t-204.5 64.5q-124 0 -192.5 -53t-68.5 -148
q0 -80 74 -133.5t244 -104t273 -115t151 -148t48 -195.5q0 -182 -139.5 -289.5t-378.5 -107.5q-158 0 -290.5 58.5t-206 161.5t-73.5 240h253zM280 1838v9h206l146 -155l146 155h208v-10l-279 -279h-150z" />
    <glyph glyph-name="scaron" unicode="&#x161;" horiz-adv-x="1057" 
d="M75 341h236q5 -86 65 -132.5t159 -46.5q96 0 146 36.5t50 95.5q0 65 -53.5 99t-177.5 60t-207 66q-182 88 -182 255q0 140 118 234t300 94q194 0 313.5 -96t119.5 -249h-243q0 70 -52 116.5t-138 46.5q-80 0 -130.5 -37t-50.5 -99q0 -56 47 -87t190 -62.5t224.5 -75
t121 -104.5t39.5 -148q0 -146 -121 -236.5t-317 -90.5q-133 0 -237 48t-162 132t-58 181zM196 1528v9h206l146 -155l146 155h208v-10l-279 -279h-150z" />
    <glyph glyph-name="uni0162" unicode="&#x162;" horiz-adv-x="1243" 
d="M45 1252v204h1155v-204h-454v-1252h-34l-10 -48q150 -27 150 -173q0 -105 -86 -164t-241 -59l-7 137q66 0 101.5 23.5t35.5 65.5q0 45 -35.5 62.5t-115.5 22.5l31 133h-40v1252h-450z" />
    <glyph glyph-name="uni0163" unicode="&#x163;" horiz-adv-x="681" 
d="M8 902v180h178v263h243v-263h191v-180h-191v-604q0 -62 24.5 -89.5t87.5 -27.5q42 0 85 10v-188q-47 -13 -92 -19l-7 -35q150 -27 150 -173q0 -105 -86 -164t-241 -59l-7 137q66 0 101.5 23.5t35.5 65.5q0 45 -35.5 62.5t-115.5 22.5l30 130q-173 52 -173 295v613h-178z
" />
    <glyph glyph-name="Tcaron" unicode="&#x164;" horiz-adv-x="1243" 
d="M45 1252v204h1155v-204h-454v-1252h-251v1252h-450zM266 1838v9h206l146 -155l146 155h208v-10l-279 -279h-150z" />
    <glyph glyph-name="tcaron" unicode="&#x165;" horiz-adv-x="721" 
d="M8 902v180h178v263h243v-263h191v-180h-191v-604q0 -62 24.5 -89.5t87.5 -27.5q42 0 85 10v-188q-83 -23 -160 -23q-280 0 -280 309v613h-178zM606 1567v100h201v-79q-1 -93 -42.5 -186t-106.5 -150l-128 77q73 115 76 238z" />
    <glyph glyph-name="Tbar" unicode="&#x166;" horiz-adv-x="1243" 
d="M45 1456h1155v-204h-454v-296h207v-170h-207v-786h-251v786h-211v170h211v296h-450v204z" />
    <glyph glyph-name="tbar" unicode="&#x167;" horiz-adv-x="681" 
d="M186 737v165h-178v180h178v263h243v-263h191v-180h-191v-165h216v-170h-216v-269q0 -62 24.5 -89.5t87.5 -27.5q42 0 85 10v-188q-83 -23 -160 -23q-280 0 -280 309v278h-210v170h210z" />
    <glyph glyph-name="Utilde" unicode="&#x168;" horiz-adv-x="1335" 
d="M377 1456v-974q0 -146 74 -223t218 -77q292 0 292 308v966h252v-973q0 -232 -148.5 -367.5t-395.5 -135.5q-250 0 -397 133.5t-147 370.5v972h252zM301 1562q0 110 63.5 185t158.5 75q57 0 137.5 -45t132.5 -45q38 0 65 28.5t27 75.5l149 -12q0 -110 -63.5 -183
t-159.5 -73q-39 0 -67.5 8.5t-81 38.5t-74 36t-47.5 6q-38 0 -64.5 -28.5t-26.5 -74.5z" />
    <glyph glyph-name="utilde" unicode="&#x169;" horiz-adv-x="1138" 
d="M119 381v701h243v-698q0 -206 171 -206q177 0 239 127v777h243v-1082h-229l-6 106q-107 -126 -304 -126q-176 0 -266.5 103t-90.5 298zM203 1252q0 110 63.5 185t158.5 75q57 0 137.5 -45t132.5 -45q38 0 65 28.5t27 75.5l149 -12q0 -110 -63.5 -183t-159.5 -73
q-39 0 -67.5 8.5t-81 38.5t-74 36t-47.5 6q-38 0 -64.5 -28.5t-26.5 -74.5z" />
    <glyph glyph-name="Umacron" unicode="&#x16a;" horiz-adv-x="1335" 
d="M377 1456v-974q0 -146 74 -223t218 -77q292 0 292 308v966h252v-973q0 -232 -148.5 -367.5t-395.5 -135.5q-250 0 -397 133.5t-147 370.5v972h252zM327 1764h687v-158h-687v158z" />
    <glyph glyph-name="umacron" unicode="&#x16b;" horiz-adv-x="1138" 
d="M362 1082v-698q0 -206 171 -206q177 0 239 127v777h243v-1082h-229l-6 106q-107 -126 -304 -126q-176 0 -266.5 103t-90.5 298v701h243zM229 1454h687v-158h-687v158z" />
    <glyph glyph-name="Ubreve" unicode="&#x16c;" horiz-adv-x="1335" 
d="M125 1456h252v-974q0 -146 74 -223t218 -77q292 0 292 308v966h252v-973q0 -232 -148.5 -367.5t-395.5 -135.5q-250 0 -397 133.5t-147 370.5v972zM345 1820h182q0 -66 37.5 -102.5t103.5 -36.5t103 36.5t37 102.5h183q0 -126 -88 -204t-235 -78t-235 78t-88 204z" />
    <glyph glyph-name="ubreve" unicode="&#x16d;" horiz-adv-x="1138" 
d="M119 381v701h243v-698q0 -206 171 -206q177 0 239 127v777h243v-1082h-229l-6 106q-107 -126 -304 -126q-176 0 -266.5 103t-90.5 298zM247 1510h182q0 -66 37.5 -102.5t103.5 -36.5t103 36.5t37 102.5h183q0 -126 -88 -204t-235 -78t-235 78t-88 204z" />
    <glyph glyph-name="Uring" unicode="&#x16e;" horiz-adv-x="1335" 
d="M125 1456h252v-974q0 -146 74 -223t218 -77q292 0 292 308v966h252v-973q0 -232 -148.5 -367.5t-395.5 -135.5q-250 0 -397 133.5t-147 370.5v972zM446 1732q0 85 63.5 146.5t158.5 61.5q93 0 157 -61.5t64 -146.5t-62.5 -145t-158.5 -60q-97 0 -159.5 60t-62.5 145z
M589 1653q33 -33 79 -33q47 0 79.5 32t32.5 80q0 46 -31.5 79.5t-80.5 33.5t-80.5 -33.5t-31.5 -79.5q0 -47 33 -79z" />
    <glyph glyph-name="uring" unicode="&#x16f;" horiz-adv-x="1138" 
d="M119 1082h243v-698q0 -206 171 -206q177 0 239 127v777h243v-1082h-229l-6 106q-107 -126 -304 -126q-176 0 -266.5 103t-90.5 298v701zM348 1422q0 85 63.5 146.5t158.5 61.5q93 0 157 -61.5t64 -146.5t-62.5 -145t-158.5 -60q-97 0 -159.5 60t-62.5 145zM458 1422
q0 -47 33 -79.5t79 -32.5q47 0 79.5 32t32.5 80q0 46 -31.5 79.5t-80.5 33.5t-80.5 -33.5t-31.5 -79.5z" />
    <glyph glyph-name="Uhungarumlaut" unicode="&#x170;" horiz-adv-x="1335" 
d="M377 1456v-974q0 -146 74 -223t218 -77q292 0 292 308v966h252v-973q0 -232 -148.5 -367.5t-395.5 -135.5q-250 0 -397 133.5t-147 370.5v972h252zM930 1845h238l-266 -302h-197zM387 1543l174 302h233l-222 -302h-185z" />
    <glyph glyph-name="uhungarumlaut" unicode="&#x171;" horiz-adv-x="1138" 
d="M362 1082v-698q0 -206 171 -206q177 0 239 127v777h243v-1082h-229l-6 106q-107 -126 -304 -126q-176 0 -266.5 103t-90.5 298v701h243zM832 1535h238l-266 -302h-197zM289 1233l174 302h233l-222 -302h-185z" />
    <glyph glyph-name="Uogonek" unicode="&#x172;" horiz-adv-x="1335" 
d="M377 1456v-974q0 -146 74 -223t218 -77q292 0 292 308v966h252v-974q0 -152 -66.5 -266t-192.5 -175q-61 -41 -100.5 -85.5t-39.5 -99.5q0 -68 71 -68q44 0 90 23l21 -142q-73 -44 -165 -44q-95 0 -153 55t-58 146q0 85 54 154q-256 0 -402.5 134t-146.5 369v973h252z
" />
    <glyph glyph-name="uogonek" unicode="&#x173;" horiz-adv-x="1138" 
d="M362 1082v-698q0 -206 171 -206q177 0 239 127v777h243v-1082h-21q-87 -56 -124 -103t-37 -96q0 -68 71 -68q44 0 90 23l21 -142q-73 -44 -165 -44q-95 0 -153 55t-58 146q0 140 146 237l-5 98q-107 -126 -304 -126q-176 0 -266.5 103t-90.5 298v701h243z" />
    <glyph glyph-name="Wcircumflex" unicode="&#x174;" horiz-adv-x="1802" 
d="M48 1456h251l226 -1094l278 1094h212l275 -1096l224 1096h251l-336 -1456h-242l-277 1063l-283 -1063h-243zM572 1558v13l271 276h143l273 -278v-11h-195l-150 156l-149 -156h-193z" />
    <glyph glyph-name="wcircumflex" unicode="&#x175;" horiz-adv-x="1522" 
d="M33 1082h237l175 -739l222 739h183l225 -747l172 747h237l-295 -1082h-200l-232 743l-228 -743h-200zM685 1537h143l273 -278v-11h-195l-150 156l-149 -156h-193v13z" />
    <glyph glyph-name="Ycircumflex" unicode="&#x176;" horiz-adv-x="1248" 
d="M7 1456h281l335 -690l335 690h280l-488 -920v-536h-254v536zM284 1571l271 276h143l273 -278v-11h-195l-150 156l-149 -156h-193v13z" />
    <glyph glyph-name="ycircumflex" unicode="&#x177;" horiz-adv-x="997" 
d="M12 1082h262l229 -734l220 734h259l-430 -1246q-99 -273 -336 -273q-53 0 -117 18v188l46 -3q92 0 138.5 33.5t73.5 112.5l35 93zM171 1248v13l271 276h143l273 -278v-11h-195l-150 156l-149 -156h-193z" />
    <glyph glyph-name="Ydieresis" unicode="&#x178;" horiz-adv-x="1248" 
d="M288 1456l335 -690l335 690h280l-488 -920v-536h-254v536l-489 920h281zM763 1759q33 34 92 34t93 -34t34 -84t-34 -84t-93 -34t-92.5 34t-33.5 84t34 84zM306 1760q33 34 92 34t93 -34t34 -84t-34 -84t-93 -34t-92.5 34t-33.5 84t34 84z" />
    <glyph glyph-name="Zacute" unicode="&#x179;" horiz-adv-x="1233" 
d="M386 202h778v-202h-1084v164l753 1088h-748v204h1055v-160zM694 1846h277l-277 -303h-195z" />
    <glyph glyph-name="zacute" unicode="&#x17a;" horiz-adv-x="1030" 
d="M384 194h576v-194h-878v159l549 727h-539v196h847v-154zM590 1536h277l-277 -303h-195z" />
    <glyph glyph-name="Zdotaccent" unicode="&#x17b;" horiz-adv-x="1233" 
d="M80 0v164l753 1088h-748v204h1055v-160l-754 -1094h778v-202h-1084zM525 1777q34 35 97 35t97 -35.5t34 -88.5q0 -52 -34 -87t-97 -35t-97 35t-34 87q0 53 34 89z" />
    <glyph glyph-name="zdotaccent" unicode="&#x17c;" horiz-adv-x="1030" 
d="M82 0v159l549 727h-539v196h847v-154l-555 -734h576v-194h-878zM421 1467q34 35 97 35t97 -35.5t34 -88.5q0 -52 -34 -87t-97 -35t-97 35t-34 87q0 53 34 89z" />
    <glyph glyph-name="Zcaron" unicode="&#x17d;" horiz-adv-x="1233" 
d="M80 0v164l753 1088h-748v204h1055v-160l-754 -1094h778v-202h-1084zM269 1847h206l146 -155l146 155h208v-10l-279 -279h-150l-277 280v9z" />
    <glyph glyph-name="zcaron" unicode="&#x17e;" horiz-adv-x="1030" 
d="M631 886h-539v196h847v-154l-555 -734h576v-194h-878v159zM165 1528v9h206l146 -155l146 155h208v-10l-279 -279h-150z" />
    <glyph glyph-name="longs" unicode="&#x17f;" horiz-adv-x="524" 
d="M139 1180q0 182 97 279.5t273 97.5q63 0 152 -21l-25 -185q-42 11 -92 11q-163 0 -163 -186v-1176h-242v1180z" />
    <glyph glyph-name="uni0180" unicode="&#x180;" horiz-adv-x="1242" 
d="M456 1216v-238q105 124 283 124q198 0 311 -147t113 -411v-14q0 -252 -112.5 -401t-309.5 -149q-190 0 -296 137l-12 -117h-220v1216h-186v170h186v150h243v-150h240v-170h-240zM456 319q65 -141 224 -141q114 0 176 85t64 257v31q0 176 -62 264t-180 88
q-158 0 -222 -138v-446z" />
    <glyph glyph-name="uni0181" unicode="&#x181;" horiz-adv-x="1546" 
d="M403 0v1252q-84 -2 -123.5 -45t-39.5 -131q0 -45 8 -74h-198q-17 62 -17 130q0 159 95.5 241.5t279.5 82.5h493q248 0 377 -99t129 -295q0 -100 -54.5 -180t-158.5 -124q115 -31 181 -119.5t66 -213.5q0 -204 -130.5 -314.5t-377.5 -110.5h-530zM655 657v-455h282
q119 0 185.5 59.5t66.5 163.5q0 227 -232 232h-302zM655 843h259q113 2 176.5 55.5t63.5 149.5q0 108 -61.5 156t-191.5 48h-246v-409z" />
    <glyph glyph-name="uni0182" unicode="&#x182;" horiz-adv-x="1288" 
d="M1069 1252h-672v-1252h-252v1456h924v-204zM397 899h298q160 0 279 -55t181 -156t62 -234q0 -204 -138.5 -328t-377.5 -126h-557v1456h253v-557zM397 696v-494h297q128 0 199.5 69.5t71.5 184.5q0 110 -70 174t-194 66h-304z" />
    <glyph glyph-name="uni0183" unicode="&#x183;" horiz-adv-x="1153" 
d="M858 1536v-171h-491v-387q105 124 283 124q198 0 311 -147t113 -411v-14q0 -252 -112.5 -401t-309.5 -149q-190 0 -296 137l-12 -117h-220v1536h734zM831 551q0 176 -62 264t-180 88q-158 0 -222 -138v-446q65 -141 224 -141q114 0 176 85t64 257v31z" />
    <glyph glyph-name="uni0184" unicode="&#x184;" horiz-adv-x="1399" 
d="M510 1456v-557h298q160 0 279 -55t181 -156t62 -234q0 -204 -138.5 -328t-377.5 -126h-557v967l-173 190v107l173 192h253zM510 696v-494h297q126 0 198.5 69.5t72.5 184.5q0 110 -70.5 174t-193.5 66h-304z" />
    <glyph glyph-name="uni0185" unicode="&#x185;" horiz-adv-x="1280" 
d="M1201 530q0 -255 -113.5 -402.5t-307.5 -147.5q-190 0 -297 136l-11 -116h-220v1047l-173 190v107l173 192h242v-558q105 124 284 124q197 0 310 -147t113 -411v-14zM958 551q0 176 -62 264t-180 88q-158 0 -222 -139v-445q65 -141 224 -141q114 0 176 85t64 257v31z" />
    <glyph glyph-name="uni0186" unicode="&#x186;" horiz-adv-x="1337" 
d="M329 480q18 -157 91.5 -226.5t215.5 -69.5q165 0 253.5 120.5t90.5 353.5v129q0 236 -84.5 360t-247.5 124q-147 0 -223 -67t-96 -223h-252q22 234 173.5 364.5t397.5 130.5q177 0 310.5 -85t204.5 -241.5t71 -362.5v-118q0 -208 -73.5 -364.5t-209.5 -240.5t-315 -84
q-243 0 -389 131t-170 369h252z" />
    <glyph glyph-name="uni0187" unicode="&#x187;" horiz-adv-x="1465" 
d="M1259 474q-22 -233 -172 -363.5t-399 -130.5q-174 0 -306.5 82.5t-204.5 234.5t-75 353v136q0 206 73 363t209.5 242t315.5 85q240 0 386 -129q74 192 302 192q68 0 130 -17v-201q-32 9 -74 9q-179 0 -185 -152v-203h-252q-18 157 -91.5 226.5t-215.5 69.5
q-165 0 -253.5 -120.5t-90.5 -353.5v-129q0 -236 84.5 -360t247.5 -124q149 0 224 67t95 223h252z" />
    <glyph glyph-name="uni0188" unicode="&#x188;" horiz-adv-x="1223" 
d="M569 174q91 0 151 53t64 131h229q-4 -101 -63 -188.5t-160 -138.5t-218 -51q-227 0 -360 147t-133 406v25q0 247 132 395.5t360 148.5q178 0 297 -98q57 173 255 173q62 0 111 -15v-163q-28 7 -64 7q-157 0 -157 -152v-160h-229q-4 93 -63.5 153t-151.5 60
q-118 0 -182 -85.5t-65 -259.5v-39q0 -176 63.5 -262.5t183.5 -86.5z" />
    <glyph glyph-name="uni0189" unicode="&#x189;" horiz-adv-x="1414" 
d="M224 0v1456h430q193 0 342.5 -86t231.5 -244t82 -362v-73q0 -207 -82.5 -364t-235 -242t-349.5 -85h-419zM477 1252v-1050h165q199 0 305.5 124.5t108.5 357.5v81q0 237 -103 362t-299 125h-177zM703 647h-669v170h669v-170z" />
    <glyph glyph-name="uni018A" unicode="&#x18a;" horiz-adv-x="1592" 
d="M403 0v1252q-84 -2 -123.5 -45t-39.5 -131q0 -45 8 -74h-198q-17 62 -17 130q0 159 95.5 241.5t279.5 82.5h425q193 0 342.5 -86t231 -243.5t81.5 -362.5v-73q0 -205 -81 -361.5t-231 -242t-345 -87.5h-428zM656 1252v-1050h165q199 0 305.5 124.5t108.5 357.5v81
q0 237 -103 362t-299 125h-177z" />
    <glyph glyph-name="uni018B" unicode="&#x18b;" horiz-adv-x="1287" 
d="M78 454q0 204 139 323.5t378 121.5h303v353h-672v204h925v-1456h-552q-157 0 -275 55.5t-182 159t-64 239.5zM898 696h-297q-125 0 -198 -64t-73 -176q0 -115 72.5 -184.5t197.5 -69.5h298v494z" />
    <glyph glyph-name="uni018C" unicode="&#x18c;" horiz-adv-x="1156" 
d="M79 549q0 250 116 401.5t311 151.5q172 0 278 -120v383h-491v171h734v-1536h-220l-12 112q-109 -132 -291 -132q-190 0 -307.5 153t-117.5 416zM322 528q0 -165 63.5 -257.5t180.5 -92.5q149 0 218 133v462q-67 130 -216 130q-118 0 -182 -93.5t-64 -281.5z" />
    <glyph glyph-name="uni018D" unicode="&#x18d;" horiz-adv-x="1160" 
d="M196 -375v192h427q-56 56 -186 161q-191 161 -272 294.5t-82 272.5v25q0 156 60.5 277t173 187.5t261.5 66.5q224 0 361 -141t137 -383v-14q0 -192 -117.5 -325.5t-311.5 -161.5l-33 -1l150 -136q108 -99 180 -178v-136h-748zM833 570q0 160 -67.5 248t-187.5 88
q-119 0 -186 -88.5t-67 -268.5q0 -103 47.5 -192t120.5 -135q31 -9 74 -9q126 0 196 89t70 268z" />
    <glyph glyph-name="uni018E" unicode="&#x18e;" horiz-adv-x="1158" 
d="M57 1456h952v-1456h-945v203h693v402h-598v200h598v448h-700v203z" />
    <glyph glyph-name="uni018F" unicode="&#x18f;" horiz-adv-x="1416" 
d="M1057 798q-5 224 -116.5 344t-315.5 120q-167 0 -318 -52l-52 -19l-49 198l33 15q176 72 394 72q314 0 495.5 -186.5t181.5 -515.5v-107q0 -195 -81 -353.5t-222.5 -246t-310.5 -87.5q-292 0 -453.5 176t-161.5 505v137h976zM333 599v-31q0 -185 93 -280.5t270 -95.5
q150 0 245 109t113 298h-721z" />
    <glyph glyph-name="uni0190" unicode="&#x190;" horiz-adv-x="1238" 
d="M151 618q64 85 184 127q-105 45 -165.5 124.5t-60.5 191.5q0 195 140 305t390 110q140 0 255.5 -51t182 -144.5t66.5 -211.5h-252q0 92 -70 148t-182 56q-133 0 -205.5 -56t-72.5 -156q0 -214 250 -219h181v-200h-169q-142 0 -213 -55t-71 -180q0 -110 77.5 -168
t222.5 -58q122 0 197.5 62.5t75.5 160.5h252q0 -131 -67.5 -226t-188.5 -146.5t-269 -51.5q-267 0 -410 110.5t-143 317.5q0 125 65 210z" />
    <glyph glyph-name="uni0191" unicode="&#x191;" horiz-adv-x="1208" 
d="M1070 617h-586v-677q0 -180 -94.5 -278.5t-262.5 -98.5q-73 0 -127 17l14 206q43 -13 95 -13q119 0 122 154v1529h925v-204h-672v-433h586v-202z" />
    <glyph glyph-name="florin" unicode="&#x192;" horiz-adv-x="720" 
d="M644 902h-201v-971q0 -176 -90.5 -272t-254.5 -96q-72 0 -126 17l15 191q7 -3 41 -8t52 -5q120 0 120 174v970h-165v180h165v98q0 182 97 279.5t274 97.5q61 0 152 -21l-25 -188q-38 10 -97 10q-157 0 -158 -173v-103h201v-180z" />
    <glyph glyph-name="uni0193" unicode="&#x193;" horiz-adv-x="1468" 
d="M1264 189q-79 -103 -219 -156t-318 -53q-183 0 -324 83t-217.5 237.5t-79.5 360.5v114q0 330 158 515.5t441 185.5q246 0 390 -123q74 186 298 186q66 0 130 -17v-196q-30 8 -75 8q-178 0 -184 -156v-168h-249q-42 263 -305 263q-170 0 -258.5 -122.5t-91.5 -359.5v-112
q0 -236 99.5 -366.5t276.5 -130.5q194 0 276 88v285h-300v192h552v-558z" />
    <glyph glyph-name="uni0194" unicode="&#x194;" horiz-adv-x="1327" 
d="M309 1456l353 -863l356 863h286l-521 -1157l141 -317q45 -108 45 -160q0 -122 -81 -190.5t-225 -68.5q-146 0 -228 69t-82 190q0 52 48 166l141 315l-519 1153h286zM726 -173q0 65 -63 206q-63 -148 -63 -206q0 -75 63 -75t63 75z" />
    <glyph glyph-name="uni0195" unicode="&#x195;" horiz-adv-x="1725" 
d="M1188 -20q-212 0 -313 109.5t-102 338.5v263q0 115 -46 163.5t-145 48.5q-146 0 -218 -130v-773h-243v1536h243v-572q119 138 301 138q172 0 261.5 -100t89.5 -313v-250q0 -261 172 -261t172 261v643h242v-658q-2 -227 -102.5 -335.5t-311.5 -108.5z" />
    <glyph glyph-name="uni0196" unicode="&#x196;" horiz-adv-x="693" 
d="M386 352q0 -85 41.5 -131.5t121.5 -46.5q30 0 52 3t41 8l24 -184q-38 -9 -75.5 -15t-76.5 -6q-87 0 -155.5 24t-116 71.5t-73 117t-25.5 159.5v1184h242v-1184z" />
    <glyph glyph-name="uni0197" unicode="&#x197;" horiz-adv-x="710" 
d="M478 647v-647h-252v647h-205v170h205v639h252v-639h212v-170h-212z" />
    <glyph glyph-name="uni0198" unicode="&#x198;" horiz-adv-x="1291" 
d="M568 625l-167 -187v-438h-253v1456h253v-698l140 188l232 300q38 52 71.5 94.5t69.5 72.5t77.5 46.5t95.5 16.5q66 0 117.5 -20t96.5 -50l-88 -177q-22 13 -42.5 20.5t-52.5 7.5q-20 0 -37 -8t-33 -22.5t-33 -36t-37 -48.5l-248 -327l574 -815h-300z" />
    <glyph glyph-name="uni0199" unicode="&#x199;" horiz-adv-x="1069" 
d="M476 464l-108 -111v-353h-243v1236q0 150 89.5 235.5t250.5 85.5q75 0 124 -15v-163q-37 7 -64 7q-157 0 -157 -152v-584l76 95l299 337h292l-402 -451l445 -631h-281z" />
    <glyph glyph-name="uni019A" unicode="&#x19a;" horiz-adv-x="710" 
d="M475 720v-720h-243v720h-211v170h211v646h243v-646h215v-170h-215z" />
    <glyph glyph-name="uni019B" unicode="&#x19b;" horiz-adv-x="1130" 
d="M22 0l385 1039l-24 57l-187 -66v182l120 43q-34 77 -107 80h-34l-27 -2l-3 182q59 16 129 16q111 0 171 -44.5t90 -125.5l9 -25l177 63v-182l-114 -41l353 -899q36 -86 85 -93l32 -1l17 1l4 -192q-42 -10 -94 -10q-109 0 -167.5 44t-101.5 155l-202 532l-246 -713h-265z
" />
    <glyph glyph-name="uni019C" unicode="&#x19c;" horiz-adv-x="1855" 
d="M1468 115q-108 -135 -305 -135q-233 0 -312 185q-106 -185 -341 -185q-183 0 -268.5 108t-88.5 330v1038h242v-1017q0 -261 172 -261q187 0 242 169l-3 62v1047h242v-1017q0 -261 172 -261q182 0 239 160v1118h243v-1456h-224z" />
    <glyph glyph-name="uni019D" unicode="&#x19d;" horiz-adv-x="1538" 
d="M1386 0h-253l-649 1033v-1093q0 -180 -94.5 -278.5t-262.5 -98.5q-73 0 -127 17l14 206q43 -13 95 -13q119 0 122 154v1529h253l651 -1037v1037h251v-1456z" />
    <glyph glyph-name="uni019E" unicode="&#x19e;" horiz-adv-x="1160" 
d="M126 1082h222l12 -131q119 151 312 151q182 0 268.5 -98t89.5 -295v-1124h-243v1107q0 110 -47 162.5t-151 52.5q-150 0 -220 -122v-785h-243v1082z" />
    <glyph glyph-name="uni019F" unicode="&#x19f;" horiz-adv-x="1402" 
d="M95 764q0 213 75 375t213 249.5t316 87.5t315.5 -85.5t212.5 -246t76 -373.5v-81q0 -214 -74 -375.5t-211.5 -248t-316.5 -86.5q-176 0 -313 85t-213.5 243t-79.5 363v93zM1049 809q-8 219 -98 338t-252 119q-160 0 -251 -120t-99 -337h700zM451 305q92 -117 250 -117
q159 0 248.5 114.5t99.5 336.5h-700q10 -217 102 -334z" />
    <glyph glyph-name="Ohorn" unicode="&#x1a0;" horiz-adv-x="1418" 
d="M88 682v82q0 213 75.5 376t213 249.5t314.5 86.5q255 0 417 -168q79 13 117 78.5t38 195.5h187q0 -164 -60.5 -268.5t-184.5 -139.5q87 -167 91 -390v-94q0 -214 -74 -375.5t-211.5 -248t-317.5 -86.5q-176 0 -314.5 86.5t-214 246.5t-76.5 369zM340 774v-84
q0 -236 92.5 -369t260.5 -133q169 0 259.5 128t90.5 374v76q0 246 -92 373t-260 127q-164 0 -256.5 -128.5t-94.5 -363.5z" />
    <glyph glyph-name="ohorn" unicode="&#x1a1;" horiz-adv-x="1182" 
d="M79 539v12q0 161 62.5 287.5t176.5 195t262 68.5q225 0 363 -149q53 19 77 72t24 167h167q0 -134 -44 -223.5t-147 -126.5q63 -125 65 -283v-29q0 -160 -61.5 -286t-177 -195t-264.5 -69q-227 0 -365 151t-138 408zM390 269q69 -95 192 -95t191.5 96t68.5 281
q0 167 -70.5 261.5t-191.5 94.5q-119 0 -189 -94.5t-70 -282.5q0 -167 69 -261z" />
    <glyph glyph-name="uni01A2" unicode="&#x1a2;" horiz-adv-x="1792" 
d="M1641 -416h-243v1606l-145 -60v-939q-162 -211 -532 -211q-185 0 -324.5 82t-216 237.5t-78.5 365.5v111q0 211 75.5 370t217 244.5t326.5 85.5q291 0 462 -138l272 118h186v-1872zM1012 1182q-85 91 -284 91q-180 0 -277 -130t-97 -369v-95q0 -239 99 -368t281 -129
q92 0 160 20.5t118 70.5v909z" />
    <glyph glyph-name="uni01A3" unicode="&#x1a3;" horiz-adv-x="1435" 
d="M1306 -416h-243v1203l-112 -57v-567q-136 -183 -379 -183q-227 0 -360 147t-133 406v25q0 247 132 395.5t360 148.5q197 0 329 -132l228 112h178v-1498zM569 174q81 0 139 45v637q-58 51 -139 51q-118 0 -182 -85.5t-65 -259.5v-39q0 -171 63.5 -260t183.5 -89z" />
    <glyph glyph-name="uni01A4" unicode="&#x1a4;" horiz-adv-x="1564" 
d="M655 541v-541h-252v1252q-84 -2 -123.5 -45t-39.5 -131q0 -45 8 -74h-198q-17 62 -17 130q0 159 95.5 241.5t279.5 82.5h551q244 0 387.5 -127t143.5 -336q0 -214 -140.5 -333t-393.5 -119h-301zM655 744h304q135 0 206 63.5t71 183.5q0 118 -72 188.5t-198 72.5h-311
v-508z" />
    <glyph glyph-name="uni01A5" unicode="&#x1a5;" horiz-adv-x="1153" 
d="M1072 530q0 -251 -114 -400.5t-306 -149.5q-178 0 -285 117v-513h-243v1494q0 149 92.5 232.5t247.5 83.5q68 0 124 -15v-163q-28 7 -64 7q-157 0 -157 -151v-89q106 119 282 119q198 0 310.5 -147.5t112.5 -409.5v-15zM830 551q0 162 -64.5 257t-184.5 95
q-149 0 -214 -123v-480q66 -126 216 -126q116 0 181.5 93.5t65.5 283.5z" />
    <glyph glyph-name="uni01A6" unicode="&#x1a6;" horiz-adv-x="1412" 
d="M149 1456v104h252v-104h266q249 -2 384 -115t135 -325q0 -146 -70.5 -244.5t-196.5 -151.5l514 -963v-13h-270l-480 917h-282v-561h-253v1456h1zM401 764h260q128 0 200 64.5t72 176.5q0 117 -66.5 181t-198.5 66h-267v-488z" />
    <glyph glyph-name="uni01A7" unicode="&#x1a7;" horiz-adv-x="1236" 
d="M327 375q0 -88 66.5 -141.5t198.5 -53.5q153 0 235 68t82 192h253q0 -137 -73.5 -240t-206 -161.5t-290.5 -58.5q-239 0 -378.5 107.5t-139.5 289.5q0 169 113.5 278t366.5 183q157 46 233.5 100t76.5 135q0 92 -67.5 146.5t-193.5 54.5q-133 0 -204.5 -64.5
t-71.5 -178.5h-252q0 126 67.5 229t186.5 159.5t271 56.5q148 0 266 -50.5t184 -144t66 -209.5q0 -154 -114 -261.5t-361 -181.5q-179 -54 -246.5 -106t-67.5 -148z" />
    <glyph glyph-name="uni01A8" unicode="&#x1a8;" horiz-adv-x="1057" 
d="M325 294q0 -59 50 -95.5t147 -36.5q98 0 158.5 46.5t65.5 132.5h235q0 -97 -58 -181t-162 -132t-237 -48q-197 0 -317 91t-120 236q0 129 91.5 207t306.5 124q125 27 174 57.5t49 88.5q0 61 -49.5 98.5t-130.5 37.5q-87 0 -139 -46.5t-52 -116.5h-243q0 153 119.5 249
t314.5 96q119 0 214.5 -42.5t149 -118.5t53.5 -167q0 -122 -95 -201t-293 -120q-126 -26 -179 -61t-53 -98z" />
    <glyph glyph-name="uni01A9" unicode="&#x1a9;" horiz-adv-x="1169" 
d="M71 151l457 578l-457 575v152h994v-204h-661l392 -513v-19l-395 -518h700v-202h-1030v151z" />
    <glyph glyph-name="uni01AA" unicode="&#x1aa;" horiz-adv-x="1012" 
d="M26 1197q0 151 107.5 260.5t261.5 109.5q151 0 259 -106.5t111 -256.5v-1260q4 -161 136 -161q35 0 75 8v-191q-64 -17 -130 -17q-159 0 -241.5 95.5t-82.5 278.5v893q-60 -22 -127 -22q-99 0 -184 49t-135 134.5t-50 185.5zM397 1042q66 0 107 41.5t41 114.5
q0 72 -40.5 115t-107.5 43q-68 0 -109.5 -42t-41.5 -116t42 -115t109 -41z" />
    <glyph glyph-name="uni01AB" unicode="&#x1ab;" horiz-adv-x="681" 
d="M620 902h-191v-604q0 -62 24.5 -89.5t87.5 -27.5q42 0 85 10v-242q0 -328 -277 -328q-61 0 -110 15v163q26 -7 63 -7q157 0 158 146v42q-274 5 -274 307v615h-178v180h178v263h243v-263h191v-180z" />
    <glyph glyph-name="uni01AC" unicode="&#x1ac;" horiz-adv-x="1360" 
d="M1316 1252h-454v-1252h-251v1252h-208q-167 0 -167 -176q0 -42 9 -74h-198q-17 55 -17 130q0 159 95.5 241.5t277.5 82.5h913v-204z" />
    <glyph glyph-name="uni01AD" unicode="&#x1ad;" horiz-adv-x="713" 
d="M196 1248q0 150 91 234.5t249 84.5q68 0 124 -15v-163q-28 7 -64 7q-157 0 -157 -151v-163h191v-180h-191v-585q0 -70 26 -103t87 -33q41 0 84 10v-188q-83 -23 -159 -23q-134 0 -206.5 80t-74.5 234v608h-178v180h178v166z" />
    <glyph glyph-name="uni01AE" unicode="&#x1ae;" horiz-adv-x="1243" 
d="M975 -420q-56 -17 -127 -17q-166 0 -259.5 97t-93.5 280v1312h-450v204h1155v-204h-454v-1315q0 -168 116 -168q49 0 98 13z" />
    <glyph glyph-name="Uhorn" unicode="&#x1af;" horiz-adv-x="1444" 
d="M377 1456v-974q0 -146 74 -223t218 -77q292 0 292 308v966h252v-220q109 10 156 75t47 226h181q0 -228 -93.5 -335t-290.5 -116v-603q0 -232 -148.5 -367.5t-395.5 -135.5q-250 0 -397 133.5t-147 370.5v972h252z" />
    <glyph glyph-name="uhorn" unicode="&#x1b0;" horiz-adv-x="1266" 
d="M119 1082h243v-698q0 -206 171 -206q177 0 239 127v777h243v-136q72 7 104.5 40t37.5 109l2 76h161q0 -178 -71.5 -260.5t-233.5 -93.5v-817h-229l-6 106q-107 -126 -304 -126q-176 0 -266.5 103t-90.5 298v701z" />
    <glyph glyph-name="uni01B1" unicode="&#x1b1;" horiz-adv-x="1362" 
d="M622 1247q-116 -32 -177.5 -168t-62.5 -367v-109q0 -204 78.5 -312t221.5 -108t220.5 110t77.5 312v100q0 235 -63.5 373.5t-182.5 168.5v209h504v-204h-216q106 -102 167 -247t61 -302v-98q0 -182 -71 -324.5t-201 -221.5t-296 -79q-165 0 -294.5 77.5t-201.5 218.5
t-74 318v111q0 152 59.5 297.5t167.5 249.5h-213v204h496v-209z" />
    <glyph glyph-name="uni01B2" unicode="&#x1b2;" horiz-adv-x="1340" 
d="M669 -20q-251 0 -397 134t-146 370v972h251v-974q0 -146 74 -223t218 -77q292 0 292 308v611q0 88 -35 127.5t-118 39.5q-45 0 -74 -8v198q62 17 129 17q164 0 257 -99.5t93 -275.5v-618q0 -155 -68 -268.5t-192 -173.5t-284 -60z" />
    <glyph glyph-name="uni01B3" unicode="&#x1b3;" horiz-adv-x="1369" 
d="M623 764l199 409q64 128 110.5 186t100.5 87.5t125 29.5q125 0 230 -70l-88 -177q-47 28 -95 28q-38 0 -65.5 -22.5t-59.5 -77.5l-330 -624v-533h-254v537l-489 919h282z" />
    <glyph glyph-name="uni01B4" unicode="&#x1b4;" horiz-adv-x="1220" 
d="M483 412l17 -78l221 720l29 84q82 224 280 224q117 0 214 -78l-55 -150q-61 33 -108 33t-80.5 -40.5t-74.5 -160.5l-370 -1118q-94 -285 -340 -285q-42 0 -117 18v188l46 -3q88 0 134 31.5t75 106.5l37 101l-379 1077h262z" />
    <glyph glyph-name="uni01B5" unicode="&#x1b5;" horiz-adv-x="1233" 
d="M418 653h-290v171h409l296 428h-748v204h1055v-160l-326 -472h282v-171h-400l-310 -451h778v-202h-1084v164z" />
    <glyph glyph-name="uni01B6" unicode="&#x1b6;" horiz-adv-x="1043" 
d="M318 463h-177v171h306l191 252h-539v196h847v-154l-222 -294h169v-171h-299l-203 -269h576v-194h-878v159z" />
    <glyph glyph-name="uni01B7" unicode="&#x1b7;" horiz-adv-x="1330" 
d="M687 776q264 -17 404 -169.5t140 -428.5q0 -289 -153 -444.5t-436 -155.5q-246 0 -396 130.5t-172 360.5h252q22 -159 94.5 -224t221.5 -65q176 0 256.5 95.5t80.5 302.5q0 212 -81 308t-264 97h-247v163l447 506h-737v204h1047v-157z" />
    <glyph glyph-name="uni01B8" unicode="&#x1b8;" horiz-adv-x="1330" 
d="M1256 69q-22 -231 -172.5 -361t-395.5 -130q-283 0 -436 155.5t-153 444.5q0 277 140.5 430t405.5 168l-457 523v157h1045v-204h-735l447 -506v-163h-253q-181 -2 -261 -98t-80 -307q0 -207 80.5 -302.5t256.5 -95.5q149 0 221.5 65t94.5 224h252z" />
    <glyph glyph-name="uni01B9" unicode="&#x1b9;" horiz-adv-x="1164" 
d="M1034 1082v-196h-613l349 -401v-171h-147q-146 -1 -221.5 -67t-75.5 -214q0 -106 75 -169.5t195 -63.5q109 0 176.5 66.5t67.5 162.5h243q0 -130 -62.5 -225.5t-174.5 -147t-250 -51.5q-233 0 -373 116t-140 312q0 195 108.5 309.5t307.5 138.5l-374 446l1 155h908z" />
    <glyph glyph-name="uni01BA" unicode="&#x1ba;" horiz-adv-x="1086" 
d="M307 -122q0 -60 51.5 -96t144.5 -36q101 0 161 48.5t63 131.5h236q0 -98 -58 -182t-162 -132t-237 -48q-197 0 -317 91t-120 236q0 128 95 206.5t305 121.5q135 28 178 59t43 89q0 117 -185 117h-198v147l321 256h-507v195h873v-143l-327 -293q122 -32 191 -109t69 -180
q0 -121 -91 -200t-302 -124q-127 -27 -177 -61.5t-50 -93.5z" />
    <glyph glyph-name="uni01BB" unicode="&#x1bb;" horiz-adv-x="1192" 
d="M1088 0h-979v167l440 480h-272v170h417q94 126 94 232q0 104 -58.5 168t-157.5 64q-118 0 -183 -72t-65 -197h-243q0 133 60.5 239.5t173 165.5t259.5 59q212 0 334.5 -106.5t122.5 -294.5q0 -123 -78 -258h158v-170h-280l-51 -59l-368 -394h676v-194z" />
    <glyph glyph-name="uni01BC" unicode="&#x1bc;" horiz-adv-x="1199" 
d="M212 722l55 524h-204v210h1009v-210h-580l-39 -348q99 58 227 58q208 0 323.5 -133t115.5 -358q0 -222 -127.5 -353.5t-351.5 -131.5q-200 0 -331.5 113.5t-142.5 299.5h236q14 -106 75.5 -162.5t162.5 -56.5q112 0 174.5 80t62.5 218q0 133 -69 210.5t-190 77.5
q-107 0 -172 -51l-41 -35z" />
    <glyph glyph-name="uni01BD" unicode="&#x1bd;" horiz-adv-x="1072" 
d="M163 479l49 403h-166v200h899v-200h-507l-29 -212q39 23 99 39t114 16q181 2 284 -95t103 -274t-115 -274.5t-332 -97.5q-120 0 -222.5 40.5t-161 114t-58.5 173.5l237 16q2 -68 58.5 -109t146.5 -41q101 0 152.5 48.5t51.5 136.5q0 86 -53 136t-147 50q-128 0 -190 -83z
" />
    <glyph glyph-name="uni01BE" unicode="&#x1be;" horiz-adv-x="1057" 
d="M801 902h-191v-102q0 -119 112 -188l127 -76q121 -81 121 -229q0 -146 -121 -236.5t-317 -90.5q-133 0 -237 48t-162 132t-58 181h236q5 -86 65.5 -132.5t158.5 -46.5q94 0 145 36t51 96q0 48 -34.5 84t-145.5 102q-179 107 -184 303v119h-178v180h178v263h243v-263h191
v-180z" />
    <glyph glyph-name="uni01BF" unicode="&#x1bf;" horiz-adv-x="1153" 
d="M347 1082l10 -110q109 130 292 130q198 0 310.5 -147.5t112.5 -409.5v-15q0 -178 -72 -306t-218 -220t-415 -169v-251h-243v1498h223zM581 903q-149 0 -214 -123v-755q226 60 343 184.5t120 309.5v32q0 162 -64.5 257t-184.5 95z" />
    <glyph glyph-name="uni01C0" unicode="&#x1c0;" horiz-adv-x="501" 
d="M334 0h-167v1456h167v-1456z" />
    <glyph glyph-name="uni01C1" unicode="&#x1c1;" horiz-adv-x="771" 
d="M334 0h-167v1456h167v-1456zM604 0h-167v1456h167v-1456z" />
    <glyph glyph-name="uni01C2" unicode="&#x1c2;" horiz-adv-x="710" 
d="M443 0h-167v1456h167v-1456zM690 910h-669v170h669v-170zM690 431h-669v170h669v-170z" />
    <glyph glyph-name="uni01C3" unicode="&#x1c3;" horiz-adv-x="549" 
d="M382 429h-209l-23 1027h256zM143 115q0 57 37 94.5t101 37.5t101 -37.5t37 -94.5q0 -55 -36 -92t-102 -37t-102 37t-36 92z" />
    <glyph glyph-name="uni01C4" unicode="&#x1c4;" horiz-adv-x="2411" 
d="M148 0v1456h430q193 0 342.5 -86t231.5 -244t82 -362v-73q0 -207 -82.5 -364t-235 -242t-349.5 -85h-419zM401 1252v-1050h165q199 0 305.5 124.5t108.5 357.5v81q0 237 -103 362t-299 125h-177zM1563 202h778v-202h-1084v164l753 1088h-748v204h1055v-160zM1798 1701
l146 155h208v-10l-279 -279h-150l-277 280v9h206z" />
    <glyph glyph-name="uni01C5" unicode="&#x1c5;" horiz-adv-x="2261" 
d="M148 0v1456h430q193 0 342.5 -86t231.5 -244t82 -362v-73q0 -207 -82.5 -364t-235 -242t-349.5 -85h-419zM401 1252v-1050h165q199 0 305.5 124.5t108.5 357.5v81q0 237 -103 362t-299 125h-177zM1614 194h577v-194h-879v159l550 727h-539v196h846v-154zM1752 1378
l139 143h208v-17l-268 -252h-157l-267 250v19h206z" />
    <glyph glyph-name="uni01C6" unicode="&#x1c6;" horiz-adv-x="2071" 
d="M79 549q0 250 116 401.5t311 151.5q172 0 278 -120v578h243v-1560h-210l-18 117q-108 -137 -295 -137q-190 0 -307.5 153t-117.5 416zM1424 194h577v-194h-879v159l550 727h-539v196h846v-154zM322 528q0 -165 63.5 -257.5t180.5 -92.5q149 0 218 133v462
q-67 130 -216 130q-118 0 -182 -93.5t-64 -281.5zM1562 1378l139 143h208v-17l-268 -252h-157l-267 250v19h206z" />
    <glyph glyph-name="uni01C7" unicode="&#x1c7;" horiz-adv-x="2245" 
d="M401 202h661v-202h-914v1456h253v-1254zM1852 1456h252v-1021q0 -209 -130.5 -332t-344.5 -123q-228 0 -352 115t-124 320h252q0 -116 57.5 -174.5t166.5 -58.5q102 0 162.5 67.5t60.5 186.5v1020z" />
    <glyph glyph-name="uni01C8" unicode="&#x1c8;" horiz-adv-x="1621" 
d="M401 202h661v-202h-914v1456h253v-1254zM1486 1082v-1178q0 -166 -82.5 -253.5t-241.5 -87.5q-67 0 -129 17v192q38 -9 86 -9q121 0 124 132v1187h243zM1222 1363q0 56 35.5 93t101.5 37t102 -37t36 -93q0 -55 -36 -91.5t-102 -36.5t-101.5 36.5t-35.5 91.5z" />
    <glyph glyph-name="uni01C9" unicode="&#x1c9;" horiz-adv-x="1036" 
d="M383 0h-243v1536h243v-1536zM901 1082v-1178q0 -166 -82.5 -253.5t-241.5 -87.5q-67 0 -129 17v192q38 -9 86 -9q121 0 124 132v1187h243zM637 1363q0 56 35.5 93t101.5 37t102 -37t36 -93q0 -55 -36 -91.5t-102 -36.5t-101.5 36.5t-35.5 91.5z" />
    <glyph glyph-name="uni01CA" unicode="&#x1ca;" horiz-adv-x="2591" 
d="M1303 0h-253l-649 1033v-1033h-253v1456h253l651 -1037v1037h251v-1456zM2198 1456h252v-1021q0 -209 -130.5 -332t-344.5 -123q-228 0 -352 115t-124 320h252q0 -116 57.5 -174.5t166.5 -58.5q102 0 162.5 67.5t60.5 186.5v1020z" />
    <glyph glyph-name="uni01CB" unicode="&#x1cb;" horiz-adv-x="1967" 
d="M1303 0h-253l-649 1033v-1033h-253v1456h253l651 -1037v1037h251v-1456zM1832 1082v-1178q0 -166 -82.5 -253.5t-241.5 -87.5q-67 0 -129 17v192q38 -9 86 -9q121 0 124 132v1187h243zM1568 1363q0 56 35.5 93t101.5 37t102 -37t36 -93q0 -55 -36 -91.5t-102 -36.5
t-101.5 36.5t-35.5 91.5z" />
    <glyph glyph-name="uni01CC" unicode="&#x1cc;" horiz-adv-x="1652" 
d="M350 1082l7 -125q120 145 315 145q338 0 344 -387v-715h-243v701q0 103 -44.5 152.5t-145.5 49.5q-147 0 -219 -133v-770h-243v1082h229zM1517 1082v-1178q0 -166 -82.5 -253.5t-241.5 -87.5q-67 0 -129 17v192q38 -9 86 -9q121 0 124 132v1187h243zM1253 1363
q0 56 35.5 93t101.5 37t102 -37t36 -93q0 -55 -36 -91.5t-102 -36.5t-101.5 36.5t-35.5 91.5z" />
    <glyph glyph-name="uni01CD" unicode="&#x1cd;" horiz-adv-x="1363" 
d="M18 0l550 1456h227l551 -1456h-264l-119 339h-564l-118 -339h-263zM892 543l-211 604l-211 -604h422zM332 1838v9h206l146 -155l146 155h208v-10l-279 -279h-150z" />
    <glyph glyph-name="uni01CE" unicode="&#x1ce;" horiz-adv-x="1108" 
d="M90 303q0 173 128.5 265.5t367.5 92.5h149v71q0 84 -47 134.5t-143 50.5q-83 0 -136 -41.5t-53 -105.5h-243q0 89 59 166.5t160.5 121.5t226.5 44q190 0 303 -95.5t116 -268.5v-488q0 -146 41 -233v-17h-248q-16 31 -28 101q-116 -121 -284 -121q-163 0 -266 93t-103 230
zM333 328q0 -70 46.5 -111.5t124.5 -41.5q72 0 135.5 35t95.5 94v204h-131q-135 0 -203 -47t-68 -133zM420 1537l146 -155l146 155h208v-10l-279 -279h-150l-277 280v9h206z" />
    <glyph glyph-name="uni01CF" unicode="&#x1cf;" horiz-adv-x="578" 
d="M163 0v1456h252v-1456h-252zM-64 1854h206l146 -155l146 155h208v-10l-279 -279h-150l-277 280v9z" />
    <glyph glyph-name="uni01D0" unicode="&#x1d0;" horiz-adv-x="538" 
d="M143 0v1082h243v-1082h-243zM-84 1530h206l146 -155l146 155h208v-10l-279 -279h-150l-277 280v9z" />
    <glyph glyph-name="uni01D1" unicode="&#x1d1;" horiz-adv-x="1414" 
d="M178 1140q75 163 212.5 249.5t315.5 86.5t315.5 -85.5t212.5 -246t76 -373.5v-81q0 -214 -74 -375.5t-211.5 -248t-316.5 -86.5q-177 0 -315.5 86.5t-214 246.5t-76.5 369v82q0 213 76 376zM355 774v-84q0 -240 93.5 -371t259.5 -131q168 0 258.5 128t90.5 374v76
q0 242 -91.5 371t-259.5 129q-164 0 -256.5 -128.5t-94.5 -363.5zM355 1838v9h206l146 -155l146 155h208v-10l-279 -279h-150z" />
    <glyph glyph-name="uni01D2" unicode="&#x1d2;" horiz-adv-x="1166" 
d="M79 539v12q0 159 63 286.5t177 196t262 68.5q219 0 355.5 -141t147.5 -374l1 -57q0 -160 -61.5 -286t-176 -195t-264.5 -69q-229 0 -366.5 152.5t-137.5 406.5zM322 530q0 -167 69 -261.5t192 -94.5t191.5 96t68.5 281q0 164 -70.5 260t-191.5 96q-119 0 -189 -94.5
t-70 -282.5zM429 1537l146 -155l146 155h208v-10l-279 -279h-150l-277 280v9h206z" />
    <glyph glyph-name="uni01D3" unicode="&#x1d3;" horiz-adv-x="1335" 
d="M125 1456h252v-974q0 -146 74 -223t218 -77q292 0 292 308v966h252v-973q0 -232 -148.5 -367.5t-395.5 -135.5q-250 0 -397 133.5t-147 370.5v972zM314 1847h206l146 -155l146 155h208v-10l-279 -279h-150l-277 280v9z" />
    <glyph glyph-name="uni01D4" unicode="&#x1d4;" horiz-adv-x="1138" 
d="M362 1082v-698q0 -206 171 -206q177 0 239 127v777h243v-1082h-229l-6 106q-107 -126 -304 -126q-176 0 -266.5 103t-90.5 298v701h243zM216 1528v9h206l146 -155l146 155h208v-10l-279 -279h-150z" />
    <glyph glyph-name="uni01D5" unicode="&#x1d5;" horiz-adv-x="1335" 
d="M125 484v972h252v-974q0 -146 74 -223t218 -77q292 0 292 308v966h252v-973q0 -232 -148.5 -367.5t-395.5 -135.5q-250 0 -397 133.5t-147 370.5zM1010 2034v-158h-686v158h686zM349 1759q32 33 91 33q60 0 92.5 -33t32.5 -81t-32.5 -80.5t-92.5 -32.5q-59 0 -91.5 32.5
t-32.5 80.5t33 81zM769 1677q0 49 33.5 81.5t90.5 32.5q56 0 90.5 -32t34.5 -82q0 -48 -32.5 -80.5t-92.5 -32.5t-92 32.5t-32 80.5z" />
    <glyph glyph-name="uni01D6" unicode="&#x1d6;" horiz-adv-x="1138" 
d="M119 1082h243v-698q0 -206 171 -206q177 0 239 127v777h243v-1082h-229l-6 106q-107 -126 -304 -126q-176 0 -266.5 103t-90.5 298v701zM229 1753h687v-158h-687v158zM672 1365q0 50 33.5 84t92.5 34t93 -34t34 -84t-34 -84t-93 -34t-92.5 34t-33.5 84zM215 1366
q0 50 33.5 84t92.5 34t93 -34t34 -84t-34 -84t-93 -34t-92.5 34t-33.5 84z" />
    <glyph glyph-name="uni01D7" unicode="&#x1d7;" horiz-adv-x="1335" 
d="M125 1456h252v-974q0 -146 74 -223t218 -77q292 0 292 308v966h252v-973q0 -232 -148.5 -367.5t-395.5 -135.5q-250 0 -397 133.5t-147 370.5v972zM349 1759q32 33 91 33q60 0 92.5 -33t32.5 -81t-32.5 -80.5t-92.5 -32.5q-59 0 -91.5 32.5t-32.5 80.5t33 81zM803 1759
q33 32 90 32q56 0 90.5 -32t34.5 -82q0 -48 -32.5 -80.5t-92.5 -32.5t-92 32.5t-32 80.5q0 49 34 82zM585 1762l128 212h195l-182 -212h-141z" />
    <glyph glyph-name="uni01D8" unicode="&#x1d8;" horiz-adv-x="1138" 
d="M362 1082v-698q0 -206 171 -206q177 0 239 127v777h243v-1082h-229l-6 106q-107 -126 -304 -126q-176 0 -266.5 103t-90.5 298v701h243zM446 1534l195 302h276l-276 -302h-195zM215 1366q0 50 33.5 84t92.5 34t93 -34t34 -84t-34 -84t-93 -34t-92.5 34t-33.5 84z
M672 1365q0 50 33.5 84t92.5 34t93 -34t34 -84t-34 -84t-93 -34t-92.5 34t-33.5 84z" />
    <glyph glyph-name="uni01D9" unicode="&#x1d9;" horiz-adv-x="1335" 
d="M125 1456h252v-974q0 -146 74 -223t218 -77q292 0 292 308v966h252v-973q0 -232 -148.5 -367.5t-395.5 -135.5q-250 0 -397 133.5t-147 370.5v972zM526 2033l140 -120l139 120h208v-17l-269 -224h-157l-266 222v19h205zM349 1759q32 33 91 33q60 0 92.5 -33t32.5 -81
t-32.5 -80.5t-92.5 -32.5q-59 0 -91.5 32.5t-32.5 80.5t33 81zM769 1677q0 49 33.5 81.5t90.5 32.5q56 0 90.5 -32t34.5 -82q0 -48 -32.5 -80.5t-92.5 -32.5t-92 32.5t-32 80.5z" />
    <glyph glyph-name="uni01DA" unicode="&#x1da;" horiz-adv-x="1138" 
d="M119 381v701h243v-698q0 -206 171 -206q177 0 239 127v777h243v-1082h-229l-6 106q-107 -126 -304 -126q-176 0 -266.5 103t-90.5 298zM216 1828v10h206l146 -155l146 155h208v-11l-279 -278h-150zM215 1366q0 50 33.5 84t92.5 34t93 -34t34 -84t-34 -84t-93 -34
t-92.5 34t-33.5 84zM672 1365q0 50 33.5 84t92.5 34t93 -34t34 -84t-34 -84t-93 -34t-92.5 34t-33.5 84z" />
    <glyph glyph-name="uni01DB" unicode="&#x1db;" horiz-adv-x="1335" 
d="M125 1456h252v-974q0 -146 74 -223t218 -77q292 0 292 308v966h252v-973q0 -232 -148.5 -367.5t-395.5 -135.5q-250 0 -397 133.5t-147 370.5v972zM349 1759q32 33 91 33q60 0 92.5 -33t32.5 -81t-32.5 -80.5t-92.5 -32.5q-59 0 -91.5 32.5t-32.5 80.5t33 81zM803 1759
q33 32 90 32q56 0 90.5 -32t34.5 -82q0 -48 -32.5 -80.5t-92.5 -32.5t-92 32.5t-32 80.5q0 49 34 82zM621 1974l128 -212h-141l-182 212h195z" />
    <glyph glyph-name="uni01DC" unicode="&#x1dc;" horiz-adv-x="1138" 
d="M362 1082v-698q0 -206 171 -206q177 0 239 127v777h243v-1082h-229l-6 106q-107 -126 -304 -126q-176 0 -266.5 103t-90.5 298v701h243zM223 1836h277l196 -302h-202zM672 1365q0 50 33.5 84t92.5 34t93 -34t34 -84t-34 -84t-93 -34t-92.5 34t-33.5 84zM215 1366
q0 50 33.5 84t92.5 34t93 -34t34 -84t-34 -84t-93 -34t-92.5 34t-33.5 84z" />
    </font>
</defs>
</svg>
